<?xml version="1.0" encoding="UTF-8" standalone="no"?>
<!DOCTYPE svg PUBLIC "-//W3C//DTD SVG 1.1//EN"
 "http://www.w3.org/Graphics/SVG/1.1/DTD/svg11.dtd">
<!-- Generated by graphviz version 12.2.1 (0)
 -->
<!-- Pages: 1 -->
<svg width="2757pt" height="659pt"
 viewBox="0.00 0.00 2757.38 659.00" xmlns="http://www.w3.org/2000/svg" xmlns:xlink="http://www.w3.org/1999/xlink">
<g id="graph0" class="graph" transform="scale(1 1) rotate(0) translate(4 655)">
<polygon fill="white" stroke="none" points="-4,4 -4,-655 2753.38,-655 2753.38,4 -4,4"/>
<!-- node0x5589d31d16a0 -->
<g id="node1" class="node">
<title>node0x5589d31d16a0</title>
<polygon fill="none" stroke="black" points="630.62,-651 576.62,-651 576.62,-615 630.62,-615 630.62,-651"/>
<text text-anchor="middle" x="603.62" y="-628.33" font-family="Times,serif" font-size="14.00">LIST</text>
</g>
<!-- node0x5589d31d1640 -->
<g id="node2" class="node">
<title>node0x5589d31d1640</title>
<polygon fill="none" stroke="black" points="500.38,-579 308.88,-579 308.88,-543 500.38,-543 500.38,-579"/>
<text text-anchor="middle" x="404.62" y="-556.33" font-family="Times,serif" font-size="14.00">GLOBAL_DECLARATION</text>
</g>
<!-- node0x5589d31d16a0&#45;&#45;node0x5589d31d1640 -->
<g id="edge1" class="edge">
<title>node0x5589d31d16a0&#45;&#45;node0x5589d31d1640</title>
<path fill="none" stroke="black" d="M576.37,-622.41C544.97,-611.37 492.74,-592.99 454.1,-579.4"/>
</g>
<!-- node0x5589d31d1de0 -->
<g id="node10" class="node">
<title>node0x5589d31d1de0</title>
<polygon fill="none" stroke="black" points="652.5,-579 554.75,-579 554.75,-543 652.5,-543 652.5,-579"/>
<text text-anchor="middle" x="603.62" y="-556.33" font-family="Times,serif" font-size="14.00">FUNCTION</text>
</g>
<!-- node0x5589d31d16a0&#45;&#45;node0x5589d31d1de0 -->
<g id="edge9" class="edge">
<title>node0x5589d31d16a0&#45;&#45;node0x5589d31d1de0</title>
<path fill="none" stroke="black" d="M603.62,-614.7C603.62,-603.85 603.62,-589.92 603.62,-579.1"/>
</g>
<!-- node0x5589d31d2da0 -->
<g id="node27" class="node">
<title>node0x5589d31d2da0</title>
<polygon fill="none" stroke="black" points="1036.5,-579 938.75,-579 938.75,-543 1036.5,-543 1036.5,-579"/>
<text text-anchor="middle" x="987.62" y="-556.33" font-family="Times,serif" font-size="14.00">FUNCTION</text>
</g>
<!-- node0x5589d31d16a0&#45;&#45;node0x5589d31d2da0 -->
<g id="edge26" class="edge">
<title>node0x5589d31d16a0&#45;&#45;node0x5589d31d2da0</title>
<path fill="none" stroke="black" d="M630.93,-627.02C695.19,-615.31 856.66,-585.87 938.48,-570.96"/>
</g>
<!-- node0x5589d31d14a0 -->
<g id="node3" class="node">
<title>node0x5589d31d14a0</title>
<polygon fill="none" stroke="black" points="413.62,-503.75 359.62,-503.75 359.62,-467.75 413.62,-467.75 413.62,-503.75"/>
<text text-anchor="middle" x="386.62" y="-481.07" font-family="Times,serif" font-size="14.00">LIST</text>
</g>
<!-- node0x5589d31d1640&#45;&#45;node0x5589d31d14a0 -->
<g id="edge2" class="edge">
<title>node0x5589d31d1640&#45;&#45;node0x5589d31d14a0</title>
<path fill="none" stroke="black" d="M400.36,-542.64C397.51,-531.05 393.78,-515.86 390.92,-504.24"/>
</g>
<!-- node0x5589d31d1440 -->
<g id="node4" class="node">
<title>node0x5589d31d1440</title>
<polygon fill="none" stroke="black" points="275.38,-428.5 125.88,-428.5 125.88,-392.5 275.38,-392.5 275.38,-428.5"/>
<text text-anchor="middle" x="200.62" y="-405.82" font-family="Times,serif" font-size="14.00">ARRAY_INDEXING</text>
</g>
<!-- node0x5589d31d14a0&#45;&#45;node0x5589d31d1440 -->
<g id="edge3" class="edge">
<title>node0x5589d31d14a0&#45;&#45;node0x5589d31d1440</title>
<path fill="none" stroke="black" d="M359.18,-473.94C329.07,-462.08 280.29,-442.88 244.79,-428.89"/>
</g>
<!-- node0x5589d31d15e0 -->
<g id="node7" class="node">
<title>node0x5589d31d15e0</title>
<polygon fill="none" stroke="black" points="461.38,-428.5 311.88,-428.5 311.88,-392.5 461.38,-392.5 461.38,-428.5"/>
<text text-anchor="middle" x="386.62" y="-405.82" font-family="Times,serif" font-size="14.00">ARRAY_INDEXING</text>
</g>
<!-- node0x5589d31d14a0&#45;&#45;node0x5589d31d15e0 -->
<g id="edge6" class="edge">
<title>node0x5589d31d14a0&#45;&#45;node0x5589d31d15e0</title>
<path fill="none" stroke="black" d="M386.62,-467.39C386.62,-455.8 386.62,-440.61 386.62,-428.99"/>
</g>
<!-- node0x5589d31d1350 -->
<g id="node5" class="node">
<title>node0x5589d31d1350</title>
<polygon fill="none" stroke="black" points="105.25,-356.5 0,-356.5 0,-314 105.25,-314 105.25,-356.5"/>
<text text-anchor="middle" x="52.62" y="-339.2" font-family="Times,serif" font-size="14.00">IDENTIFIER</text>
<text text-anchor="middle" x="52.62" y="-321.95" font-family="Times,serif" font-size="14.00">array</text>
</g>
<!-- node0x5589d31d1440&#45;&#45;node0x5589d31d1350 -->
<g id="edge4" class="edge">
<title>node0x5589d31d1440&#45;&#45;node0x5589d31d1350</title>
<path fill="none" stroke="black" d="M165.55,-392.14C144.18,-381.56 116.76,-367.99 94.29,-356.87"/>
</g>
<!-- node0x5589d31d13c0 -->
<g id="node6" class="node">
<title>node0x5589d31d13c0</title>
<polygon fill="none" stroke="black" points="278.38,-356.5 122.88,-356.5 122.88,-314 278.38,-314 278.38,-356.5"/>
<text text-anchor="middle" x="200.62" y="-339.2" font-family="Times,serif" font-size="14.00">NUMBER_LITERAL</text>
<text text-anchor="middle" x="200.62" y="-321.95" font-family="Times,serif" font-size="14.00">3</text>
</g>
<!-- node0x5589d31d1440&#45;&#45;node0x5589d31d13c0 -->
<g id="edge5" class="edge">
<title>node0x5589d31d1440&#45;&#45;node0x5589d31d13c0</title>
<path fill="none" stroke="black" d="M200.62,-392.14C200.62,-381.56 200.62,-367.99 200.62,-356.87"/>
</g>
<!-- node0x5589d31d14f0 -->
<g id="node8" class="node">
<title>node0x5589d31d14f0</title>
<polygon fill="none" stroke="black" points="401.25,-356.5 296,-356.5 296,-314 401.25,-314 401.25,-356.5"/>
<text text-anchor="middle" x="348.62" y="-339.2" font-family="Times,serif" font-size="14.00">IDENTIFIER</text>
<text text-anchor="middle" x="348.62" y="-321.95" font-family="Times,serif" font-size="14.00">other</text>
</g>
<!-- node0x5589d31d15e0&#45;&#45;node0x5589d31d14f0 -->
<g id="edge7" class="edge">
<title>node0x5589d31d15e0&#45;&#45;node0x5589d31d14f0</title>
<path fill="none" stroke="black" d="M377.62,-392.14C372.13,-381.56 365.09,-367.99 359.32,-356.87"/>
</g>
<!-- node0x5589d31d1560 -->
<g id="node9" class="node">
<title>node0x5589d31d1560</title>
<polygon fill="none" stroke="black" points="574.38,-356.5 418.88,-356.5 418.88,-314 574.38,-314 574.38,-356.5"/>
<text text-anchor="middle" x="496.62" y="-339.2" font-family="Times,serif" font-size="14.00">NUMBER_LITERAL</text>
<text text-anchor="middle" x="496.62" y="-321.95" font-family="Times,serif" font-size="14.00">20</text>
</g>
<!-- node0x5589d31d15e0&#45;&#45;node0x5589d31d1560 -->
<g id="edge8" class="edge">
<title>node0x5589d31d15e0&#45;&#45;node0x5589d31d1560</title>
<path fill="none" stroke="black" d="M412.69,-392.14C428.58,-381.56 448.96,-367.99 465.66,-356.87"/>
</g>
<!-- node0x5589d31d16f0 -->
<g id="node11" class="node">
<title>node0x5589d31d16f0</title>
<polygon fill="none" stroke="black" points="558.25,-507 453,-507 453,-464.5 558.25,-464.5 558.25,-507"/>
<text text-anchor="middle" x="505.62" y="-489.7" font-family="Times,serif" font-size="14.00">IDENTIFIER</text>
<text text-anchor="middle" x="505.62" y="-472.45" font-family="Times,serif" font-size="14.00">sum</text>
</g>
<!-- node0x5589d31d1de0&#45;&#45;node0x5589d31d16f0 -->
<g id="edge10" class="edge">
<title>node0x5589d31d1de0&#45;&#45;node0x5589d31d16f0</title>
<path fill="none" stroke="black" d="M580.4,-542.64C566.25,-532.06 548.09,-518.49 533.21,-507.37"/>
</g>
<!-- node0x5589d31d1760 -->
<g id="node12" class="node">
<title>node0x5589d31d1760</title>
<polygon fill="none" stroke="black" points="630.62,-503.75 576.62,-503.75 576.62,-467.75 630.62,-467.75 630.62,-503.75"/>
<text text-anchor="middle" x="603.62" y="-481.07" font-family="Times,serif" font-size="14.00">LIST</text>
</g>
<!-- node0x5589d31d1de0&#45;&#45;node0x5589d31d1760 -->
<g id="edge11" class="edge">
<title>node0x5589d31d1de0&#45;&#45;node0x5589d31d1760</title>
<path fill="none" stroke="black" d="M603.62,-542.64C603.62,-531.05 603.62,-515.86 603.62,-504.24"/>
</g>
<!-- node0x5589d31d1d40 -->
<g id="node13" class="node">
<title>node0x5589d31d1d40</title>
<polygon fill="none" stroke="black" points="716.5,-503.75 648.75,-503.75 648.75,-467.75 716.5,-467.75 716.5,-503.75"/>
<text text-anchor="middle" x="682.62" y="-481.07" font-family="Times,serif" font-size="14.00">BLOCK</text>
</g>
<!-- node0x5589d31d1de0&#45;&#45;node0x5589d31d1d40 -->
<g id="edge12" class="edge">
<title>node0x5589d31d1de0&#45;&#45;node0x5589d31d1d40</title>
<path fill="none" stroke="black" d="M622.35,-542.64C634.85,-531.05 651.23,-515.86 663.76,-504.24"/>
</g>
<!-- node0x5589d31d1ce0 -->
<g id="node14" class="node">
<title>node0x5589d31d1ce0</title>
<polygon fill="none" stroke="black" points="709.62,-428.5 655.62,-428.5 655.62,-392.5 709.62,-392.5 709.62,-428.5"/>
<text text-anchor="middle" x="682.62" y="-405.82" font-family="Times,serif" font-size="14.00">LIST</text>
</g>
<!-- node0x5589d31d1d40&#45;&#45;node0x5589d31d1ce0 -->
<g id="edge13" class="edge">
<title>node0x5589d31d1d40&#45;&#45;node0x5589d31d1ce0</title>
<path fill="none" stroke="black" d="M682.62,-467.39C682.62,-455.8 682.62,-440.61 682.62,-428.99"/>
</g>
<!-- node0x5589d31d1c80 -->
<g id="node15" class="node">
<title>node0x5589d31d1c80</title>
<polygon fill="none" stroke="black" points="772.38,-353.25 592.88,-353.25 592.88,-317.25 772.38,-317.25 772.38,-353.25"/>
<text text-anchor="middle" x="682.62" y="-330.57" font-family="Times,serif" font-size="14.00">RETURN_STATEMENT</text>
</g>
<!-- node0x5589d31d1ce0&#45;&#45;node0x5589d31d1c80 -->
<g id="edge14" class="edge">
<title>node0x5589d31d1ce0&#45;&#45;node0x5589d31d1c80</title>
<path fill="none" stroke="black" d="M682.62,-392.14C682.62,-380.55 682.62,-365.36 682.62,-353.74"/>
</g>
<!-- node0x5589d31d1c20 -->
<g id="node16" class="node">
<title>node0x5589d31d1c20</title>
<polygon fill="none" stroke="black" points="653.5,-278 555.75,-278 555.75,-235.5 653.5,-235.5 653.5,-278"/>
<text text-anchor="middle" x="604.62" y="-260.7" font-family="Times,serif" font-size="14.00">OPERATOR</text>
<text text-anchor="middle" x="604.62" y="-243.45" font-family="Times,serif" font-size="14.00">+</text>
</g>
<!-- node0x5589d31d1c80&#45;&#45;node0x5589d31d1c20 -->
<g id="edge15" class="edge">
<title>node0x5589d31d1c80&#45;&#45;node0x5589d31d1c20</title>
<path fill="none" stroke="black" d="M664.93,-316.89C653.24,-305.43 637.87,-290.36 625.58,-278.3"/>
</g>
<!-- node0x5589d31d1a60 -->
<g id="node17" class="node">
<title>node0x5589d31d1a60</title>
<polygon fill="none" stroke="black" points="508.5,-199.5 410.75,-199.5 410.75,-157 508.5,-157 508.5,-199.5"/>
<text text-anchor="middle" x="459.62" y="-182.2" font-family="Times,serif" font-size="14.00">OPERATOR</text>
<text text-anchor="middle" x="459.62" y="-164.95" font-family="Times,serif" font-size="14.00">+</text>
</g>
<!-- node0x5589d31d1c20&#45;&#45;node0x5589d31d1a60 -->
<g id="edge16" class="edge">
<title>node0x5589d31d1c20&#45;&#45;node0x5589d31d1a60</title>
<path fill="none" stroke="black" d="M565.39,-235.05C544.75,-224.16 519.53,-210.86 498.9,-199.97"/>
</g>
<!-- node0x5589d31d1ba0 -->
<g id="node24" class="node">
<title>node0x5589d31d1ba0</title>
<polygon fill="none" stroke="black" points="679.38,-196.25 529.88,-196.25 529.88,-160.25 679.38,-160.25 679.38,-196.25"/>
<text text-anchor="middle" x="604.62" y="-173.57" font-family="Times,serif" font-size="14.00">ARRAY_INDEXING</text>
</g>
<!-- node0x5589d31d1c20&#45;&#45;node0x5589d31d1ba0 -->
<g id="edge23" class="edge">
<title>node0x5589d31d1c20&#45;&#45;node0x5589d31d1ba0</title>
<path fill="none" stroke="black" d="M604.62,-235.25C604.62,-223.21 604.62,-208.16 604.62,-196.69"/>
</g>
<!-- node0x5589d31d18a0 -->
<g id="node18" class="node">
<title>node0x5589d31d18a0</title>
<polygon fill="none" stroke="black" points="366.38,-117.75 216.88,-117.75 216.88,-81.75 366.38,-81.75 366.38,-117.75"/>
<text text-anchor="middle" x="291.62" y="-95.08" font-family="Times,serif" font-size="14.00">ARRAY_INDEXING</text>
</g>
<!-- node0x5589d31d1a60&#45;&#45;node0x5589d31d18a0 -->
<g id="edge17" class="edge">
<title>node0x5589d31d1a60&#45;&#45;node0x5589d31d18a0</title>
<path fill="none" stroke="black" d="M414.16,-156.55C387.83,-144.56 355.04,-129.63 330.01,-118.23"/>
</g>
<!-- node0x5589d31d19e0 -->
<g id="node21" class="node">
<title>node0x5589d31d19e0</title>
<polygon fill="none" stroke="black" points="534.38,-117.75 384.88,-117.75 384.88,-81.75 534.38,-81.75 534.38,-117.75"/>
<text text-anchor="middle" x="459.62" y="-95.08" font-family="Times,serif" font-size="14.00">ARRAY_INDEXING</text>
</g>
<!-- node0x5589d31d1a60&#45;&#45;node0x5589d31d19e0 -->
<g id="edge20" class="edge">
<title>node0x5589d31d1a60&#45;&#45;node0x5589d31d19e0</title>
<path fill="none" stroke="black" d="M459.62,-156.75C459.62,-144.71 459.62,-129.66 459.62,-118.19"/>
</g>
<!-- node0x5589d31d17b0 -->
<g id="node19" class="node">
<title>node0x5589d31d17b0</title>
<polygon fill="none" stroke="black" points="201.25,-42.5 96,-42.5 96,0 201.25,0 201.25,-42.5"/>
<text text-anchor="middle" x="148.62" y="-25.2" font-family="Times,serif" font-size="14.00">IDENTIFIER</text>
<text text-anchor="middle" x="148.62" y="-7.95" font-family="Times,serif" font-size="14.00">array</text>
</g>
<!-- node0x5589d31d18a0&#45;&#45;node0x5589d31d17b0 -->
<g id="edge18" class="edge">
<title>node0x5589d31d18a0&#45;&#45;node0x5589d31d17b0</title>
<path fill="none" stroke="black" d="M259.18,-81.39C237.83,-69.97 209.79,-54.97 187.29,-42.94"/>
</g>
<!-- node0x5589d31d1820 -->
<g id="node20" class="node">
<title>node0x5589d31d1820</title>
<polygon fill="none" stroke="black" points="374.38,-42.5 218.88,-42.5 218.88,0 374.38,0 374.38,-42.5"/>
<text text-anchor="middle" x="296.62" y="-25.2" font-family="Times,serif" font-size="14.00">NUMBER_LITERAL</text>
<text text-anchor="middle" x="296.62" y="-7.95" font-family="Times,serif" font-size="14.00">0</text>
</g>
<!-- node0x5589d31d18a0&#45;&#45;node0x5589d31d1820 -->
<g id="edge19" class="edge">
<title>node0x5589d31d18a0&#45;&#45;node0x5589d31d1820</title>
<path fill="none" stroke="black" d="M292.76,-81.39C293.51,-69.93 294.49,-54.86 295.28,-42.8"/>
</g>
<!-- node0x5589d31d18f0 -->
<g id="node22" class="node">
<title>node0x5589d31d18f0</title>
<polygon fill="none" stroke="black" points="507.25,-42.5 402,-42.5 402,0 507.25,0 507.25,-42.5"/>
<text text-anchor="middle" x="454.62" y="-25.2" font-family="Times,serif" font-size="14.00">IDENTIFIER</text>
<text text-anchor="middle" x="454.62" y="-7.95" font-family="Times,serif" font-size="14.00">array</text>
</g>
<!-- node0x5589d31d19e0&#45;&#45;node0x5589d31d18f0 -->
<g id="edge21" class="edge">
<title>node0x5589d31d19e0&#45;&#45;node0x5589d31d18f0</title>
<path fill="none" stroke="black" d="M458.49,-81.39C457.74,-69.93 456.76,-54.86 455.97,-42.8"/>
</g>
<!-- node0x5589d31d1960 -->
<g id="node23" class="node">
<title>node0x5589d31d1960</title>
<polygon fill="none" stroke="black" points="680.38,-42.5 524.88,-42.5 524.88,0 680.38,0 680.38,-42.5"/>
<text text-anchor="middle" x="602.62" y="-25.2" font-family="Times,serif" font-size="14.00">NUMBER_LITERAL</text>
<text text-anchor="middle" x="602.62" y="-7.95" font-family="Times,serif" font-size="14.00">1</text>
</g>
<!-- node0x5589d31d19e0&#45;&#45;node0x5589d31d1960 -->
<g id="edge22" class="edge">
<title>node0x5589d31d19e0&#45;&#45;node0x5589d31d1960</title>
<path fill="none" stroke="black" d="M492.07,-81.39C513.42,-69.97 541.46,-54.97 563.96,-42.94"/>
</g>
<!-- node0x5589d31d1ab0 -->
<g id="node25" class="node">
<title>node0x5589d31d1ab0</title>
<polygon fill="none" stroke="black" points="657.25,-121 552,-121 552,-78.5 657.25,-78.5 657.25,-121"/>
<text text-anchor="middle" x="604.62" y="-103.7" font-family="Times,serif" font-size="14.00">IDENTIFIER</text>
<text text-anchor="middle" x="604.62" y="-86.45" font-family="Times,serif" font-size="14.00">array</text>
</g>
<!-- node0x5589d31d1ba0&#45;&#45;node0x5589d31d1ab0 -->
<g id="edge24" class="edge">
<title>node0x5589d31d1ba0&#45;&#45;node0x5589d31d1ab0</title>
<path fill="none" stroke="black" d="M604.62,-159.89C604.62,-148.43 604.62,-133.36 604.62,-121.3"/>
</g>
<!-- node0x5589d31d1b20 -->
<g id="node26" class="node">
<title>node0x5589d31d1b20</title>
<polygon fill="none" stroke="black" points="830.38,-121 674.88,-121 674.88,-78.5 830.38,-78.5 830.38,-121"/>
<text text-anchor="middle" x="752.62" y="-103.7" font-family="Times,serif" font-size="14.00">NUMBER_LITERAL</text>
<text text-anchor="middle" x="752.62" y="-86.45" font-family="Times,serif" font-size="14.00">2</text>
</g>
<!-- node0x5589d31d1ba0&#45;&#45;node0x5589d31d1b20 -->
<g id="edge25" class="edge">
<title>node0x5589d31d1ba0&#45;&#45;node0x5589d31d1b20</title>
<path fill="none" stroke="black" d="M638.21,-159.89C660.3,-148.47 689.32,-133.47 712.6,-121.44"/>
</g>
<!-- node0x5589d31d1e30 -->
<g id="node28" class="node">
<title>node0x5589d31d1e30</title>
<polygon fill="none" stroke="black" points="991.25,-507 886,-507 886,-464.5 991.25,-464.5 991.25,-507"/>
<text text-anchor="middle" x="938.62" y="-489.7" font-family="Times,serif" font-size="14.00">IDENTIFIER</text>
<text text-anchor="middle" x="938.62" y="-472.45" font-family="Times,serif" font-size="14.00">main</text>
</g>
<!-- node0x5589d31d2da0&#45;&#45;node0x5589d31d1e30 -->
<g id="edge27" class="edge">
<title>node0x5589d31d2da0&#45;&#45;node0x5589d31d1e30</title>
<path fill="none" stroke="black" d="M976.01,-542.64C968.94,-532.06 959.86,-518.49 952.42,-507.37"/>
</g>
<!-- node0x5589d31d1ea0 -->
<g id="node29" class="node">
<title>node0x5589d31d1ea0</title>
<polygon fill="none" stroke="black" points="1063.62,-503.75 1009.62,-503.75 1009.62,-467.75 1063.62,-467.75 1063.62,-503.75"/>
<text text-anchor="middle" x="1036.62" y="-481.07" font-family="Times,serif" font-size="14.00">LIST</text>
</g>
<!-- node0x5589d31d2da0&#45;&#45;node0x5589d31d1ea0 -->
<g id="edge28" class="edge">
<title>node0x5589d31d2da0&#45;&#45;node0x5589d31d1ea0</title>
<path fill="none" stroke="black" d="M999.24,-542.64C1006.99,-531.05 1017.15,-515.86 1024.93,-504.24"/>
</g>
<!-- node0x5589d31d2d00 -->
<g id="node30" class="node">
<title>node0x5589d31d2d00</title>
<polygon fill="none" stroke="black" points="1287.5,-503.75 1219.75,-503.75 1219.75,-467.75 1287.5,-467.75 1287.5,-503.75"/>
<text text-anchor="middle" x="1253.62" y="-481.07" font-family="Times,serif" font-size="14.00">BLOCK</text>
</g>
<!-- node0x5589d31d2da0&#45;&#45;node0x5589d31d2d00 -->
<g id="edge29" class="edge">
<title>node0x5589d31d2da0&#45;&#45;node0x5589d31d2d00</title>
<path fill="none" stroke="black" d="M1036.72,-546.48C1089.86,-531.85 1173.21,-508.89 1219.59,-496.12"/>
</g>
<!-- node0x5589d31d2110 -->
<g id="node31" class="node">
<title>node0x5589d31d2110</title>
<polygon fill="none" stroke="black" points="1431.62,-428.5 1377.62,-428.5 1377.62,-392.5 1431.62,-392.5 1431.62,-428.5"/>
<text text-anchor="middle" x="1404.62" y="-405.82" font-family="Times,serif" font-size="14.00">LIST</text>
</g>
<!-- node0x5589d31d2d00&#45;&#45;node0x5589d31d2110 -->
<g id="edge30" class="edge">
<title>node0x5589d31d2d00&#45;&#45;node0x5589d31d2110</title>
<path fill="none" stroke="black" d="M1287.89,-468.13C1315.04,-454.96 1352.45,-436.81 1377.53,-424.64"/>
</g>
<!-- node0x5589d31d20b0 -->
<g id="node32" class="node">
<title>node0x5589d31d20b0</title>
<polygon fill="none" stroke="black" points="1085.5,-353.25 867.75,-353.25 867.75,-317.25 1085.5,-317.25 1085.5,-353.25"/>
<text text-anchor="middle" x="976.62" y="-330.57" font-family="Times,serif" font-size="14.00">ASSIGNMENT_STATEMENT</text>
</g>
<!-- node0x5589d31d2110&#45;&#45;node0x5589d31d20b0 -->
<g id="edge31" class="edge">
<title>node0x5589d31d2110&#45;&#45;node0x5589d31d20b0</title>
<path fill="none" stroke="black" d="M1377.2,-404.81C1318.16,-394.7 1176.45,-370.45 1078.46,-353.68"/>
</g>
<!-- node0x5589d31d2320 -->
<g id="node37" class="node">
<title>node0x5589d31d2320</title>
<polygon fill="none" stroke="black" points="1395.5,-353.25 1177.75,-353.25 1177.75,-317.25 1395.5,-317.25 1395.5,-353.25"/>
<text text-anchor="middle" x="1286.62" y="-330.57" font-family="Times,serif" font-size="14.00">ASSIGNMENT_STATEMENT</text>
</g>
<!-- node0x5589d31d2110&#45;&#45;node0x5589d31d2320 -->
<g id="edge36" class="edge">
<title>node0x5589d31d2110&#45;&#45;node0x5589d31d2320</title>
<path fill="none" stroke="black" d="M1377.26,-392.51C1358.47,-380.85 1333.6,-365.41 1314.66,-353.66"/>
</g>
<!-- node0x5589d31d2620 -->
<g id="node42" class="node">
<title>node0x5589d31d2620</title>
<polygon fill="none" stroke="black" points="1631.5,-353.25 1413.75,-353.25 1413.75,-317.25 1631.5,-317.25 1631.5,-353.25"/>
<text text-anchor="middle" x="1522.62" y="-330.57" font-family="Times,serif" font-size="14.00">ASSIGNMENT_STATEMENT</text>
</g>
<!-- node0x5589d31d2110&#45;&#45;node0x5589d31d2620 -->
<g id="edge41" class="edge">
<title>node0x5589d31d2110&#45;&#45;node0x5589d31d2620</title>
<path fill="none" stroke="black" d="M1431.99,-392.51C1450.78,-380.85 1475.65,-365.41 1494.59,-353.66"/>
</g>
<!-- node0x5589d31d2a10 -->
<g id="node49" class="node">
<title>node0x5589d31d2a10</title>
<polygon fill="none" stroke="black" points="2102.5,-353.25 1884.75,-353.25 1884.75,-317.25 2102.5,-317.25 2102.5,-353.25"/>
<text text-anchor="middle" x="1993.62" y="-330.57" font-family="Times,serif" font-size="14.00">ASSIGNMENT_STATEMENT</text>
</g>
<!-- node0x5589d31d2110&#45;&#45;node0x5589d31d2a10 -->
<g id="edge48" class="edge">
<title>node0x5589d31d2110&#45;&#45;node0x5589d31d2a10</title>
<path fill="none" stroke="black" d="M1431.85,-406.11C1511.04,-396.27 1744.48,-367.23 1884.28,-349.85"/>
</g>
<!-- node0x5589d31d2c80 -->
<g id="node58" class="node">
<title>node0x5589d31d2c80</title>
<polygon fill="none" stroke="black" points="2398.38,-353.25 2236.88,-353.25 2236.88,-317.25 2398.38,-317.25 2398.38,-353.25"/>
<text text-anchor="middle" x="2317.62" y="-330.57" font-family="Times,serif" font-size="14.00">PRINT_STATEMENT</text>
</g>
<!-- node0x5589d31d2110&#45;&#45;node0x5589d31d2c80 -->
<g id="edge57" class="edge">
<title>node0x5589d31d2110&#45;&#45;node0x5589d31d2c80</title>
<path fill="none" stroke="black" d="M1431.94,-407.68C1526.27,-401.35 1847.05,-379.42 2111.62,-356.5 2152.8,-352.93 2198.55,-348.48 2236.46,-344.67"/>
</g>
<!-- node0x5589d31d1fe0 -->
<g id="node33" class="node">
<title>node0x5589d31d1fe0</title>
<polygon fill="none" stroke="black" points="880.38,-274.75 730.88,-274.75 730.88,-238.75 880.38,-238.75 880.38,-274.75"/>
<text text-anchor="middle" x="805.62" y="-252.07" font-family="Times,serif" font-size="14.00">ARRAY_INDEXING</text>
</g>
<!-- node0x5589d31d20b0&#45;&#45;node0x5589d31d1fe0 -->
<g id="edge32" class="edge">
<title>node0x5589d31d20b0&#45;&#45;node0x5589d31d1fe0</title>
<path fill="none" stroke="black" d="M937.82,-316.89C909.94,-304.42 872.49,-287.66 844.57,-275.17"/>
</g>
<!-- node0x5589d31d2030 -->
<g id="node36" class="node">
<title>node0x5589d31d2030</title>
<polygon fill="none" stroke="black" points="1054.38,-278 898.88,-278 898.88,-235.5 1054.38,-235.5 1054.38,-278"/>
<text text-anchor="middle" x="976.62" y="-260.7" font-family="Times,serif" font-size="14.00">NUMBER_LITERAL</text>
<text text-anchor="middle" x="976.62" y="-243.45" font-family="Times,serif" font-size="14.00">5</text>
</g>
<!-- node0x5589d31d20b0&#45;&#45;node0x5589d31d2030 -->
<g id="edge35" class="edge">
<title>node0x5589d31d20b0&#45;&#45;node0x5589d31d2030</title>
<path fill="none" stroke="black" d="M976.62,-316.89C976.62,-305.43 976.62,-290.36 976.62,-278.3"/>
</g>
<!-- node0x5589d31d1ef0 -->
<g id="node34" class="node">
<title>node0x5589d31d1ef0</title>
<polygon fill="none" stroke="black" points="802.25,-199.5 697,-199.5 697,-157 802.25,-157 802.25,-199.5"/>
<text text-anchor="middle" x="749.62" y="-182.2" font-family="Times,serif" font-size="14.00">IDENTIFIER</text>
<text text-anchor="middle" x="749.62" y="-164.95" font-family="Times,serif" font-size="14.00">array</text>
</g>
<!-- node0x5589d31d1fe0&#45;&#45;node0x5589d31d1ef0 -->
<g id="edge33" class="edge">
<title>node0x5589d31d1fe0&#45;&#45;node0x5589d31d1ef0</title>
<path fill="none" stroke="black" d="M792.92,-238.39C784.53,-226.93 773.49,-211.86 764.67,-199.8"/>
</g>
<!-- node0x5589d31d1f60 -->
<g id="node35" class="node">
<title>node0x5589d31d1f60</title>
<polygon fill="none" stroke="black" points="975.38,-199.5 819.88,-199.5 819.88,-157 975.38,-157 975.38,-199.5"/>
<text text-anchor="middle" x="897.62" y="-182.2" font-family="Times,serif" font-size="14.00">NUMBER_LITERAL</text>
<text text-anchor="middle" x="897.62" y="-164.95" font-family="Times,serif" font-size="14.00">0</text>
</g>
<!-- node0x5589d31d1fe0&#45;&#45;node0x5589d31d1f60 -->
<g id="edge34" class="edge">
<title>node0x5589d31d1fe0&#45;&#45;node0x5589d31d1f60</title>
<path fill="none" stroke="black" d="M826.5,-238.39C840.29,-226.93 858.41,-211.86 872.91,-199.8"/>
</g>
<!-- node0x5589d31d2250 -->
<g id="node38" class="node">
<title>node0x5589d31d2250</title>
<polygon fill="none" stroke="black" points="1222.38,-274.75 1072.88,-274.75 1072.88,-238.75 1222.38,-238.75 1222.38,-274.75"/>
<text text-anchor="middle" x="1147.62" y="-252.07" font-family="Times,serif" font-size="14.00">ARRAY_INDEXING</text>
</g>
<!-- node0x5589d31d2320&#45;&#45;node0x5589d31d2250 -->
<g id="edge37" class="edge">
<title>node0x5589d31d2320&#45;&#45;node0x5589d31d2250</title>
<path fill="none" stroke="black" d="M1255.08,-316.89C1232.34,-304.37 1201.76,-287.54 1179.04,-275.04"/>
</g>
<!-- node0x5589d31d22a0 -->
<g id="node41" class="node">
<title>node0x5589d31d22a0</title>
<polygon fill="none" stroke="black" points="1396.38,-278 1240.88,-278 1240.88,-235.5 1396.38,-235.5 1396.38,-278"/>
<text text-anchor="middle" x="1318.62" y="-260.7" font-family="Times,serif" font-size="14.00">NUMBER_LITERAL</text>
<text text-anchor="middle" x="1318.62" y="-243.45" font-family="Times,serif" font-size="14.00">1</text>
</g>
<!-- node0x5589d31d2320&#45;&#45;node0x5589d31d22a0 -->
<g id="edge40" class="edge">
<title>node0x5589d31d2320&#45;&#45;node0x5589d31d22a0</title>
<path fill="none" stroke="black" d="M1293.89,-316.89C1298.68,-305.43 1304.99,-290.36 1310.03,-278.3"/>
</g>
<!-- node0x5589d31d2160 -->
<g id="node39" class="node">
<title>node0x5589d31d2160</title>
<polygon fill="none" stroke="black" points="1098.25,-199.5 993,-199.5 993,-157 1098.25,-157 1098.25,-199.5"/>
<text text-anchor="middle" x="1045.62" y="-182.2" font-family="Times,serif" font-size="14.00">IDENTIFIER</text>
<text text-anchor="middle" x="1045.62" y="-164.95" font-family="Times,serif" font-size="14.00">array</text>
</g>
<!-- node0x5589d31d2250&#45;&#45;node0x5589d31d2160 -->
<g id="edge38" class="edge">
<title>node0x5589d31d2250&#45;&#45;node0x5589d31d2160</title>
<path fill="none" stroke="black" d="M1124.48,-238.39C1109.2,-226.93 1089.1,-211.86 1073.02,-199.8"/>
</g>
<!-- node0x5589d31d21d0 -->
<g id="node40" class="node">
<title>node0x5589d31d21d0</title>
<polygon fill="none" stroke="black" points="1271.38,-199.5 1115.88,-199.5 1115.88,-157 1271.38,-157 1271.38,-199.5"/>
<text text-anchor="middle" x="1193.62" y="-182.2" font-family="Times,serif" font-size="14.00">NUMBER_LITERAL</text>
<text text-anchor="middle" x="1193.62" y="-164.95" font-family="Times,serif" font-size="14.00">1</text>
</g>
<!-- node0x5589d31d2250&#45;&#45;node0x5589d31d21d0 -->
<g id="edge39" class="edge">
<title>node0x5589d31d2250&#45;&#45;node0x5589d31d21d0</title>
<path fill="none" stroke="black" d="M1158.06,-238.39C1164.96,-226.93 1174.02,-211.86 1181.27,-199.8"/>
</g>
<!-- node0x5589d31d2460 -->
<g id="node43" class="node">
<title>node0x5589d31d2460</title>
<polygon fill="none" stroke="black" points="1564.38,-274.75 1414.88,-274.75 1414.88,-238.75 1564.38,-238.75 1564.38,-274.75"/>
<text text-anchor="middle" x="1489.62" y="-252.07" font-family="Times,serif" font-size="14.00">ARRAY_INDEXING</text>
</g>
<!-- node0x5589d31d2620&#45;&#45;node0x5589d31d2460 -->
<g id="edge42" class="edge">
<title>node0x5589d31d2620&#45;&#45;node0x5589d31d2460</title>
<path fill="none" stroke="black" d="M1515.14,-316.89C1509.74,-304.37 1502.48,-287.54 1497.08,-275.04"/>
</g>
<!-- node0x5589d31d25a0 -->
<g id="node46" class="node">
<title>node0x5589d31d25a0</title>
<polygon fill="none" stroke="black" points="1732.38,-274.75 1582.88,-274.75 1582.88,-238.75 1732.38,-238.75 1732.38,-274.75"/>
<text text-anchor="middle" x="1657.62" y="-252.07" font-family="Times,serif" font-size="14.00">ARRAY_INDEXING</text>
</g>
<!-- node0x5589d31d2620&#45;&#45;node0x5589d31d25a0 -->
<g id="edge45" class="edge">
<title>node0x5589d31d2620&#45;&#45;node0x5589d31d25a0</title>
<path fill="none" stroke="black" d="M1553.26,-316.89C1575.35,-304.37 1605.05,-287.54 1627.11,-275.04"/>
</g>
<!-- node0x5589d31d2370 -->
<g id="node44" class="node">
<title>node0x5589d31d2370</title>
<polygon fill="none" stroke="black" points="1394.25,-199.5 1289,-199.5 1289,-157 1394.25,-157 1394.25,-199.5"/>
<text text-anchor="middle" x="1341.62" y="-182.2" font-family="Times,serif" font-size="14.00">IDENTIFIER</text>
<text text-anchor="middle" x="1341.62" y="-164.95" font-family="Times,serif" font-size="14.00">array</text>
</g>
<!-- node0x5589d31d2460&#45;&#45;node0x5589d31d2370 -->
<g id="edge43" class="edge">
<title>node0x5589d31d2460&#45;&#45;node0x5589d31d2370</title>
<path fill="none" stroke="black" d="M1456.04,-238.39C1433.95,-226.97 1404.93,-211.97 1381.65,-199.94"/>
</g>
<!-- node0x5589d31d23e0 -->
<g id="node45" class="node">
<title>node0x5589d31d23e0</title>
<polygon fill="none" stroke="black" points="1567.38,-199.5 1411.88,-199.5 1411.88,-157 1567.38,-157 1567.38,-199.5"/>
<text text-anchor="middle" x="1489.62" y="-182.2" font-family="Times,serif" font-size="14.00">NUMBER_LITERAL</text>
<text text-anchor="middle" x="1489.62" y="-164.95" font-family="Times,serif" font-size="14.00">2</text>
</g>
<!-- node0x5589d31d2460&#45;&#45;node0x5589d31d23e0 -->
<g id="edge44" class="edge">
<title>node0x5589d31d2460&#45;&#45;node0x5589d31d23e0</title>
<path fill="none" stroke="black" d="M1489.62,-238.39C1489.62,-226.93 1489.62,-211.86 1489.62,-199.8"/>
</g>
<!-- node0x5589d31d24b0 -->
<g id="node47" class="node">
<title>node0x5589d31d24b0</title>
<polygon fill="none" stroke="black" points="1690.25,-199.5 1585,-199.5 1585,-157 1690.25,-157 1690.25,-199.5"/>
<text text-anchor="middle" x="1637.62" y="-182.2" font-family="Times,serif" font-size="14.00">IDENTIFIER</text>
<text text-anchor="middle" x="1637.62" y="-164.95" font-family="Times,serif" font-size="14.00">array</text>
</g>
<!-- node0x5589d31d25a0&#45;&#45;node0x5589d31d24b0 -->
<g id="edge46" class="edge">
<title>node0x5589d31d25a0&#45;&#45;node0x5589d31d24b0</title>
<path fill="none" stroke="black" d="M1653.09,-238.39C1650.09,-226.93 1646.15,-211.86 1643,-199.8"/>
</g>
<!-- node0x5589d31d2520 -->
<g id="node48" class="node">
<title>node0x5589d31d2520</title>
<polygon fill="none" stroke="black" points="1863.38,-199.5 1707.88,-199.5 1707.88,-157 1863.38,-157 1863.38,-199.5"/>
<text text-anchor="middle" x="1785.62" y="-182.2" font-family="Times,serif" font-size="14.00">NUMBER_LITERAL</text>
<text text-anchor="middle" x="1785.62" y="-164.95" font-family="Times,serif" font-size="14.00">1</text>
</g>
<!-- node0x5589d31d25a0&#45;&#45;node0x5589d31d2520 -->
<g id="edge47" class="edge">
<title>node0x5589d31d25a0&#45;&#45;node0x5589d31d2520</title>
<path fill="none" stroke="black" d="M1686.67,-238.39C1705.85,-226.93 1731.07,-211.86 1751.24,-199.8"/>
</g>
<!-- node0x5589d31d2850 -->
<g id="node50" class="node">
<title>node0x5589d31d2850</title>
<polygon fill="none" stroke="black" points="2068.38,-274.75 1918.88,-274.75 1918.88,-238.75 2068.38,-238.75 2068.38,-274.75"/>
<text text-anchor="middle" x="1993.62" y="-252.07" font-family="Times,serif" font-size="14.00">ARRAY_INDEXING</text>
</g>
<!-- node0x5589d31d2a10&#45;&#45;node0x5589d31d2850 -->
<g id="edge49" class="edge">
<title>node0x5589d31d2a10&#45;&#45;node0x5589d31d2850</title>
<path fill="none" stroke="black" d="M1993.62,-316.89C1993.62,-304.37 1993.62,-287.54 1993.62,-275.04"/>
</g>
<!-- node0x5589d31d2990 -->
<g id="node55" class="node">
<title>node0x5589d31d2990</title>
<polygon fill="none" stroke="black" points="2289,-274.75 2146.25,-274.75 2146.25,-238.75 2289,-238.75 2289,-274.75"/>
<text text-anchor="middle" x="2217.62" y="-252.07" font-family="Times,serif" font-size="14.00">FUNCTION_CALL</text>
</g>
<!-- node0x5589d31d2a10&#45;&#45;node0x5589d31d2990 -->
<g id="edge54" class="edge">
<title>node0x5589d31d2a10&#45;&#45;node0x5589d31d2990</title>
<path fill="none" stroke="black" d="M2044.73,-316.8C2081.28,-304.32 2130.24,-287.59 2166.74,-275.13"/>
</g>
<!-- node0x5589d31d2670 -->
<g id="node51" class="node">
<title>node0x5589d31d2670</title>
<polygon fill="none" stroke="black" points="1986.25,-199.5 1881,-199.5 1881,-157 1986.25,-157 1986.25,-199.5"/>
<text text-anchor="middle" x="1933.62" y="-182.2" font-family="Times,serif" font-size="14.00">IDENTIFIER</text>
<text text-anchor="middle" x="1933.62" y="-164.95" font-family="Times,serif" font-size="14.00">other</text>
</g>
<!-- node0x5589d31d2850&#45;&#45;node0x5589d31d2670 -->
<g id="edge50" class="edge">
<title>node0x5589d31d2850&#45;&#45;node0x5589d31d2670</title>
<path fill="none" stroke="black" d="M1980.01,-238.39C1971.02,-226.93 1959.2,-211.86 1949.74,-199.8"/>
</g>
<!-- node0x5589d31d27d0 -->
<g id="node52" class="node">
<title>node0x5589d31d27d0</title>
<polygon fill="none" stroke="black" points="2147,-196.25 2004.25,-196.25 2004.25,-160.25 2147,-160.25 2147,-196.25"/>
<text text-anchor="middle" x="2075.62" y="-173.57" font-family="Times,serif" font-size="14.00">FUNCTION_CALL</text>
</g>
<!-- node0x5589d31d2850&#45;&#45;node0x5589d31d27d0 -->
<g id="edge51" class="edge">
<title>node0x5589d31d2850&#45;&#45;node0x5589d31d27d0</title>
<path fill="none" stroke="black" d="M2012.23,-238.39C2025.65,-225.87 2043.69,-209.04 2057.09,-196.54"/>
</g>
<!-- node0x5589d31d26e0 -->
<g id="node53" class="node">
<title>node0x5589d31d26e0</title>
<polygon fill="none" stroke="black" points="2079.25,-121 1974,-121 1974,-78.5 2079.25,-78.5 2079.25,-121"/>
<text text-anchor="middle" x="2026.62" y="-103.7" font-family="Times,serif" font-size="14.00">IDENTIFIER</text>
<text text-anchor="middle" x="2026.62" y="-86.45" font-family="Times,serif" font-size="14.00">sum</text>
</g>
<!-- node0x5589d31d27d0&#45;&#45;node0x5589d31d26e0 -->
<g id="edge52" class="edge">
<title>node0x5589d31d27d0&#45;&#45;node0x5589d31d26e0</title>
<path fill="none" stroke="black" d="M2064.51,-159.89C2057.16,-148.43 2047.51,-133.36 2039.79,-121.3"/>
</g>
<!-- node0x5589d31d2750 -->
<g id="node54" class="node">
<title>node0x5589d31d2750</title>
<polygon fill="none" stroke="black" points="2151.62,-117.75 2097.62,-117.75 2097.62,-81.75 2151.62,-81.75 2151.62,-117.75"/>
<text text-anchor="middle" x="2124.62" y="-95.08" font-family="Times,serif" font-size="14.00">LIST</text>
</g>
<!-- node0x5589d31d27d0&#45;&#45;node0x5589d31d2750 -->
<g id="edge53" class="edge">
<title>node0x5589d31d27d0&#45;&#45;node0x5589d31d2750</title>
<path fill="none" stroke="black" d="M2086.74,-159.89C2094.76,-147.37 2105.54,-130.54 2113.55,-118.04"/>
</g>
<!-- node0x5589d31d28a0 -->
<g id="node56" class="node">
<title>node0x5589d31d28a0</title>
<polygon fill="none" stroke="black" points="2270.25,-199.5 2165,-199.5 2165,-157 2270.25,-157 2270.25,-199.5"/>
<text text-anchor="middle" x="2217.62" y="-182.2" font-family="Times,serif" font-size="14.00">IDENTIFIER</text>
<text text-anchor="middle" x="2217.62" y="-164.95" font-family="Times,serif" font-size="14.00">sum</text>
</g>
<!-- node0x5589d31d2990&#45;&#45;node0x5589d31d28a0 -->
<g id="edge55" class="edge">
<title>node0x5589d31d2990&#45;&#45;node0x5589d31d28a0</title>
<path fill="none" stroke="black" d="M2217.62,-238.39C2217.62,-226.93 2217.62,-211.86 2217.62,-199.8"/>
</g>
<!-- node0x5589d31d2910 -->
<g id="node57" class="node">
<title>node0x5589d31d2910</title>
<polygon fill="none" stroke="black" points="2342.62,-196.25 2288.62,-196.25 2288.62,-160.25 2342.62,-160.25 2342.62,-196.25"/>
<text text-anchor="middle" x="2315.62" y="-173.57" font-family="Times,serif" font-size="14.00">LIST</text>
</g>
<!-- node0x5589d31d2990&#45;&#45;node0x5589d31d2910 -->
<g id="edge56" class="edge">
<title>node0x5589d31d2990&#45;&#45;node0x5589d31d2910</title>
<path fill="none" stroke="black" d="M2239.86,-238.39C2255.9,-225.87 2277.46,-209.04 2293.48,-196.54"/>
</g>
<!-- node0x5589d31d2ae0 -->
<g id="node59" class="node">
<title>node0x5589d31d2ae0</title>
<polygon fill="none" stroke="black" points="2459.62,-274.75 2405.62,-274.75 2405.62,-238.75 2459.62,-238.75 2459.62,-274.75"/>
<text text-anchor="middle" x="2432.62" y="-252.07" font-family="Times,serif" font-size="14.00">LIST</text>
</g>
<!-- node0x5589d31d2c80&#45;&#45;node0x5589d31d2ae0 -->
<g id="edge58" class="edge">
<title>node0x5589d31d2c80&#45;&#45;node0x5589d31d2ae0</title>
<path fill="none" stroke="black" d="M2343.72,-316.89C2362.54,-304.37 2387.84,-287.54 2406.63,-275.04"/>
</g>
<!-- node0x5589d31d2a60 -->
<g id="node60" class="node">
<title>node0x5589d31d2a60</title>
<polygon fill="none" stroke="black" points="2504.38,-199.5 2360.88,-199.5 2360.88,-157 2504.38,-157 2504.38,-199.5"/>
<text text-anchor="middle" x="2432.62" y="-182.2" font-family="Times,serif" font-size="14.00">STRING_LITERAL</text>
<text text-anchor="middle" x="2432.62" y="-164.95" font-family="Times,serif" font-size="14.00">&quot;Should be 7:&quot;</text>
</g>
<!-- node0x5589d31d2ae0&#45;&#45;node0x5589d31d2a60 -->
<g id="edge59" class="edge">
<title>node0x5589d31d2ae0&#45;&#45;node0x5589d31d2a60</title>
<path fill="none" stroke="black" d="M2432.62,-238.39C2432.62,-226.93 2432.62,-211.86 2432.62,-199.8"/>
</g>
<!-- node0x5589d31d2c20 -->
<g id="node61" class="node">
<title>node0x5589d31d2c20</title>
<polygon fill="none" stroke="black" points="2672.38,-196.25 2522.88,-196.25 2522.88,-160.25 2672.38,-160.25 2672.38,-196.25"/>
<text text-anchor="middle" x="2597.62" y="-173.57" font-family="Times,serif" font-size="14.00">ARRAY_INDEXING</text>
</g>
<!-- node0x5589d31d2ae0&#45;&#45;node0x5589d31d2c20 -->
<g id="edge60" class="edge">
<title>node0x5589d31d2ae0&#45;&#45;node0x5589d31d2c20</title>
<path fill="none" stroke="black" d="M2459.87,-243.12C2487.24,-230.43 2529.62,-210.78 2560.15,-196.63"/>
</g>
<!-- node0x5589d31d2b30 -->
<g id="node62" class="node">
<title>node0x5589d31d2b30</title>
<polygon fill="none" stroke="black" points="2576.25,-121 2471,-121 2471,-78.5 2576.25,-78.5 2576.25,-121"/>
<text text-anchor="middle" x="2523.62" y="-103.7" font-family="Times,serif" font-size="14.00">IDENTIFIER</text>
<text text-anchor="middle" x="2523.62" y="-86.45" font-family="Times,serif" font-size="14.00">other</text>
</g>
<!-- node0x5589d31d2c20&#45;&#45;node0x5589d31d2b30 -->
<g id="edge61" class="edge">
<title>node0x5589d31d2c20&#45;&#45;node0x5589d31d2b30</title>
<path fill="none" stroke="black" d="M2580.83,-159.89C2569.75,-148.43 2555.17,-133.36 2543.5,-121.3"/>
</g>
<!-- node0x5589d31d2ba0 -->
<g id="node63" class="node">
<title>node0x5589d31d2ba0</title>
<polygon fill="none" stroke="black" points="2749.38,-121 2593.88,-121 2593.88,-78.5 2749.38,-78.5 2749.38,-121"/>
<text text-anchor="middle" x="2671.62" y="-103.7" font-family="Times,serif" font-size="14.00">NUMBER_LITERAL</text>
<text text-anchor="middle" x="2671.62" y="-86.45" font-family="Times,serif" font-size="14.00">7</text>
</g>
<!-- node0x5589d31d2c20&#45;&#45;node0x5589d31d2ba0 -->
<g id="edge62" class="edge">
<title>node0x5589d31d2c20&#45;&#45;node0x5589d31d2ba0</title>
<path fill="none" stroke="black" d="M2614.42,-159.89C2625.5,-148.43 2640.08,-133.36 2651.75,-121.3"/>
</g>
</g>
</svg>
