<?xml version="1.0" encoding="UTF-8" standalone="no"?>
<!DOCTYPE svg PUBLIC "-//W3C//DTD SVG 1.1//EN"
 "http://www.w3.org/Graphics/SVG/1.1/DTD/svg11.dtd">
<!-- Generated by graphviz version 12.2.1 (0)
 -->
<!-- Pages: 1 -->
<svg width="1881pt" height="816pt"
 viewBox="0.00 0.00 1880.50 816.00" xmlns="http://www.w3.org/2000/svg" xmlns:xlink="http://www.w3.org/1999/xlink">
<g id="graph0" class="graph" transform="scale(1 1) rotate(0) translate(4 812)">
<polygon fill="white" stroke="none" points="-4,4 -4,-812 1876.5,-812 1876.5,4 -4,4"/>
<!-- node0x561566a97c90 -->
<g id="node1" class="node">
<title>node0x561566a97c90</title>
<polygon fill="none" stroke="black" points="784.75,-808 730.75,-808 730.75,-772 784.75,-772 784.75,-808"/>
<text text-anchor="middle" x="757.75" y="-785.33" font-family="Times,serif" font-size="14.00">LIST</text>
</g>
<!-- node0x561566a97c30 -->
<g id="node2" class="node">
<title>node0x561566a97c30</title>
<polygon fill="none" stroke="black" points="806.62,-736 708.88,-736 708.88,-700 806.62,-700 806.62,-736"/>
<text text-anchor="middle" x="757.75" y="-713.33" font-family="Times,serif" font-size="14.00">FUNCTION</text>
</g>
<!-- node0x561566a97c90&#45;&#45;node0x561566a97c30 -->
<g id="edge1" class="edge">
<title>node0x561566a97c90&#45;&#45;node0x561566a97c30</title>
<path fill="none" stroke="black" d="M757.75,-771.7C757.75,-760.85 757.75,-746.92 757.75,-736.1"/>
</g>
<!-- node0x561566a96350 -->
<g id="node3" class="node">
<title>node0x561566a96350</title>
<polygon fill="none" stroke="black" points="712.38,-664 607.12,-664 607.12,-621.5 712.38,-621.5 712.38,-664"/>
<text text-anchor="middle" x="659.75" y="-646.7" font-family="Times,serif" font-size="14.00">IDENTIFIER</text>
<text text-anchor="middle" x="659.75" y="-629.45" font-family="Times,serif" font-size="14.00">main</text>
</g>
<!-- node0x561566a97c30&#45;&#45;node0x561566a96350 -->
<g id="edge2" class="edge">
<title>node0x561566a97c30&#45;&#45;node0x561566a96350</title>
<path fill="none" stroke="black" d="M734.53,-699.64C720.38,-689.06 702.22,-675.49 687.34,-664.37"/>
</g>
<!-- node0x561566a96440 -->
<g id="node4" class="node">
<title>node0x561566a96440</title>
<polygon fill="none" stroke="black" points="784.75,-660.75 730.75,-660.75 730.75,-624.75 784.75,-624.75 784.75,-660.75"/>
<text text-anchor="middle" x="757.75" y="-638.08" font-family="Times,serif" font-size="14.00">LIST</text>
</g>
<!-- node0x561566a97c30&#45;&#45;node0x561566a96440 -->
<g id="edge3" class="edge">
<title>node0x561566a97c30&#45;&#45;node0x561566a96440</title>
<path fill="none" stroke="black" d="M757.75,-699.64C757.75,-688.05 757.75,-672.86 757.75,-661.24"/>
</g>
<!-- node0x561566a97b90 -->
<g id="node7" class="node">
<title>node0x561566a97b90</title>
<polygon fill="none" stroke="black" points="879.62,-660.75 811.88,-660.75 811.88,-624.75 879.62,-624.75 879.62,-660.75"/>
<text text-anchor="middle" x="845.75" y="-638.08" font-family="Times,serif" font-size="14.00">BLOCK</text>
</g>
<!-- node0x561566a97c30&#45;&#45;node0x561566a97b90 -->
<g id="edge6" class="edge">
<title>node0x561566a97c30&#45;&#45;node0x561566a97b90</title>
<path fill="none" stroke="black" d="M778.6,-699.64C792.53,-688.05 810.78,-672.86 824.74,-661.24"/>
</g>
<!-- node0x561566a963c0 -->
<g id="node5" class="node">
<title>node0x561566a963c0</title>
<polygon fill="none" stroke="black" points="687.38,-585.5 582.12,-585.5 582.12,-543 687.38,-543 687.38,-585.5"/>
<text text-anchor="middle" x="634.75" y="-568.2" font-family="Times,serif" font-size="14.00">IDENTIFIER</text>
<text text-anchor="middle" x="634.75" y="-550.95" font-family="Times,serif" font-size="14.00">a</text>
</g>
<!-- node0x561566a96440&#45;&#45;node0x561566a963c0 -->
<g id="edge4" class="edge">
<title>node0x561566a96440&#45;&#45;node0x561566a963c0</title>
<path fill="none" stroke="black" d="M730.45,-624.77C712.05,-613.33 687.66,-598.16 668.11,-586"/>
</g>
<!-- node0x561566a96490 -->
<g id="node6" class="node">
<title>node0x561566a96490</title>
<polygon fill="none" stroke="black" points="810.38,-585.5 705.12,-585.5 705.12,-543 810.38,-543 810.38,-585.5"/>
<text text-anchor="middle" x="757.75" y="-568.2" font-family="Times,serif" font-size="14.00">IDENTIFIER</text>
<text text-anchor="middle" x="757.75" y="-550.95" font-family="Times,serif" font-size="14.00">b</text>
</g>
<!-- node0x561566a96440&#45;&#45;node0x561566a96490 -->
<g id="edge5" class="edge">
<title>node0x561566a96440&#45;&#45;node0x561566a96490</title>
<path fill="none" stroke="black" d="M757.75,-624.39C757.75,-612.93 757.75,-597.86 757.75,-585.8"/>
</g>
<!-- node0x561566a96710 -->
<g id="node8" class="node">
<title>node0x561566a96710</title>
<polygon fill="none" stroke="black" points="882.75,-582.25 828.75,-582.25 828.75,-546.25 882.75,-546.25 882.75,-582.25"/>
<text text-anchor="middle" x="855.75" y="-559.58" font-family="Times,serif" font-size="14.00">LIST</text>
</g>
<!-- node0x561566a97b90&#45;&#45;node0x561566a96710 -->
<g id="edge7" class="edge">
<title>node0x561566a97b90&#45;&#45;node0x561566a96710</title>
<path fill="none" stroke="black" d="M848.02,-624.39C849.66,-611.87 851.86,-595.04 853.49,-582.54"/>
</g>
<!-- node0x561566a966b0 -->
<g id="node9" class="node">
<title>node0x561566a966b0</title>
<polygon fill="none" stroke="black" points="319.75,-507 189.75,-507 189.75,-471 319.75,-471 319.75,-507"/>
<text text-anchor="middle" x="254.75" y="-484.32" font-family="Times,serif" font-size="14.00">IF_STATEMENT</text>
</g>
<!-- node0x561566a96710&#45;&#45;node0x561566a966b0 -->
<g id="edge8" class="edge">
<title>node0x561566a96710&#45;&#45;node0x561566a966b0</title>
<path fill="none" stroke="black" d="M828.37,-546.34C825.53,-545.05 822.62,-543.9 819.75,-543 728.07,-514.34 448.24,-498.59 320.08,-492.71"/>
</g>
<!-- node0x561566a96a60 -->
<g id="node14" class="node">
<title>node0x561566a96a60</title>
<polygon fill="none" stroke="black" points="763.75,-507 633.75,-507 633.75,-471 763.75,-471 763.75,-507"/>
<text text-anchor="middle" x="698.75" y="-484.32" font-family="Times,serif" font-size="14.00">IF_STATEMENT</text>
</g>
<!-- node0x561566a96710&#45;&#45;node0x561566a96a60 -->
<g id="edge13" class="edge">
<title>node0x561566a96710&#45;&#45;node0x561566a96a60</title>
<path fill="none" stroke="black" d="M828.38,-547.49C825.49,-545.93 822.57,-544.41 819.75,-543 794.2,-530.26 764.88,-517.37 741.51,-507.5"/>
</g>
<!-- node0x561566a976d0 -->
<g id="node22" class="node">
<title>node0x561566a976d0</title>
<polygon fill="none" stroke="black" points="1077.75,-507 947.75,-507 947.75,-471 1077.75,-471 1077.75,-507"/>
<text text-anchor="middle" x="1012.75" y="-484.32" font-family="Times,serif" font-size="14.00">IF_STATEMENT</text>
</g>
<!-- node0x561566a96710&#45;&#45;node0x561566a976d0 -->
<g id="edge21" class="edge">
<title>node0x561566a96710&#45;&#45;node0x561566a976d0</title>
<path fill="none" stroke="black" d="M883.1,-550.49C908.66,-538.56 947.05,-520.65 975.42,-507.41"/>
</g>
<!-- node0x561566a97b30 -->
<g id="node51" class="node">
<title>node0x561566a97b30</title>
<polygon fill="none" stroke="black" points="1482.75,-507 1352.75,-507 1352.75,-471 1482.75,-471 1482.75,-507"/>
<text text-anchor="middle" x="1417.75" y="-484.32" font-family="Times,serif" font-size="14.00">IF_STATEMENT</text>
</g>
<!-- node0x561566a96710&#45;&#45;node0x561566a97b30 -->
<g id="edge50" class="edge">
<title>node0x561566a96710&#45;&#45;node0x561566a97b30</title>
<path fill="none" stroke="black" d="M883.24,-559.67C968.41,-548.57 1229.58,-514.53 1352.5,-498.5"/>
</g>
<!-- node0x561566a96500 -->
<g id="node10" class="node">
<title>node0x561566a96500</title>
<polygon fill="none" stroke="black" points="155.5,-435 0,-435 0,-392.5 155.5,-392.5 155.5,-435"/>
<text text-anchor="middle" x="77.75" y="-417.7" font-family="Times,serif" font-size="14.00">NUMBER_LITERAL</text>
<text text-anchor="middle" x="77.75" y="-400.45" font-family="Times,serif" font-size="14.00">1</text>
</g>
<!-- node0x561566a966b0&#45;&#45;node0x561566a96500 -->
<g id="edge9" class="edge">
<title>node0x561566a966b0&#45;&#45;node0x561566a96500</title>
<path fill="none" stroke="black" d="M212.8,-470.64C187.25,-460.06 154.45,-446.49 127.57,-435.37"/>
</g>
<!-- node0x561566a96630 -->
<g id="node11" class="node">
<title>node0x561566a96630</title>
<polygon fill="none" stroke="black" points="335.5,-431.75 174,-431.75 174,-395.75 335.5,-395.75 335.5,-431.75"/>
<text text-anchor="middle" x="254.75" y="-409.07" font-family="Times,serif" font-size="14.00">PRINT_STATEMENT</text>
</g>
<!-- node0x561566a966b0&#45;&#45;node0x561566a96630 -->
<g id="edge10" class="edge">
<title>node0x561566a966b0&#45;&#45;node0x561566a96630</title>
<path fill="none" stroke="black" d="M254.75,-470.64C254.75,-459.05 254.75,-443.86 254.75,-432.24"/>
</g>
<!-- node0x561566a965d0 -->
<g id="node12" class="node">
<title>node0x561566a965d0</title>
<polygon fill="none" stroke="black" points="281.75,-353.25 227.75,-353.25 227.75,-317.25 281.75,-317.25 281.75,-353.25"/>
<text text-anchor="middle" x="254.75" y="-330.57" font-family="Times,serif" font-size="14.00">LIST</text>
</g>
<!-- node0x561566a96630&#45;&#45;node0x561566a965d0 -->
<g id="edge11" class="edge">
<title>node0x561566a96630&#45;&#45;node0x561566a965d0</title>
<path fill="none" stroke="black" d="M254.75,-395.39C254.75,-382.87 254.75,-366.04 254.75,-353.54"/>
</g>
<!-- node0x561566a96550 -->
<g id="node13" class="node">
<title>node0x561566a96550</title>
<polygon fill="none" stroke="black" points="326.5,-278 183,-278 183,-235.5 326.5,-235.5 326.5,-278"/>
<text text-anchor="middle" x="254.75" y="-260.7" font-family="Times,serif" font-size="14.00">STRING_LITERAL</text>
<text text-anchor="middle" x="254.75" y="-243.45" font-family="Times,serif" font-size="14.00">&quot;Always&quot;</text>
</g>
<!-- node0x561566a965d0&#45;&#45;node0x561566a96550 -->
<g id="edge12" class="edge">
<title>node0x561566a965d0&#45;&#45;node0x561566a96550</title>
<path fill="none" stroke="black" d="M254.75,-316.89C254.75,-305.43 254.75,-290.36 254.75,-278.3"/>
</g>
<!-- node0x561566a96760 -->
<g id="node15" class="node">
<title>node0x561566a96760</title>
<polygon fill="none" stroke="black" points="509.5,-435 354,-435 354,-392.5 509.5,-392.5 509.5,-435"/>
<text text-anchor="middle" x="431.75" y="-417.7" font-family="Times,serif" font-size="14.00">NUMBER_LITERAL</text>
<text text-anchor="middle" x="431.75" y="-400.45" font-family="Times,serif" font-size="14.00">0</text>
</g>
<!-- node0x561566a96a60&#45;&#45;node0x561566a96760 -->
<g id="edge14" class="edge">
<title>node0x561566a96a60&#45;&#45;node0x561566a96760</title>
<path fill="none" stroke="black" d="M635.14,-470.55C596.73,-460.01 547.58,-446.53 507.21,-435.45"/>
</g>
<!-- node0x561566a96890 -->
<g id="node16" class="node">
<title>node0x561566a96890</title>
<polygon fill="none" stroke="black" points="689.5,-431.75 528,-431.75 528,-395.75 689.5,-395.75 689.5,-431.75"/>
<text text-anchor="middle" x="608.75" y="-409.07" font-family="Times,serif" font-size="14.00">PRINT_STATEMENT</text>
</g>
<!-- node0x561566a96a60&#45;&#45;node0x561566a96890 -->
<g id="edge15" class="edge">
<title>node0x561566a96a60&#45;&#45;node0x561566a96890</title>
<path fill="none" stroke="black" d="M677.42,-470.64C663.18,-459.05 644.51,-443.86 630.24,-432.24"/>
</g>
<!-- node0x561566a969c0 -->
<g id="node19" class="node">
<title>node0x561566a969c0</title>
<polygon fill="none" stroke="black" points="869.5,-431.75 708,-431.75 708,-395.75 869.5,-395.75 869.5,-431.75"/>
<text text-anchor="middle" x="788.75" y="-409.07" font-family="Times,serif" font-size="14.00">PRINT_STATEMENT</text>
</g>
<!-- node0x561566a96a60&#45;&#45;node0x561566a969c0 -->
<g id="edge18" class="edge">
<title>node0x561566a96a60&#45;&#45;node0x561566a969c0</title>
<path fill="none" stroke="black" d="M720.08,-470.64C734.32,-459.05 752.99,-443.86 767.26,-432.24"/>
</g>
<!-- node0x561566a96830 -->
<g id="node17" class="node">
<title>node0x561566a96830</title>
<polygon fill="none" stroke="black" points="622.75,-353.25 568.75,-353.25 568.75,-317.25 622.75,-317.25 622.75,-353.25"/>
<text text-anchor="middle" x="595.75" y="-330.57" font-family="Times,serif" font-size="14.00">LIST</text>
</g>
<!-- node0x561566a96890&#45;&#45;node0x561566a96830 -->
<g id="edge16" class="edge">
<title>node0x561566a96890&#45;&#45;node0x561566a96830</title>
<path fill="none" stroke="black" d="M605.8,-395.39C603.67,-382.87 600.81,-366.04 598.69,-353.54"/>
</g>
<!-- node0x561566a967b0 -->
<g id="node18" class="node">
<title>node0x561566a967b0</title>
<polygon fill="none" stroke="black" points="654.5,-278 511,-278 511,-235.5 654.5,-235.5 654.5,-278"/>
<text text-anchor="middle" x="582.75" y="-260.7" font-family="Times,serif" font-size="14.00">STRING_LITERAL</text>
<text text-anchor="middle" x="582.75" y="-243.45" font-family="Times,serif" font-size="14.00">&quot;Never&quot;</text>
</g>
<!-- node0x561566a96830&#45;&#45;node0x561566a967b0 -->
<g id="edge17" class="edge">
<title>node0x561566a96830&#45;&#45;node0x561566a967b0</title>
<path fill="none" stroke="black" d="M592.8,-316.89C590.85,-305.43 588.29,-290.36 586.24,-278.3"/>
</g>
<!-- node0x561566a96960 -->
<g id="node20" class="node">
<title>node0x561566a96960</title>
<polygon fill="none" stroke="black" points="771.75,-353.25 717.75,-353.25 717.75,-317.25 771.75,-317.25 771.75,-353.25"/>
<text text-anchor="middle" x="744.75" y="-330.57" font-family="Times,serif" font-size="14.00">LIST</text>
</g>
<!-- node0x561566a969c0&#45;&#45;node0x561566a96960 -->
<g id="edge19" class="edge">
<title>node0x561566a969c0&#45;&#45;node0x561566a96960</title>
<path fill="none" stroke="black" d="M778.77,-395.39C771.56,-382.87 761.89,-366.04 754.69,-353.54"/>
</g>
<!-- node0x561566a968e0 -->
<g id="node21" class="node">
<title>node0x561566a968e0</title>
<polygon fill="none" stroke="black" points="816.5,-278 673,-278 673,-235.5 816.5,-235.5 816.5,-278"/>
<text text-anchor="middle" x="744.75" y="-260.7" font-family="Times,serif" font-size="14.00">STRING_LITERAL</text>
<text text-anchor="middle" x="744.75" y="-243.45" font-family="Times,serif" font-size="14.00">&quot;This, however!&quot;</text>
</g>
<!-- node0x561566a96960&#45;&#45;node0x561566a968e0 -->
<g id="edge20" class="edge">
<title>node0x561566a96960&#45;&#45;node0x561566a968e0</title>
<path fill="none" stroke="black" d="M744.75,-316.89C744.75,-305.43 744.75,-290.36 744.75,-278.3"/>
</g>
<!-- node0x561566a96bc0 -->
<g id="node23" class="node">
<title>node0x561566a96bc0</title>
<polygon fill="none" stroke="black" points="1011.62,-435 913.88,-435 913.88,-392.5 1011.62,-392.5 1011.62,-435"/>
<text text-anchor="middle" x="962.75" y="-417.7" font-family="Times,serif" font-size="14.00">OPERATOR</text>
<text text-anchor="middle" x="962.75" y="-400.45" font-family="Times,serif" font-size="14.00">&gt;</text>
</g>
<!-- node0x561566a976d0&#45;&#45;node0x561566a96bc0 -->
<g id="edge22" class="edge">
<title>node0x561566a976d0&#45;&#45;node0x561566a96bc0</title>
<path fill="none" stroke="black" d="M1000.9,-470.64C993.68,-460.06 984.42,-446.49 976.82,-435.37"/>
</g>
<!-- node0x561566a96e90 -->
<g id="node26" class="node">
<title>node0x561566a96e90</title>
<polygon fill="none" stroke="black" points="1097.62,-431.75 1029.88,-431.75 1029.88,-395.75 1097.62,-395.75 1097.62,-431.75"/>
<text text-anchor="middle" x="1063.75" y="-409.07" font-family="Times,serif" font-size="14.00">BLOCK</text>
</g>
<!-- node0x561566a976d0&#45;&#45;node0x561566a96e90 -->
<g id="edge25" class="edge">
<title>node0x561566a976d0&#45;&#45;node0x561566a96e90</title>
<path fill="none" stroke="black" d="M1024.84,-470.64C1032.91,-459.05 1043.48,-443.86 1051.57,-432.24"/>
</g>
<!-- node0x561566a97630 -->
<g id="node33" class="node">
<title>node0x561566a97630</title>
<polygon fill="none" stroke="black" points="1289.75,-431.75 1159.75,-431.75 1159.75,-395.75 1289.75,-395.75 1289.75,-431.75"/>
<text text-anchor="middle" x="1224.75" y="-409.07" font-family="Times,serif" font-size="14.00">IF_STATEMENT</text>
</g>
<!-- node0x561566a976d0&#45;&#45;node0x561566a97630 -->
<g id="edge32" class="edge">
<title>node0x561566a976d0&#45;&#45;node0x561566a97630</title>
<path fill="none" stroke="black" d="M1063.26,-470.55C1096.82,-458.95 1140.71,-443.79 1174.26,-432.2"/>
</g>
<!-- node0x561566a96ab0 -->
<g id="node24" class="node">
<title>node0x561566a96ab0</title>
<polygon fill="none" stroke="black" points="895.38,-356.5 790.12,-356.5 790.12,-314 895.38,-314 895.38,-356.5"/>
<text text-anchor="middle" x="842.75" y="-339.2" font-family="Times,serif" font-size="14.00">IDENTIFIER</text>
<text text-anchor="middle" x="842.75" y="-321.95" font-family="Times,serif" font-size="14.00">a</text>
</g>
<!-- node0x561566a96bc0&#45;&#45;node0x561566a96ab0 -->
<g id="edge23" class="edge">
<title>node0x561566a96bc0&#45;&#45;node0x561566a96ab0</title>
<path fill="none" stroke="black" d="M930.28,-392.05C913.2,-381.16 892.33,-367.86 875.25,-356.97"/>
</g>
<!-- node0x561566a96b20 -->
<g id="node25" class="node">
<title>node0x561566a96b20</title>
<polygon fill="none" stroke="black" points="1018.38,-356.5 913.12,-356.5 913.12,-314 1018.38,-314 1018.38,-356.5"/>
<text text-anchor="middle" x="965.75" y="-339.2" font-family="Times,serif" font-size="14.00">IDENTIFIER</text>
<text text-anchor="middle" x="965.75" y="-321.95" font-family="Times,serif" font-size="14.00">b</text>
</g>
<!-- node0x561566a96bc0&#45;&#45;node0x561566a96b20 -->
<g id="edge24" class="edge">
<title>node0x561566a96bc0&#45;&#45;node0x561566a96b20</title>
<path fill="none" stroke="black" d="M963.55,-392.25C963.98,-381.27 964.51,-367.79 964.94,-356.81"/>
</g>
<!-- node0x561566a96e30 -->
<g id="node27" class="node">
<title>node0x561566a96e30</title>
<polygon fill="none" stroke="black" points="1090.75,-353.25 1036.75,-353.25 1036.75,-317.25 1090.75,-317.25 1090.75,-353.25"/>
<text text-anchor="middle" x="1063.75" y="-330.57" font-family="Times,serif" font-size="14.00">LIST</text>
</g>
<!-- node0x561566a96e90&#45;&#45;node0x561566a96e30 -->
<g id="edge26" class="edge">
<title>node0x561566a96e90&#45;&#45;node0x561566a96e30</title>
<path fill="none" stroke="black" d="M1063.75,-395.39C1063.75,-382.87 1063.75,-366.04 1063.75,-353.54"/>
</g>
<!-- node0x561566a96dd0 -->
<g id="node28" class="node">
<title>node0x561566a96dd0</title>
<polygon fill="none" stroke="black" points="996.5,-274.75 835,-274.75 835,-238.75 996.5,-238.75 996.5,-274.75"/>
<text text-anchor="middle" x="915.75" y="-252.07" font-family="Times,serif" font-size="14.00">PRINT_STATEMENT</text>
</g>
<!-- node0x561566a96e30&#45;&#45;node0x561566a96dd0 -->
<g id="edge27" class="edge">
<title>node0x561566a96e30&#45;&#45;node0x561566a96dd0</title>
<path fill="none" stroke="black" d="M1036.31,-318.64C1033.43,-317.05 1030.54,-315.48 1027.75,-314 1002.49,-300.56 973.63,-286.09 951.53,-275.19"/>
</g>
<!-- node0x561566a96c90 -->
<g id="node29" class="node">
<title>node0x561566a96c90</title>
<polygon fill="none" stroke="black" points="942.75,-196.25 888.75,-196.25 888.75,-160.25 942.75,-160.25 942.75,-196.25"/>
<text text-anchor="middle" x="915.75" y="-173.57" font-family="Times,serif" font-size="14.00">LIST</text>
</g>
<!-- node0x561566a96dd0&#45;&#45;node0x561566a96c90 -->
<g id="edge28" class="edge">
<title>node0x561566a96dd0&#45;&#45;node0x561566a96c90</title>
<path fill="none" stroke="black" d="M915.75,-238.39C915.75,-225.87 915.75,-209.04 915.75,-196.54"/>
</g>
<!-- node0x561566a96c10 -->
<g id="node30" class="node">
<title>node0x561566a96c10</title>
<polygon fill="none" stroke="black" points="826.38,-121 721.12,-121 721.12,-78.5 826.38,-78.5 826.38,-121"/>
<text text-anchor="middle" x="773.75" y="-103.7" font-family="Times,serif" font-size="14.00">IDENTIFIER</text>
<text text-anchor="middle" x="773.75" y="-86.45" font-family="Times,serif" font-size="14.00">a</text>
</g>
<!-- node0x561566a96c90&#45;&#45;node0x561566a96c10 -->
<g id="edge29" class="edge">
<title>node0x561566a96c90&#45;&#45;node0x561566a96c10</title>
<path fill="none" stroke="black" d="M888.37,-162.5C866.69,-150.82 836.15,-134.37 812.05,-121.38"/>
</g>
<!-- node0x561566a96ce0 -->
<g id="node31" class="node">
<title>node0x561566a96ce0</title>
<polygon fill="none" stroke="black" points="987.5,-121 844,-121 844,-78.5 987.5,-78.5 987.5,-121"/>
<text text-anchor="middle" x="915.75" y="-103.7" font-family="Times,serif" font-size="14.00">STRING_LITERAL</text>
<text text-anchor="middle" x="915.75" y="-86.45" font-family="Times,serif" font-size="14.00">&quot;&gt;&quot;</text>
</g>
<!-- node0x561566a96c90&#45;&#45;node0x561566a96ce0 -->
<g id="edge30" class="edge">
<title>node0x561566a96c90&#45;&#45;node0x561566a96ce0</title>
<path fill="none" stroke="black" d="M915.75,-159.89C915.75,-148.43 915.75,-133.36 915.75,-121.3"/>
</g>
<!-- node0x561566a96d50 -->
<g id="node32" class="node">
<title>node0x561566a96d50</title>
<polygon fill="none" stroke="black" points="1110.38,-121 1005.12,-121 1005.12,-78.5 1110.38,-78.5 1110.38,-121"/>
<text text-anchor="middle" x="1057.75" y="-103.7" font-family="Times,serif" font-size="14.00">IDENTIFIER</text>
<text text-anchor="middle" x="1057.75" y="-86.45" font-family="Times,serif" font-size="14.00">b</text>
</g>
<!-- node0x561566a96c90&#45;&#45;node0x561566a96d50 -->
<g id="edge31" class="edge">
<title>node0x561566a96c90&#45;&#45;node0x561566a96d50</title>
<path fill="none" stroke="black" d="M943.13,-162.5C964.81,-150.82 995.35,-134.37 1019.45,-121.38"/>
</g>
<!-- node0x561566a96ff0 -->
<g id="node34" class="node">
<title>node0x561566a96ff0</title>
<polygon fill="none" stroke="black" points="1217.62,-356.5 1119.88,-356.5 1119.88,-314 1217.62,-314 1217.62,-356.5"/>
<text text-anchor="middle" x="1168.75" y="-339.2" font-family="Times,serif" font-size="14.00">OPERATOR</text>
<text text-anchor="middle" x="1168.75" y="-321.95" font-family="Times,serif" font-size="14.00">&lt;</text>
</g>
<!-- node0x561566a97630&#45;&#45;node0x561566a96ff0 -->
<g id="edge33" class="edge">
<title>node0x561566a97630&#45;&#45;node0x561566a96ff0</title>
<path fill="none" stroke="black" d="M1212.04,-395.39C1203.65,-383.93 1192.62,-368.86 1183.79,-356.8"/>
</g>
<!-- node0x561566a972c0 -->
<g id="node37" class="node">
<title>node0x561566a972c0</title>
<polygon fill="none" stroke="black" points="1303.62,-353.25 1235.88,-353.25 1235.88,-317.25 1303.62,-317.25 1303.62,-353.25"/>
<text text-anchor="middle" x="1269.75" y="-330.57" font-family="Times,serif" font-size="14.00">BLOCK</text>
</g>
<!-- node0x561566a97630&#45;&#45;node0x561566a972c0 -->
<g id="edge36" class="edge">
<title>node0x561566a97630&#45;&#45;node0x561566a972c0</title>
<path fill="none" stroke="black" d="M1234.96,-395.39C1242.33,-382.87 1252.22,-366.04 1259.58,-353.54"/>
</g>
<!-- node0x561566a97590 -->
<g id="node44" class="node">
<title>node0x561566a97590</title>
<polygon fill="none" stroke="black" points="1389.62,-353.25 1321.88,-353.25 1321.88,-317.25 1389.62,-317.25 1389.62,-353.25"/>
<text text-anchor="middle" x="1355.75" y="-330.57" font-family="Times,serif" font-size="14.00">BLOCK</text>
</g>
<!-- node0x561566a97630&#45;&#45;node0x561566a97590 -->
<g id="edge43" class="edge">
<title>node0x561566a97630&#45;&#45;node0x561566a97590</title>
<path fill="none" stroke="black" d="M1254.48,-395.39C1275.91,-382.87 1304.73,-366.04 1326.14,-353.54"/>
</g>
<!-- node0x561566a96ee0 -->
<g id="node35" class="node">
<title>node0x561566a96ee0</title>
<polygon fill="none" stroke="black" points="1119.38,-278 1014.12,-278 1014.12,-235.5 1119.38,-235.5 1119.38,-278"/>
<text text-anchor="middle" x="1066.75" y="-260.7" font-family="Times,serif" font-size="14.00">IDENTIFIER</text>
<text text-anchor="middle" x="1066.75" y="-243.45" font-family="Times,serif" font-size="14.00">a</text>
</g>
<!-- node0x561566a96ff0&#45;&#45;node0x561566a96ee0 -->
<g id="edge34" class="edge">
<title>node0x561566a96ff0&#45;&#45;node0x561566a96ee0</title>
<path fill="none" stroke="black" d="M1141.15,-313.55C1126.63,-302.66 1108.89,-289.36 1094.37,-278.47"/>
</g>
<!-- node0x561566a96f50 -->
<g id="node36" class="node">
<title>node0x561566a96f50</title>
<polygon fill="none" stroke="black" points="1242.38,-278 1137.12,-278 1137.12,-235.5 1242.38,-235.5 1242.38,-278"/>
<text text-anchor="middle" x="1189.75" y="-260.7" font-family="Times,serif" font-size="14.00">IDENTIFIER</text>
<text text-anchor="middle" x="1189.75" y="-243.45" font-family="Times,serif" font-size="14.00">b</text>
</g>
<!-- node0x561566a96ff0&#45;&#45;node0x561566a96f50 -->
<g id="edge35" class="edge">
<title>node0x561566a96ff0&#45;&#45;node0x561566a96f50</title>
<path fill="none" stroke="black" d="M1174.38,-313.75C1177.39,-302.77 1181.09,-289.29 1184.11,-278.31"/>
</g>
<!-- node0x561566a97260 -->
<g id="node38" class="node">
<title>node0x561566a97260</title>
<polygon fill="none" stroke="black" points="1314.75,-274.75 1260.75,-274.75 1260.75,-238.75 1314.75,-238.75 1314.75,-274.75"/>
<text text-anchor="middle" x="1287.75" y="-252.07" font-family="Times,serif" font-size="14.00">LIST</text>
</g>
<!-- node0x561566a972c0&#45;&#45;node0x561566a97260 -->
<g id="edge37" class="edge">
<title>node0x561566a972c0&#45;&#45;node0x561566a97260</title>
<path fill="none" stroke="black" d="M1273.83,-316.89C1276.78,-304.37 1280.74,-287.54 1283.68,-275.04"/>
</g>
<!-- node0x561566a97200 -->
<g id="node39" class="node">
<title>node0x561566a97200</title>
<polygon fill="none" stroke="black" points="1273.5,-196.25 1112,-196.25 1112,-160.25 1273.5,-160.25 1273.5,-196.25"/>
<text text-anchor="middle" x="1192.75" y="-173.57" font-family="Times,serif" font-size="14.00">PRINT_STATEMENT</text>
</g>
<!-- node0x561566a97260&#45;&#45;node0x561566a97200 -->
<g id="edge38" class="edge">
<title>node0x561566a97260&#45;&#45;node0x561566a97200</title>
<path fill="none" stroke="black" d="M1266.19,-238.39C1250.65,-225.87 1229.75,-209.04 1214.22,-196.54"/>
</g>
<!-- node0x561566a970c0 -->
<g id="node40" class="node">
<title>node0x561566a970c0</title>
<polygon fill="none" stroke="black" points="1208.75,-117.75 1154.75,-117.75 1154.75,-81.75 1208.75,-81.75 1208.75,-117.75"/>
<text text-anchor="middle" x="1181.75" y="-95.08" font-family="Times,serif" font-size="14.00">LIST</text>
</g>
<!-- node0x561566a97200&#45;&#45;node0x561566a970c0 -->
<g id="edge39" class="edge">
<title>node0x561566a97200&#45;&#45;node0x561566a970c0</title>
<path fill="none" stroke="black" d="M1190.25,-159.89C1188.45,-147.37 1186.03,-130.54 1184.24,-118.04"/>
</g>
<!-- node0x561566a97040 -->
<g id="node41" class="node">
<title>node0x561566a97040</title>
<polygon fill="none" stroke="black" points="1016.38,-42.5 911.12,-42.5 911.12,0 1016.38,0 1016.38,-42.5"/>
<text text-anchor="middle" x="963.75" y="-25.2" font-family="Times,serif" font-size="14.00">IDENTIFIER</text>
<text text-anchor="middle" x="963.75" y="-7.95" font-family="Times,serif" font-size="14.00">a</text>
</g>
<!-- node0x561566a970c0&#45;&#45;node0x561566a97040 -->
<g id="edge40" class="edge">
<title>node0x561566a970c0&#45;&#45;node0x561566a97040</title>
<path fill="none" stroke="black" d="M1154.58,-89.22C1120.23,-77.16 1060.31,-56.13 1016.76,-40.85"/>
</g>
<!-- node0x561566a97110 -->
<g id="node42" class="node">
<title>node0x561566a97110</title>
<polygon fill="none" stroke="black" points="1177.5,-42.5 1034,-42.5 1034,0 1177.5,0 1177.5,-42.5"/>
<text text-anchor="middle" x="1105.75" y="-25.2" font-family="Times,serif" font-size="14.00">STRING_LITERAL</text>
<text text-anchor="middle" x="1105.75" y="-7.95" font-family="Times,serif" font-size="14.00">&quot;&lt;&quot;</text>
</g>
<!-- node0x561566a970c0&#45;&#45;node0x561566a97110 -->
<g id="edge41" class="edge">
<title>node0x561566a970c0&#45;&#45;node0x561566a97110</title>
<path fill="none" stroke="black" d="M1164.5,-81.39C1153.12,-69.93 1138.14,-54.86 1126.16,-42.8"/>
</g>
<!-- node0x561566a97180 -->
<g id="node43" class="node">
<title>node0x561566a97180</title>
<polygon fill="none" stroke="black" points="1300.38,-42.5 1195.12,-42.5 1195.12,0 1300.38,0 1300.38,-42.5"/>
<text text-anchor="middle" x="1247.75" y="-25.2" font-family="Times,serif" font-size="14.00">IDENTIFIER</text>
<text text-anchor="middle" x="1247.75" y="-7.95" font-family="Times,serif" font-size="14.00">b</text>
</g>
<!-- node0x561566a970c0&#45;&#45;node0x561566a97180 -->
<g id="edge42" class="edge">
<title>node0x561566a970c0&#45;&#45;node0x561566a97180</title>
<path fill="none" stroke="black" d="M1196.73,-81.39C1206.61,-69.93 1219.62,-54.86 1230.02,-42.8"/>
</g>
<!-- node0x561566a97530 -->
<g id="node45" class="node">
<title>node0x561566a97530</title>
<polygon fill="none" stroke="black" points="1414.75,-274.75 1360.75,-274.75 1360.75,-238.75 1414.75,-238.75 1414.75,-274.75"/>
<text text-anchor="middle" x="1387.75" y="-252.07" font-family="Times,serif" font-size="14.00">LIST</text>
</g>
<!-- node0x561566a97590&#45;&#45;node0x561566a97530 -->
<g id="edge44" class="edge">
<title>node0x561566a97590&#45;&#45;node0x561566a97530</title>
<path fill="none" stroke="black" d="M1363.01,-316.89C1368.25,-304.37 1375.29,-287.54 1380.52,-275.04"/>
</g>
<!-- node0x561566a974d0 -->
<g id="node46" class="node">
<title>node0x561566a974d0</title>
<polygon fill="none" stroke="black" points="1495.5,-196.25 1334,-196.25 1334,-160.25 1495.5,-160.25 1495.5,-196.25"/>
<text text-anchor="middle" x="1414.75" y="-173.57" font-family="Times,serif" font-size="14.00">PRINT_STATEMENT</text>
</g>
<!-- node0x561566a97530&#45;&#45;node0x561566a974d0 -->
<g id="edge45" class="edge">
<title>node0x561566a97530&#45;&#45;node0x561566a974d0</title>
<path fill="none" stroke="black" d="M1393.88,-238.39C1398.3,-225.87 1404.23,-209.04 1408.65,-196.54"/>
</g>
<!-- node0x561566a97390 -->
<g id="node47" class="node">
<title>node0x561566a97390</title>
<polygon fill="none" stroke="black" points="1462.75,-117.75 1408.75,-117.75 1408.75,-81.75 1462.75,-81.75 1462.75,-117.75"/>
<text text-anchor="middle" x="1435.75" y="-95.08" font-family="Times,serif" font-size="14.00">LIST</text>
</g>
<!-- node0x561566a974d0&#45;&#45;node0x561566a97390 -->
<g id="edge46" class="edge">
<title>node0x561566a974d0&#45;&#45;node0x561566a97390</title>
<path fill="none" stroke="black" d="M1419.52,-159.89C1422.95,-147.37 1427.57,-130.54 1431,-118.04"/>
</g>
<!-- node0x561566a97310 -->
<g id="node48" class="node">
<title>node0x561566a97310</title>
<polygon fill="none" stroke="black" points="1423.38,-42.5 1318.12,-42.5 1318.12,0 1423.38,0 1423.38,-42.5"/>
<text text-anchor="middle" x="1370.75" y="-25.2" font-family="Times,serif" font-size="14.00">IDENTIFIER</text>
<text text-anchor="middle" x="1370.75" y="-7.95" font-family="Times,serif" font-size="14.00">a</text>
</g>
<!-- node0x561566a97390&#45;&#45;node0x561566a97310 -->
<g id="edge47" class="edge">
<title>node0x561566a97390&#45;&#45;node0x561566a97310</title>
<path fill="none" stroke="black" d="M1421,-81.39C1411.26,-69.93 1398.46,-54.86 1388.21,-42.8"/>
</g>
<!-- node0x561566a973e0 -->
<g id="node49" class="node">
<title>node0x561566a973e0</title>
<polygon fill="none" stroke="black" points="1584.5,-42.5 1441,-42.5 1441,0 1584.5,0 1584.5,-42.5"/>
<text text-anchor="middle" x="1512.75" y="-25.2" font-family="Times,serif" font-size="14.00">STRING_LITERAL</text>
<text text-anchor="middle" x="1512.75" y="-7.95" font-family="Times,serif" font-size="14.00">&quot;=&quot;</text>
</g>
<!-- node0x561566a97390&#45;&#45;node0x561566a973e0 -->
<g id="edge48" class="edge">
<title>node0x561566a97390&#45;&#45;node0x561566a973e0</title>
<path fill="none" stroke="black" d="M1453.22,-81.39C1464.76,-69.93 1479.93,-54.86 1492.07,-42.8"/>
</g>
<!-- node0x561566a97450 -->
<g id="node50" class="node">
<title>node0x561566a97450</title>
<polygon fill="none" stroke="black" points="1707.38,-42.5 1602.12,-42.5 1602.12,0 1707.38,0 1707.38,-42.5"/>
<text text-anchor="middle" x="1654.75" y="-25.2" font-family="Times,serif" font-size="14.00">IDENTIFIER</text>
<text text-anchor="middle" x="1654.75" y="-7.95" font-family="Times,serif" font-size="14.00">b</text>
</g>
<!-- node0x561566a97390&#45;&#45;node0x561566a97450 -->
<g id="edge49" class="edge">
<title>node0x561566a97390&#45;&#45;node0x561566a97450</title>
<path fill="none" stroke="black" d="M1463.04,-89.22C1497.67,-77.12 1558.15,-55.99 1601.93,-40.7"/>
</g>
<!-- node0x561566a97720 -->
<g id="node52" class="node">
<title>node0x561566a97720</title>
<polygon fill="none" stroke="black" points="1470.38,-435 1365.12,-435 1365.12,-392.5 1470.38,-392.5 1470.38,-435"/>
<text text-anchor="middle" x="1417.75" y="-417.7" font-family="Times,serif" font-size="14.00">IDENTIFIER</text>
<text text-anchor="middle" x="1417.75" y="-400.45" font-family="Times,serif" font-size="14.00">a</text>
</g>
<!-- node0x561566a97b30&#45;&#45;node0x561566a97720 -->
<g id="edge51" class="edge">
<title>node0x561566a97b30&#45;&#45;node0x561566a97720</title>
<path fill="none" stroke="black" d="M1417.75,-470.64C1417.75,-460.06 1417.75,-446.49 1417.75,-435.37"/>
</g>
<!-- node0x561566a97ab0 -->
<g id="node53" class="node">
<title>node0x561566a97ab0</title>
<polygon fill="none" stroke="black" points="1647.75,-431.75 1517.75,-431.75 1517.75,-395.75 1647.75,-395.75 1647.75,-431.75"/>
<text text-anchor="middle" x="1582.75" y="-409.07" font-family="Times,serif" font-size="14.00">IF_STATEMENT</text>
</g>
<!-- node0x561566a97b30&#45;&#45;node0x561566a97ab0 -->
<g id="edge52" class="edge">
<title>node0x561566a97b30&#45;&#45;node0x561566a97ab0</title>
<path fill="none" stroke="black" d="M1456.85,-470.64C1482.96,-459.05 1517.18,-443.86 1543.36,-432.24"/>
</g>
<!-- node0x561566a97790 -->
<g id="node54" class="node">
<title>node0x561566a97790</title>
<polygon fill="none" stroke="black" points="1513.38,-356.5 1408.12,-356.5 1408.12,-314 1513.38,-314 1513.38,-356.5"/>
<text text-anchor="middle" x="1460.75" y="-339.2" font-family="Times,serif" font-size="14.00">IDENTIFIER</text>
<text text-anchor="middle" x="1460.75" y="-321.95" font-family="Times,serif" font-size="14.00">b</text>
</g>
<!-- node0x561566a97ab0&#45;&#45;node0x561566a97790 -->
<g id="edge53" class="edge">
<title>node0x561566a97ab0&#45;&#45;node0x561566a97790</title>
<path fill="none" stroke="black" d="M1555.07,-395.39C1536.79,-383.93 1512.75,-368.86 1493.52,-356.8"/>
</g>
<!-- node0x561566a978e0 -->
<g id="node55" class="node">
<title>node0x561566a978e0</title>
<polygon fill="none" stroke="black" points="1692.5,-353.25 1531,-353.25 1531,-317.25 1692.5,-317.25 1692.5,-353.25"/>
<text text-anchor="middle" x="1611.75" y="-330.57" font-family="Times,serif" font-size="14.00">PRINT_STATEMENT</text>
</g>
<!-- node0x561566a97ab0&#45;&#45;node0x561566a978e0 -->
<g id="edge54" class="edge">
<title>node0x561566a97ab0&#45;&#45;node0x561566a978e0</title>
<path fill="none" stroke="black" d="M1589.33,-395.39C1594.08,-382.87 1600.46,-366.04 1605.2,-353.54"/>
</g>
<!-- node0x561566a97a10 -->
<g id="node58" class="node">
<title>node0x561566a97a10</title>
<polygon fill="none" stroke="black" points="1872.5,-353.25 1711,-353.25 1711,-317.25 1872.5,-317.25 1872.5,-353.25"/>
<text text-anchor="middle" x="1791.75" y="-330.57" font-family="Times,serif" font-size="14.00">PRINT_STATEMENT</text>
</g>
<!-- node0x561566a97ab0&#45;&#45;node0x561566a97a10 -->
<g id="edge57" class="edge">
<title>node0x561566a97ab0&#45;&#45;node0x561566a97a10</title>
<path fill="none" stroke="black" d="M1630.44,-395.3C1664.53,-382.82 1710.22,-366.09 1744.27,-353.63"/>
</g>
<!-- node0x561566a97880 -->
<g id="node56" class="node">
<title>node0x561566a97880</title>
<polygon fill="none" stroke="black" points="1638.75,-274.75 1584.75,-274.75 1584.75,-238.75 1638.75,-238.75 1638.75,-274.75"/>
<text text-anchor="middle" x="1611.75" y="-252.07" font-family="Times,serif" font-size="14.00">LIST</text>
</g>
<!-- node0x561566a978e0&#45;&#45;node0x561566a97880 -->
<g id="edge55" class="edge">
<title>node0x561566a978e0&#45;&#45;node0x561566a97880</title>
<path fill="none" stroke="black" d="M1611.75,-316.89C1611.75,-304.37 1611.75,-287.54 1611.75,-275.04"/>
</g>
<!-- node0x561566a97800 -->
<g id="node57" class="node">
<title>node0x561566a97800</title>
<polygon fill="none" stroke="black" points="1683.5,-199.5 1540,-199.5 1540,-157 1683.5,-157 1683.5,-199.5"/>
<text text-anchor="middle" x="1611.75" y="-182.2" font-family="Times,serif" font-size="14.00">STRING_LITERAL</text>
<text text-anchor="middle" x="1611.75" y="-164.95" font-family="Times,serif" font-size="14.00">&quot;a &amp; b&quot;</text>
</g>
<!-- node0x561566a97880&#45;&#45;node0x561566a97800 -->
<g id="edge56" class="edge">
<title>node0x561566a97880&#45;&#45;node0x561566a97800</title>
<path fill="none" stroke="black" d="M1611.75,-238.39C1611.75,-226.93 1611.75,-211.86 1611.75,-199.8"/>
</g>
<!-- node0x561566a979b0 -->
<g id="node59" class="node">
<title>node0x561566a979b0</title>
<polygon fill="none" stroke="black" points="1818.75,-274.75 1764.75,-274.75 1764.75,-238.75 1818.75,-238.75 1818.75,-274.75"/>
<text text-anchor="middle" x="1791.75" y="-252.07" font-family="Times,serif" font-size="14.00">LIST</text>
</g>
<!-- node0x561566a97a10&#45;&#45;node0x561566a979b0 -->
<g id="edge58" class="edge">
<title>node0x561566a97a10&#45;&#45;node0x561566a979b0</title>
<path fill="none" stroke="black" d="M1791.75,-316.89C1791.75,-304.37 1791.75,-287.54 1791.75,-275.04"/>
</g>
<!-- node0x561566a97930 -->
<g id="node60" class="node">
<title>node0x561566a97930</title>
<polygon fill="none" stroke="black" points="1863.5,-199.5 1720,-199.5 1720,-157 1863.5,-157 1863.5,-199.5"/>
<text text-anchor="middle" x="1791.75" y="-182.2" font-family="Times,serif" font-size="14.00">STRING_LITERAL</text>
<text text-anchor="middle" x="1791.75" y="-164.95" font-family="Times,serif" font-size="14.00">&quot;a, but not b&quot;</text>
</g>
<!-- node0x561566a979b0&#45;&#45;node0x561566a97930 -->
<g id="edge59" class="edge">
<title>node0x561566a979b0&#45;&#45;node0x561566a97930</title>
<path fill="none" stroke="black" d="M1791.75,-238.39C1791.75,-226.93 1791.75,-211.86 1791.75,-199.8"/>
</g>
</g>
</svg>
