<?xml version="1.0" encoding="UTF-8" standalone="no"?>
<!DOCTYPE svg PUBLIC "-//W3C//DTD SVG 1.1//EN"
 "http://www.w3.org/Graphics/SVG/1.1/DTD/svg11.dtd">
<!-- Generated by graphviz version 12.2.1 (0)
 -->
<!-- Pages: 1 -->
<svg width="318pt" height="489pt"
 viewBox="0.00 0.00 318.38 489.00" xmlns="http://www.w3.org/2000/svg" xmlns:xlink="http://www.w3.org/1999/xlink">
<g id="graph0" class="graph" transform="scale(1 1) rotate(0) translate(4 485)">
<polygon fill="white" stroke="none" points="-4,4 -4,-485 314.38,-485 314.38,4 -4,4"/>
<!-- node0x55a59863a6b0 -->
<g id="node1" class="node">
<title>node0x55a59863a6b0</title>
<polygon fill="none" stroke="black" points="177.62,-481 123.62,-481 123.62,-445 177.62,-445 177.62,-481"/>
<text text-anchor="middle" x="150.62" y="-458.32" font-family="Times,serif" font-size="14.00">LIST</text>
</g>
<!-- node0x55a59863a650 -->
<g id="node2" class="node">
<title>node0x55a59863a650</title>
<polygon fill="none" stroke="black" points="199.5,-409 101.75,-409 101.75,-373 199.5,-373 199.5,-409"/>
<text text-anchor="middle" x="150.62" y="-386.32" font-family="Times,serif" font-size="14.00">FUNCTION</text>
</g>
<!-- node0x55a59863a6b0&#45;&#45;node0x55a59863a650 -->
<g id="edge1" class="edge">
<title>node0x55a59863a6b0&#45;&#45;node0x55a59863a650</title>
<path fill="none" stroke="black" d="M150.62,-444.7C150.62,-433.85 150.62,-419.92 150.62,-409.1"/>
</g>
<!-- node0x55a59863a350 -->
<g id="node3" class="node">
<title>node0x55a59863a350</title>
<polygon fill="none" stroke="black" points="105.25,-337 0,-337 0,-294.5 105.25,-294.5 105.25,-337"/>
<text text-anchor="middle" x="52.62" y="-319.7" font-family="Times,serif" font-size="14.00">IDENTIFIER</text>
<text text-anchor="middle" x="52.62" y="-302.45" font-family="Times,serif" font-size="14.00">main</text>
</g>
<!-- node0x55a59863a650&#45;&#45;node0x55a59863a350 -->
<g id="edge2" class="edge">
<title>node0x55a59863a650&#45;&#45;node0x55a59863a350</title>
<path fill="none" stroke="black" d="M127.4,-372.64C113.25,-362.06 95.09,-348.49 80.21,-337.37"/>
</g>
<!-- node0x55a59863a3c0 -->
<g id="node4" class="node">
<title>node0x55a59863a3c0</title>
<polygon fill="none" stroke="black" points="177.62,-333.75 123.62,-333.75 123.62,-297.75 177.62,-297.75 177.62,-333.75"/>
<text text-anchor="middle" x="150.62" y="-311.07" font-family="Times,serif" font-size="14.00">LIST</text>
</g>
<!-- node0x55a59863a650&#45;&#45;node0x55a59863a3c0 -->
<g id="edge3" class="edge">
<title>node0x55a59863a650&#45;&#45;node0x55a59863a3c0</title>
<path fill="none" stroke="black" d="M150.62,-372.64C150.62,-361.05 150.62,-345.86 150.62,-334.24"/>
</g>
<!-- node0x55a59863a5b0 -->
<g id="node5" class="node">
<title>node0x55a59863a5b0</title>
<polygon fill="none" stroke="black" points="263.5,-333.75 195.75,-333.75 195.75,-297.75 263.5,-297.75 263.5,-333.75"/>
<text text-anchor="middle" x="229.62" y="-311.07" font-family="Times,serif" font-size="14.00">BLOCK</text>
</g>
<!-- node0x55a59863a650&#45;&#45;node0x55a59863a5b0 -->
<g id="edge4" class="edge">
<title>node0x55a59863a650&#45;&#45;node0x55a59863a5b0</title>
<path fill="none" stroke="black" d="M169.35,-372.64C181.85,-361.05 198.23,-345.86 210.76,-334.24"/>
</g>
<!-- node0x55a59863a550 -->
<g id="node6" class="node">
<title>node0x55a59863a550</title>
<polygon fill="none" stroke="black" points="256.62,-258.5 202.62,-258.5 202.62,-222.5 256.62,-222.5 256.62,-258.5"/>
<text text-anchor="middle" x="229.62" y="-235.82" font-family="Times,serif" font-size="14.00">LIST</text>
</g>
<!-- node0x55a59863a5b0&#45;&#45;node0x55a59863a550 -->
<g id="edge5" class="edge">
<title>node0x55a59863a5b0&#45;&#45;node0x55a59863a550</title>
<path fill="none" stroke="black" d="M229.62,-297.39C229.62,-285.8 229.62,-270.61 229.62,-258.99"/>
</g>
<!-- node0x55a59863a4f0 -->
<g id="node7" class="node">
<title>node0x55a59863a4f0</title>
<polygon fill="none" stroke="black" points="310.38,-186.5 148.88,-186.5 148.88,-150.5 310.38,-150.5 310.38,-186.5"/>
<text text-anchor="middle" x="229.62" y="-163.82" font-family="Times,serif" font-size="14.00">PRINT_STATEMENT</text>
</g>
<!-- node0x55a59863a550&#45;&#45;node0x55a59863a4f0 -->
<g id="edge6" class="edge">
<title>node0x55a59863a550&#45;&#45;node0x55a59863a4f0</title>
<path fill="none" stroke="black" d="M229.62,-222.2C229.62,-211.35 229.62,-197.42 229.62,-186.6"/>
</g>
<!-- node0x55a59863a490 -->
<g id="node8" class="node">
<title>node0x55a59863a490</title>
<polygon fill="none" stroke="black" points="256.62,-114.5 202.62,-114.5 202.62,-78.5 256.62,-78.5 256.62,-114.5"/>
<text text-anchor="middle" x="229.62" y="-91.83" font-family="Times,serif" font-size="14.00">LIST</text>
</g>
<!-- node0x55a59863a4f0&#45;&#45;node0x55a59863a490 -->
<g id="edge7" class="edge">
<title>node0x55a59863a4f0&#45;&#45;node0x55a59863a490</title>
<path fill="none" stroke="black" d="M229.62,-150.2C229.62,-139.35 229.62,-125.42 229.62,-114.6"/>
</g>
<!-- node0x55a59863a410 -->
<g id="node9" class="node">
<title>node0x55a59863a410</title>
<polygon fill="none" stroke="black" points="301.38,-42.5 157.88,-42.5 157.88,0 301.38,0 301.38,-42.5"/>
<text text-anchor="middle" x="229.62" y="-25.2" font-family="Times,serif" font-size="14.00">STRING_LITERAL</text>
<text text-anchor="middle" x="229.62" y="-7.95" font-family="Times,serif" font-size="14.00">&quot;Hello World!&quot;</text>
</g>
<!-- node0x55a59863a490&#45;&#45;node0x55a59863a410 -->
<g id="edge8" class="edge">
<title>node0x55a59863a490&#45;&#45;node0x55a59863a410</title>
<path fill="none" stroke="black" d="M229.62,-78.14C229.62,-67.56 229.62,-53.99 229.62,-42.87"/>
</g>
</g>
</svg>
