<?xml version="1.0" encoding="UTF-8" standalone="no"?>
<!DOCTYPE svg PUBLIC "-//W3C//DTD SVG 1.1//EN"
 "http://www.w3.org/Graphics/SVG/1.1/DTD/svg11.dtd">
<!-- Generated by graphviz version 12.2.1 (0)
 -->
<!-- Pages: 1 -->
<svg width="1242pt" height="960pt"
 viewBox="0.00 0.00 1242.38 960.00" xmlns="http://www.w3.org/2000/svg" xmlns:xlink="http://www.w3.org/1999/xlink">
<g id="graph0" class="graph" transform="scale(1 1) rotate(0) translate(4 956)">
<polygon fill="white" stroke="none" points="-4,4 -4,-956 1238.38,-956 1238.38,4 -4,4"/>
<!-- node0x556692e77d30 -->
<g id="node1" class="node">
<title>node0x556692e77d30</title>
<polygon fill="none" stroke="black" points="590.62,-952 536.62,-952 536.62,-916 590.62,-916 590.62,-952"/>
<text text-anchor="middle" x="563.62" y="-929.33" font-family="Times,serif" font-size="14.00">LIST</text>
</g>
<!-- node0x556692e77cd0 -->
<g id="node2" class="node">
<title>node0x556692e77cd0</title>
<polygon fill="none" stroke="black" points="239.5,-880 141.75,-880 141.75,-844 239.5,-844 239.5,-880"/>
<text text-anchor="middle" x="190.62" y="-857.33" font-family="Times,serif" font-size="14.00">FUNCTION</text>
</g>
<!-- node0x556692e77d30&#45;&#45;node0x556692e77cd0 -->
<g id="edge1" class="edge">
<title>node0x556692e77d30&#45;&#45;node0x556692e77cd0</title>
<path fill="none" stroke="black" d="M536.2,-927.85C473.61,-916.11 319.55,-887.19 239.97,-872.26"/>
</g>
<!-- node0x556692e780a0 -->
<g id="node26" class="node">
<title>node0x556692e780a0</title>
<polygon fill="none" stroke="black" points="520.5,-880 422.75,-880 422.75,-844 520.5,-844 520.5,-880"/>
<text text-anchor="middle" x="471.62" y="-857.33" font-family="Times,serif" font-size="14.00">FUNCTION</text>
</g>
<!-- node0x556692e77d30&#45;&#45;node0x556692e780a0 -->
<g id="edge25" class="edge">
<title>node0x556692e77d30&#45;&#45;node0x556692e780a0</title>
<path fill="none" stroke="black" d="M540.88,-915.7C526.73,-904.93 508.59,-891.12 494.42,-880.35"/>
</g>
<!-- node0x556692e78480 -->
<g id="node34" class="node">
<title>node0x556692e78480</title>
<polygon fill="none" stroke="black" points="723.5,-880 625.75,-880 625.75,-844 723.5,-844 723.5,-880"/>
<text text-anchor="middle" x="674.62" y="-857.33" font-family="Times,serif" font-size="14.00">FUNCTION</text>
</g>
<!-- node0x556692e77d30&#45;&#45;node0x556692e78480 -->
<g id="edge33" class="edge">
<title>node0x556692e77d30&#45;&#45;node0x556692e78480</title>
<path fill="none" stroke="black" d="M591.06,-915.7C608.14,-904.93 630.03,-891.12 647.12,-880.35"/>
</g>
<!-- node0x556692e78860 -->
<g id="node43" class="node">
<title>node0x556692e78860</title>
<polygon fill="none" stroke="black" points="1026.5,-880 928.75,-880 928.75,-844 1026.5,-844 1026.5,-880"/>
<text text-anchor="middle" x="977.62" y="-857.33" font-family="Times,serif" font-size="14.00">FUNCTION</text>
</g>
<!-- node0x556692e77d30&#45;&#45;node0x556692e78860 -->
<g id="edge42" class="edge">
<title>node0x556692e77d30&#45;&#45;node0x556692e78860</title>
<path fill="none" stroke="black" d="M591.11,-928.35C660.01,-916.7 840.82,-886.13 928.52,-871.3"/>
</g>
<!-- node0x556692e77350 -->
<g id="node3" class="node">
<title>node0x556692e77350</title>
<polygon fill="none" stroke="black" points="105.25,-808 0,-808 0,-765.5 105.25,-765.5 105.25,-808"/>
<text text-anchor="middle" x="52.62" y="-790.7" font-family="Times,serif" font-size="14.00">IDENTIFIER</text>
<text text-anchor="middle" x="52.62" y="-773.45" font-family="Times,serif" font-size="14.00">main</text>
</g>
<!-- node0x556692e77cd0&#45;&#45;node0x556692e77350 -->
<g id="edge2" class="edge">
<title>node0x556692e77cd0&#45;&#45;node0x556692e77350</title>
<path fill="none" stroke="black" d="M157.92,-843.64C137.99,-833.06 112.42,-819.49 91.47,-808.37"/>
</g>
<!-- node0x556692e773c0 -->
<g id="node4" class="node">
<title>node0x556692e773c0</title>
<polygon fill="none" stroke="black" points="177.62,-804.75 123.62,-804.75 123.62,-768.75 177.62,-768.75 177.62,-804.75"/>
<text text-anchor="middle" x="150.62" y="-782.08" font-family="Times,serif" font-size="14.00">LIST</text>
</g>
<!-- node0x556692e77cd0&#45;&#45;node0x556692e773c0 -->
<g id="edge3" class="edge">
<title>node0x556692e77cd0&#45;&#45;node0x556692e773c0</title>
<path fill="none" stroke="black" d="M181.15,-843.64C174.82,-832.05 166.52,-816.86 160.18,-805.24"/>
</g>
<!-- node0x556692e77c30 -->
<g id="node5" class="node">
<title>node0x556692e77c30</title>
<polygon fill="none" stroke="black" points="263.5,-804.75 195.75,-804.75 195.75,-768.75 263.5,-768.75 263.5,-804.75"/>
<text text-anchor="middle" x="229.62" y="-782.08" font-family="Times,serif" font-size="14.00">BLOCK</text>
</g>
<!-- node0x556692e77cd0&#45;&#45;node0x556692e77c30 -->
<g id="edge4" class="edge">
<title>node0x556692e77cd0&#45;&#45;node0x556692e77c30</title>
<path fill="none" stroke="black" d="M199.87,-843.64C206.04,-832.05 214.13,-816.86 220.31,-805.24"/>
</g>
<!-- node0x556692e77bd0 -->
<g id="node6" class="node">
<title>node0x556692e77bd0</title>
<polygon fill="none" stroke="black" points="256.62,-726.25 202.62,-726.25 202.62,-690.25 256.62,-690.25 256.62,-726.25"/>
<text text-anchor="middle" x="229.62" y="-703.58" font-family="Times,serif" font-size="14.00">LIST</text>
</g>
<!-- node0x556692e77c30&#45;&#45;node0x556692e77bd0 -->
<g id="edge5" class="edge">
<title>node0x556692e77c30&#45;&#45;node0x556692e77bd0</title>
<path fill="none" stroke="black" d="M229.62,-768.39C229.62,-755.87 229.62,-739.04 229.62,-726.54"/>
</g>
<!-- node0x556692e77b70 -->
<g id="node7" class="node">
<title>node0x556692e77b70</title>
<polygon fill="none" stroke="black" points="310.38,-651 148.88,-651 148.88,-615 310.38,-615 310.38,-651"/>
<text text-anchor="middle" x="229.62" y="-628.33" font-family="Times,serif" font-size="14.00">PRINT_STATEMENT</text>
</g>
<!-- node0x556692e77bd0&#45;&#45;node0x556692e77b70 -->
<g id="edge6" class="edge">
<title>node0x556692e77bd0&#45;&#45;node0x556692e77b70</title>
<path fill="none" stroke="black" d="M229.62,-689.89C229.62,-678.3 229.62,-663.11 229.62,-651.49"/>
</g>
<!-- node0x556692e77490 -->
<g id="node8" class="node">
<title>node0x556692e77490</title>
<polygon fill="none" stroke="black" points="256.62,-575.75 202.62,-575.75 202.62,-539.75 256.62,-539.75 256.62,-575.75"/>
<text text-anchor="middle" x="229.62" y="-553.08" font-family="Times,serif" font-size="14.00">LIST</text>
</g>
<!-- node0x556692e77b70&#45;&#45;node0x556692e77490 -->
<g id="edge7" class="edge">
<title>node0x556692e77b70&#45;&#45;node0x556692e77490</title>
<path fill="none" stroke="black" d="M229.62,-614.64C229.62,-603.05 229.62,-587.86 229.62,-576.24"/>
</g>
<!-- node0x556692e77410 -->
<g id="node9" class="node">
<title>node0x556692e77410</title>
<polygon fill="none" stroke="black" points="221.38,-500.5 77.88,-500.5 77.88,-458 221.38,-458 221.38,-500.5"/>
<text text-anchor="middle" x="149.62" y="-483.2" font-family="Times,serif" font-size="14.00">STRING_LITERAL</text>
<text text-anchor="middle" x="149.62" y="-465.95" font-family="Times,serif" font-size="14.00">&quot;Should be 7:&quot;</text>
</g>
<!-- node0x556692e77490&#45;&#45;node0x556692e77410 -->
<g id="edge8" class="edge">
<title>node0x556692e77490&#45;&#45;node0x556692e77410</title>
<path fill="none" stroke="black" d="M211.47,-539.39C199.49,-527.93 183.72,-512.86 171.11,-500.8"/>
</g>
<!-- node0x556692e77b10 -->
<g id="node10" class="node">
<title>node0x556692e77b10</title>
<polygon fill="none" stroke="black" points="382,-497.25 239.25,-497.25 239.25,-461.25 382,-461.25 382,-497.25"/>
<text text-anchor="middle" x="310.62" y="-474.57" font-family="Times,serif" font-size="14.00">FUNCTION_CALL</text>
</g>
<!-- node0x556692e77490&#45;&#45;node0x556692e77b10 -->
<g id="edge9" class="edge">
<title>node0x556692e77490&#45;&#45;node0x556692e77b10</title>
<path fill="none" stroke="black" d="M248.01,-539.39C261.26,-526.87 279.08,-510.04 292.32,-497.54"/>
</g>
<!-- node0x556692e774e0 -->
<g id="node11" class="node">
<title>node0x556692e774e0</title>
<polygon fill="none" stroke="black" points="314.25,-422 209,-422 209,-379.5 314.25,-379.5 314.25,-422"/>
<text text-anchor="middle" x="261.62" y="-404.7" font-family="Times,serif" font-size="14.00">IDENTIFIER</text>
<text text-anchor="middle" x="261.62" y="-387.45" font-family="Times,serif" font-size="14.00">identity</text>
</g>
<!-- node0x556692e77b10&#45;&#45;node0x556692e774e0 -->
<g id="edge10" class="edge">
<title>node0x556692e77b10&#45;&#45;node0x556692e774e0</title>
<path fill="none" stroke="black" d="M299.51,-460.89C292.16,-449.43 282.51,-434.36 274.79,-422.3"/>
</g>
<!-- node0x556692e77a90 -->
<g id="node12" class="node">
<title>node0x556692e77a90</title>
<polygon fill="none" stroke="black" points="386.62,-418.75 332.62,-418.75 332.62,-382.75 386.62,-382.75 386.62,-418.75"/>
<text text-anchor="middle" x="359.62" y="-396.07" font-family="Times,serif" font-size="14.00">LIST</text>
</g>
<!-- node0x556692e77b10&#45;&#45;node0x556692e77a90 -->
<g id="edge11" class="edge">
<title>node0x556692e77b10&#45;&#45;node0x556692e77a90</title>
<path fill="none" stroke="black" d="M321.74,-460.89C329.76,-448.37 340.54,-431.54 348.55,-419.04"/>
</g>
<!-- node0x556692e77a30 -->
<g id="node13" class="node">
<title>node0x556692e77a30</title>
<polygon fill="none" stroke="black" points="431,-343.5 288.25,-343.5 288.25,-307.5 431,-307.5 431,-343.5"/>
<text text-anchor="middle" x="359.62" y="-320.82" font-family="Times,serif" font-size="14.00">FUNCTION_CALL</text>
</g>
<!-- node0x556692e77a90&#45;&#45;node0x556692e77a30 -->
<g id="edge12" class="edge">
<title>node0x556692e77a90&#45;&#45;node0x556692e77a30</title>
<path fill="none" stroke="black" d="M359.62,-382.39C359.62,-370.8 359.62,-355.61 359.62,-343.99"/>
</g>
<!-- node0x556692e77550 -->
<g id="node14" class="node">
<title>node0x556692e77550</title>
<polygon fill="none" stroke="black" points="363.25,-271.5 258,-271.5 258,-229 363.25,-229 363.25,-271.5"/>
<text text-anchor="middle" x="310.62" y="-254.2" font-family="Times,serif" font-size="14.00">IDENTIFIER</text>
<text text-anchor="middle" x="310.62" y="-236.95" font-family="Times,serif" font-size="14.00">first</text>
</g>
<!-- node0x556692e77a30&#45;&#45;node0x556692e77550 -->
<g id="edge13" class="edge">
<title>node0x556692e77a30&#45;&#45;node0x556692e77550</title>
<path fill="none" stroke="black" d="M348.01,-307.14C340.94,-296.56 331.86,-282.99 324.42,-271.87"/>
</g>
<!-- node0x556692e777c0 -->
<g id="node15" class="node">
<title>node0x556692e777c0</title>
<polygon fill="none" stroke="black" points="435.62,-268.25 381.62,-268.25 381.62,-232.25 435.62,-232.25 435.62,-268.25"/>
<text text-anchor="middle" x="408.62" y="-245.57" font-family="Times,serif" font-size="14.00">LIST</text>
</g>
<!-- node0x556692e77a30&#45;&#45;node0x556692e777c0 -->
<g id="edge14" class="edge">
<title>node0x556692e77a30&#45;&#45;node0x556692e777c0</title>
<path fill="none" stroke="black" d="M371.24,-307.14C378.99,-295.55 389.15,-280.36 396.93,-268.74"/>
</g>
<!-- node0x556692e77760 -->
<g id="node16" class="node">
<title>node0x556692e77760</title>
<polygon fill="none" stroke="black" points="399,-193 256.25,-193 256.25,-157 399,-157 399,-193"/>
<text text-anchor="middle" x="327.62" y="-170.32" font-family="Times,serif" font-size="14.00">FUNCTION_CALL</text>
</g>
<!-- node0x556692e777c0&#45;&#45;node0x556692e77760 -->
<g id="edge15" class="edge">
<title>node0x556692e777c0&#45;&#45;node0x556692e77760</title>
<path fill="none" stroke="black" d="M389.43,-231.89C376.61,-220.3 359.81,-205.11 346.96,-193.49"/>
</g>
<!-- node0x556692e779b0 -->
<g id="node21" class="node">
<title>node0x556692e779b0</title>
<polygon fill="none" stroke="black" points="560,-193 417.25,-193 417.25,-157 560,-157 560,-193"/>
<text text-anchor="middle" x="488.62" y="-170.32" font-family="Times,serif" font-size="14.00">FUNCTION_CALL</text>
</g>
<!-- node0x556692e777c0&#45;&#45;node0x556692e779b0 -->
<g id="edge20" class="edge">
<title>node0x556692e777c0&#45;&#45;node0x556692e779b0</title>
<path fill="none" stroke="black" d="M427.58,-231.89C440.24,-220.3 456.84,-205.11 469.52,-193.49"/>
</g>
<!-- node0x556692e775c0 -->
<g id="node17" class="node">
<title>node0x556692e775c0</title>
<polygon fill="none" stroke="black" points="298.25,-121 193,-121 193,-78.5 298.25,-78.5 298.25,-121"/>
<text text-anchor="middle" x="245.62" y="-103.7" font-family="Times,serif" font-size="14.00">IDENTIFIER</text>
<text text-anchor="middle" x="245.62" y="-86.45" font-family="Times,serif" font-size="14.00">second</text>
</g>
<!-- node0x556692e77760&#45;&#45;node0x556692e775c0 -->
<g id="edge16" class="edge">
<title>node0x556692e77760&#45;&#45;node0x556692e775c0</title>
<path fill="none" stroke="black" d="M308.19,-156.64C296.35,-146.06 281.16,-132.49 268.71,-121.37"/>
</g>
<!-- node0x556692e77690 -->
<g id="node18" class="node">
<title>node0x556692e77690</title>
<polygon fill="none" stroke="black" points="370.62,-117.75 316.62,-117.75 316.62,-81.75 370.62,-81.75 370.62,-117.75"/>
<text text-anchor="middle" x="343.62" y="-95.08" font-family="Times,serif" font-size="14.00">LIST</text>
</g>
<!-- node0x556692e77760&#45;&#45;node0x556692e77690 -->
<g id="edge17" class="edge">
<title>node0x556692e77760&#45;&#45;node0x556692e77690</title>
<path fill="none" stroke="black" d="M331.42,-156.64C333.95,-145.05 337.27,-129.86 339.8,-118.24"/>
</g>
<!-- node0x556692e77630 -->
<g id="node19" class="node">
<title>node0x556692e77630</title>
<polygon fill="none" stroke="black" points="268.38,-42.5 112.88,-42.5 112.88,0 268.38,0 268.38,-42.5"/>
<text text-anchor="middle" x="190.62" y="-25.2" font-family="Times,serif" font-size="14.00">NUMBER_LITERAL</text>
<text text-anchor="middle" x="190.62" y="-7.95" font-family="Times,serif" font-size="14.00">5</text>
</g>
<!-- node0x556692e77690&#45;&#45;node0x556692e77630 -->
<g id="edge18" class="edge">
<title>node0x556692e77690&#45;&#45;node0x556692e77630</title>
<path fill="none" stroke="black" d="M316.21,-83.09C313.32,-81.51 310.42,-79.96 307.62,-78.5 284.04,-66.21 257.34,-53.3 235.4,-42.95"/>
</g>
<!-- node0x556692e776e0 -->
<g id="node20" class="node">
<title>node0x556692e776e0</title>
<polygon fill="none" stroke="black" points="442.38,-42.5 286.88,-42.5 286.88,0 442.38,0 442.38,-42.5"/>
<text text-anchor="middle" x="364.62" y="-25.2" font-family="Times,serif" font-size="14.00">NUMBER_LITERAL</text>
<text text-anchor="middle" x="364.62" y="-7.95" font-family="Times,serif" font-size="14.00">7</text>
</g>
<!-- node0x556692e77690&#45;&#45;node0x556692e776e0 -->
<g id="edge19" class="edge">
<title>node0x556692e77690&#45;&#45;node0x556692e776e0</title>
<path fill="none" stroke="black" d="M348.39,-81.39C351.54,-69.93 355.67,-54.86 358.98,-42.8"/>
</g>
<!-- node0x556692e77810 -->
<g id="node22" class="node">
<title>node0x556692e77810</title>
<polygon fill="none" stroke="black" points="525.25,-121 420,-121 420,-78.5 525.25,-78.5 525.25,-121"/>
<text text-anchor="middle" x="472.62" y="-103.7" font-family="Times,serif" font-size="14.00">IDENTIFIER</text>
<text text-anchor="middle" x="472.62" y="-86.45" font-family="Times,serif" font-size="14.00">first</text>
</g>
<!-- node0x556692e779b0&#45;&#45;node0x556692e77810 -->
<g id="edge21" class="edge">
<title>node0x556692e779b0&#45;&#45;node0x556692e77810</title>
<path fill="none" stroke="black" d="M484.83,-156.64C482.52,-146.06 479.56,-132.49 477.13,-121.37"/>
</g>
<!-- node0x556692e778e0 -->
<g id="node23" class="node">
<title>node0x556692e778e0</title>
<polygon fill="none" stroke="black" points="597.62,-117.75 543.62,-117.75 543.62,-81.75 597.62,-81.75 597.62,-117.75"/>
<text text-anchor="middle" x="570.62" y="-95.08" font-family="Times,serif" font-size="14.00">LIST</text>
</g>
<!-- node0x556692e779b0&#45;&#45;node0x556692e778e0 -->
<g id="edge22" class="edge">
<title>node0x556692e779b0&#45;&#45;node0x556692e778e0</title>
<path fill="none" stroke="black" d="M508.06,-156.64C521.03,-145.05 538.04,-129.86 551.05,-118.24"/>
</g>
<!-- node0x556692e77880 -->
<g id="node24" class="node">
<title>node0x556692e77880</title>
<polygon fill="none" stroke="black" points="627.38,-42.5 471.88,-42.5 471.88,0 627.38,0 627.38,-42.5"/>
<text text-anchor="middle" x="549.62" y="-25.2" font-family="Times,serif" font-size="14.00">NUMBER_LITERAL</text>
<text text-anchor="middle" x="549.62" y="-7.95" font-family="Times,serif" font-size="14.00">2</text>
</g>
<!-- node0x556692e778e0&#45;&#45;node0x556692e77880 -->
<g id="edge23" class="edge">
<title>node0x556692e778e0&#45;&#45;node0x556692e77880</title>
<path fill="none" stroke="black" d="M565.86,-81.39C562.71,-69.93 558.58,-54.86 555.27,-42.8"/>
</g>
<!-- node0x556692e77930 -->
<g id="node25" class="node">
<title>node0x556692e77930</title>
<polygon fill="none" stroke="black" points="801.38,-42.5 645.88,-42.5 645.88,0 801.38,0 801.38,-42.5"/>
<text text-anchor="middle" x="723.62" y="-25.2" font-family="Times,serif" font-size="14.00">NUMBER_LITERAL</text>
<text text-anchor="middle" x="723.62" y="-7.95" font-family="Times,serif" font-size="14.00">9</text>
</g>
<!-- node0x556692e778e0&#45;&#45;node0x556692e77930 -->
<g id="edge24" class="edge">
<title>node0x556692e778e0&#45;&#45;node0x556692e77930</title>
<path fill="none" stroke="black" d="M597.98,-85.07C621.44,-73.34 655.61,-56.26 682.39,-42.87"/>
</g>
<!-- node0x556692e77d80 -->
<g id="node27" class="node">
<title>node0x556692e77d80</title>
<polygon fill="none" stroke="black" points="387.25,-808 282,-808 282,-765.5 387.25,-765.5 387.25,-808"/>
<text text-anchor="middle" x="334.62" y="-790.7" font-family="Times,serif" font-size="14.00">IDENTIFIER</text>
<text text-anchor="middle" x="334.62" y="-773.45" font-family="Times,serif" font-size="14.00">identity</text>
</g>
<!-- node0x556692e780a0&#45;&#45;node0x556692e77d80 -->
<g id="edge26" class="edge">
<title>node0x556692e780a0&#45;&#45;node0x556692e77d80</title>
<path fill="none" stroke="black" d="M439.16,-843.64C419.38,-833.06 393.99,-819.49 373.19,-808.37"/>
</g>
<!-- node0x556692e77e70 -->
<g id="node28" class="node">
<title>node0x556692e77e70</title>
<polygon fill="none" stroke="black" points="459.62,-804.75 405.62,-804.75 405.62,-768.75 459.62,-768.75 459.62,-804.75"/>
<text text-anchor="middle" x="432.62" y="-782.08" font-family="Times,serif" font-size="14.00">LIST</text>
</g>
<!-- node0x556692e780a0&#45;&#45;node0x556692e77e70 -->
<g id="edge27" class="edge">
<title>node0x556692e780a0&#45;&#45;node0x556692e77e70</title>
<path fill="none" stroke="black" d="M462.38,-843.64C456.21,-832.05 448.12,-816.86 441.94,-805.24"/>
</g>
<!-- node0x556692e78000 -->
<g id="node30" class="node">
<title>node0x556692e78000</title>
<polygon fill="none" stroke="black" points="545.5,-804.75 477.75,-804.75 477.75,-768.75 545.5,-768.75 545.5,-804.75"/>
<text text-anchor="middle" x="511.62" y="-782.08" font-family="Times,serif" font-size="14.00">BLOCK</text>
</g>
<!-- node0x556692e780a0&#45;&#45;node0x556692e78000 -->
<g id="edge29" class="edge">
<title>node0x556692e780a0&#45;&#45;node0x556692e78000</title>
<path fill="none" stroke="black" d="M481.1,-843.64C487.43,-832.05 495.73,-816.86 502.07,-805.24"/>
</g>
<!-- node0x556692e77df0 -->
<g id="node29" class="node">
<title>node0x556692e77df0</title>
<polygon fill="none" stroke="black" points="461.25,-729.5 356,-729.5 356,-687 461.25,-687 461.25,-729.5"/>
<text text-anchor="middle" x="408.62" y="-712.2" font-family="Times,serif" font-size="14.00">IDENTIFIER</text>
<text text-anchor="middle" x="408.62" y="-694.95" font-family="Times,serif" font-size="14.00">argument</text>
</g>
<!-- node0x556692e77e70&#45;&#45;node0x556692e77df0 -->
<g id="edge28" class="edge">
<title>node0x556692e77e70&#45;&#45;node0x556692e77df0</title>
<path fill="none" stroke="black" d="M427.18,-768.39C423.58,-756.93 418.85,-741.86 415.07,-729.8"/>
</g>
<!-- node0x556692e77fa0 -->
<g id="node31" class="node">
<title>node0x556692e77fa0</title>
<polygon fill="none" stroke="black" points="533.62,-726.25 479.62,-726.25 479.62,-690.25 533.62,-690.25 533.62,-726.25"/>
<text text-anchor="middle" x="506.62" y="-703.58" font-family="Times,serif" font-size="14.00">LIST</text>
</g>
<!-- node0x556692e78000&#45;&#45;node0x556692e77fa0 -->
<g id="edge30" class="edge">
<title>node0x556692e78000&#45;&#45;node0x556692e77fa0</title>
<path fill="none" stroke="black" d="M510.49,-768.39C509.67,-755.87 508.57,-739.04 507.76,-726.54"/>
</g>
<!-- node0x556692e77f40 -->
<g id="node32" class="node">
<title>node0x556692e77f40</title>
<polygon fill="none" stroke="black" points="596.38,-651 416.88,-651 416.88,-615 596.38,-615 596.38,-651"/>
<text text-anchor="middle" x="506.62" y="-628.33" font-family="Times,serif" font-size="14.00">RETURN_STATEMENT</text>
</g>
<!-- node0x556692e77fa0&#45;&#45;node0x556692e77f40 -->
<g id="edge31" class="edge">
<title>node0x556692e77fa0&#45;&#45;node0x556692e77f40</title>
<path fill="none" stroke="black" d="M506.62,-689.89C506.62,-678.3 506.62,-663.11 506.62,-651.49"/>
</g>
<!-- node0x556692e77ec0 -->
<g id="node33" class="node">
<title>node0x556692e77ec0</title>
<polygon fill="none" stroke="black" points="559.25,-579 454,-579 454,-536.5 559.25,-536.5 559.25,-579"/>
<text text-anchor="middle" x="506.62" y="-561.7" font-family="Times,serif" font-size="14.00">IDENTIFIER</text>
<text text-anchor="middle" x="506.62" y="-544.45" font-family="Times,serif" font-size="14.00">argument</text>
</g>
<!-- node0x556692e77f40&#45;&#45;node0x556692e77ec0 -->
<g id="edge32" class="edge">
<title>node0x556692e77f40&#45;&#45;node0x556692e77ec0</title>
<path fill="none" stroke="black" d="M506.62,-614.64C506.62,-604.06 506.62,-590.49 506.62,-579.37"/>
</g>
<!-- node0x556692e780f0 -->
<g id="node35" class="node">
<title>node0x556692e780f0</title>
<polygon fill="none" stroke="black" points="678.25,-808 573,-808 573,-765.5 678.25,-765.5 678.25,-808"/>
<text text-anchor="middle" x="625.62" y="-790.7" font-family="Times,serif" font-size="14.00">IDENTIFIER</text>
<text text-anchor="middle" x="625.62" y="-773.45" font-family="Times,serif" font-size="14.00">first</text>
</g>
<!-- node0x556692e78480&#45;&#45;node0x556692e780f0 -->
<g id="edge34" class="edge">
<title>node0x556692e78480&#45;&#45;node0x556692e780f0</title>
<path fill="none" stroke="black" d="M663.01,-843.64C655.94,-833.06 646.86,-819.49 639.42,-808.37"/>
</g>
<!-- node0x556692e781e0 -->
<g id="node36" class="node">
<title>node0x556692e781e0</title>
<polygon fill="none" stroke="black" points="750.62,-804.75 696.62,-804.75 696.62,-768.75 750.62,-768.75 750.62,-804.75"/>
<text text-anchor="middle" x="723.62" y="-782.08" font-family="Times,serif" font-size="14.00">LIST</text>
</g>
<!-- node0x556692e78480&#45;&#45;node0x556692e781e0 -->
<g id="edge35" class="edge">
<title>node0x556692e78480&#45;&#45;node0x556692e781e0</title>
<path fill="none" stroke="black" d="M686.24,-843.64C693.99,-832.05 704.15,-816.86 711.93,-805.24"/>
</g>
<!-- node0x556692e783e0 -->
<g id="node39" class="node">
<title>node0x556692e783e0</title>
<polygon fill="none" stroke="black" points="848.5,-804.75 780.75,-804.75 780.75,-768.75 848.5,-768.75 848.5,-804.75"/>
<text text-anchor="middle" x="814.62" y="-782.08" font-family="Times,serif" font-size="14.00">BLOCK</text>
</g>
<!-- node0x556692e78480&#45;&#45;node0x556692e783e0 -->
<g id="edge38" class="edge">
<title>node0x556692e78480&#45;&#45;node0x556692e783e0</title>
<path fill="none" stroke="black" d="M707.8,-843.64C729.96,-832.05 758.99,-816.86 781.2,-805.24"/>
</g>
<!-- node0x556692e78160 -->
<g id="node37" class="node">
<title>node0x556692e78160</title>
<polygon fill="none" stroke="black" points="657.25,-729.5 552,-729.5 552,-687 657.25,-687 657.25,-729.5"/>
<text text-anchor="middle" x="604.62" y="-712.2" font-family="Times,serif" font-size="14.00">IDENTIFIER</text>
<text text-anchor="middle" x="604.62" y="-694.95" font-family="Times,serif" font-size="14.00">a</text>
</g>
<!-- node0x556692e781e0&#45;&#45;node0x556692e78160 -->
<g id="edge36" class="edge">
<title>node0x556692e781e0&#45;&#45;node0x556692e78160</title>
<path fill="none" stroke="black" d="M696.62,-768.39C678.79,-756.93 655.35,-741.86 636.59,-729.8"/>
</g>
<!-- node0x556692e78230 -->
<g id="node38" class="node">
<title>node0x556692e78230</title>
<polygon fill="none" stroke="black" points="780.25,-729.5 675,-729.5 675,-687 780.25,-687 780.25,-729.5"/>
<text text-anchor="middle" x="727.62" y="-712.2" font-family="Times,serif" font-size="14.00">IDENTIFIER</text>
<text text-anchor="middle" x="727.62" y="-694.95" font-family="Times,serif" font-size="14.00">b</text>
</g>
<!-- node0x556692e781e0&#45;&#45;node0x556692e78230 -->
<g id="edge37" class="edge">
<title>node0x556692e781e0&#45;&#45;node0x556692e78230</title>
<path fill="none" stroke="black" d="M724.53,-768.39C725.13,-756.93 725.92,-741.86 726.55,-729.8"/>
</g>
<!-- node0x556692e78380 -->
<g id="node40" class="node">
<title>node0x556692e78380</title>
<polygon fill="none" stroke="black" points="852.62,-726.25 798.62,-726.25 798.62,-690.25 852.62,-690.25 852.62,-726.25"/>
<text text-anchor="middle" x="825.62" y="-703.58" font-family="Times,serif" font-size="14.00">LIST</text>
</g>
<!-- node0x556692e783e0&#45;&#45;node0x556692e78380 -->
<g id="edge39" class="edge">
<title>node0x556692e783e0&#45;&#45;node0x556692e78380</title>
<path fill="none" stroke="black" d="M817.12,-768.39C818.92,-755.87 821.34,-739.04 823.14,-726.54"/>
</g>
<!-- node0x556692e78320 -->
<g id="node41" class="node">
<title>node0x556692e78320</title>
<polygon fill="none" stroke="black" points="915.38,-651 735.88,-651 735.88,-615 915.38,-615 915.38,-651"/>
<text text-anchor="middle" x="825.62" y="-628.33" font-family="Times,serif" font-size="14.00">RETURN_STATEMENT</text>
</g>
<!-- node0x556692e78380&#45;&#45;node0x556692e78320 -->
<g id="edge40" class="edge">
<title>node0x556692e78380&#45;&#45;node0x556692e78320</title>
<path fill="none" stroke="black" d="M825.62,-689.89C825.62,-678.3 825.62,-663.11 825.62,-651.49"/>
</g>
<!-- node0x556692e782a0 -->
<g id="node42" class="node">
<title>node0x556692e782a0</title>
<polygon fill="none" stroke="black" points="878.25,-579 773,-579 773,-536.5 878.25,-536.5 878.25,-579"/>
<text text-anchor="middle" x="825.62" y="-561.7" font-family="Times,serif" font-size="14.00">IDENTIFIER</text>
<text text-anchor="middle" x="825.62" y="-544.45" font-family="Times,serif" font-size="14.00">a</text>
</g>
<!-- node0x556692e78320&#45;&#45;node0x556692e782a0 -->
<g id="edge41" class="edge">
<title>node0x556692e78320&#45;&#45;node0x556692e782a0</title>
<path fill="none" stroke="black" d="M825.62,-614.64C825.62,-604.06 825.62,-590.49 825.62,-579.37"/>
</g>
<!-- node0x556692e784d0 -->
<g id="node44" class="node">
<title>node0x556692e784d0</title>
<polygon fill="none" stroke="black" points="981.25,-808 876,-808 876,-765.5 981.25,-765.5 981.25,-808"/>
<text text-anchor="middle" x="928.62" y="-790.7" font-family="Times,serif" font-size="14.00">IDENTIFIER</text>
<text text-anchor="middle" x="928.62" y="-773.45" font-family="Times,serif" font-size="14.00">second</text>
</g>
<!-- node0x556692e78860&#45;&#45;node0x556692e784d0 -->
<g id="edge43" class="edge">
<title>node0x556692e78860&#45;&#45;node0x556692e784d0</title>
<path fill="none" stroke="black" d="M966.01,-843.64C958.94,-833.06 949.86,-819.49 942.42,-808.37"/>
</g>
<!-- node0x556692e785c0 -->
<g id="node45" class="node">
<title>node0x556692e785c0</title>
<polygon fill="none" stroke="black" points="1053.62,-804.75 999.62,-804.75 999.62,-768.75 1053.62,-768.75 1053.62,-804.75"/>
<text text-anchor="middle" x="1026.62" y="-782.08" font-family="Times,serif" font-size="14.00">LIST</text>
</g>
<!-- node0x556692e78860&#45;&#45;node0x556692e785c0 -->
<g id="edge44" class="edge">
<title>node0x556692e78860&#45;&#45;node0x556692e785c0</title>
<path fill="none" stroke="black" d="M989.24,-843.64C996.99,-832.05 1007.15,-816.86 1014.93,-805.24"/>
</g>
<!-- node0x556692e787c0 -->
<g id="node48" class="node">
<title>node0x556692e787c0</title>
<polygon fill="none" stroke="black" points="1159.5,-804.75 1091.75,-804.75 1091.75,-768.75 1159.5,-768.75 1159.5,-804.75"/>
<text text-anchor="middle" x="1125.62" y="-782.08" font-family="Times,serif" font-size="14.00">BLOCK</text>
</g>
<!-- node0x556692e78860&#45;&#45;node0x556692e787c0 -->
<g id="edge47" class="edge">
<title>node0x556692e78860&#45;&#45;node0x556692e787c0</title>
<path fill="none" stroke="black" d="M1012.7,-843.64C1036.46,-831.88 1067.71,-816.41 1091.31,-804.73"/>
</g>
<!-- node0x556692e78540 -->
<g id="node46" class="node">
<title>node0x556692e78540</title>
<polygon fill="none" stroke="black" points="976.25,-729.5 871,-729.5 871,-687 976.25,-687 976.25,-729.5"/>
<text text-anchor="middle" x="923.62" y="-712.2" font-family="Times,serif" font-size="14.00">IDENTIFIER</text>
<text text-anchor="middle" x="923.62" y="-694.95" font-family="Times,serif" font-size="14.00">a</text>
</g>
<!-- node0x556692e785c0&#45;&#45;node0x556692e78540 -->
<g id="edge45" class="edge">
<title>node0x556692e785c0&#45;&#45;node0x556692e78540</title>
<path fill="none" stroke="black" d="M1003.25,-768.39C987.82,-756.93 967.53,-741.86 951.29,-729.8"/>
</g>
<!-- node0x556692e78610 -->
<g id="node47" class="node">
<title>node0x556692e78610</title>
<polygon fill="none" stroke="black" points="1099.25,-729.5 994,-729.5 994,-687 1099.25,-687 1099.25,-729.5"/>
<text text-anchor="middle" x="1046.62" y="-712.2" font-family="Times,serif" font-size="14.00">IDENTIFIER</text>
<text text-anchor="middle" x="1046.62" y="-694.95" font-family="Times,serif" font-size="14.00">b</text>
</g>
<!-- node0x556692e785c0&#45;&#45;node0x556692e78610 -->
<g id="edge46" class="edge">
<title>node0x556692e785c0&#45;&#45;node0x556692e78610</title>
<path fill="none" stroke="black" d="M1031.16,-768.39C1034.16,-756.93 1038.1,-741.86 1041.25,-729.8"/>
</g>
<!-- node0x556692e78760 -->
<g id="node49" class="node">
<title>node0x556692e78760</title>
<polygon fill="none" stroke="black" points="1171.62,-726.25 1117.62,-726.25 1117.62,-690.25 1171.62,-690.25 1171.62,-726.25"/>
<text text-anchor="middle" x="1144.62" y="-703.58" font-family="Times,serif" font-size="14.00">LIST</text>
</g>
<!-- node0x556692e787c0&#45;&#45;node0x556692e78760 -->
<g id="edge48" class="edge">
<title>node0x556692e787c0&#45;&#45;node0x556692e78760</title>
<path fill="none" stroke="black" d="M1129.94,-768.39C1133.05,-755.87 1137.23,-739.04 1140.33,-726.54"/>
</g>
<!-- node0x556692e78700 -->
<g id="node50" class="node">
<title>node0x556692e78700</title>
<polygon fill="none" stroke="black" points="1234.38,-651 1054.88,-651 1054.88,-615 1234.38,-615 1234.38,-651"/>
<text text-anchor="middle" x="1144.62" y="-628.33" font-family="Times,serif" font-size="14.00">RETURN_STATEMENT</text>
</g>
<!-- node0x556692e78760&#45;&#45;node0x556692e78700 -->
<g id="edge49" class="edge">
<title>node0x556692e78760&#45;&#45;node0x556692e78700</title>
<path fill="none" stroke="black" d="M1144.62,-689.89C1144.62,-678.3 1144.62,-663.11 1144.62,-651.49"/>
</g>
<!-- node0x556692e78680 -->
<g id="node51" class="node">
<title>node0x556692e78680</title>
<polygon fill="none" stroke="black" points="1197.25,-579 1092,-579 1092,-536.5 1197.25,-536.5 1197.25,-579"/>
<text text-anchor="middle" x="1144.62" y="-561.7" font-family="Times,serif" font-size="14.00">IDENTIFIER</text>
<text text-anchor="middle" x="1144.62" y="-544.45" font-family="Times,serif" font-size="14.00">b</text>
</g>
<!-- node0x556692e78700&#45;&#45;node0x556692e78680 -->
<g id="edge50" class="edge">
<title>node0x556692e78700&#45;&#45;node0x556692e78680</title>
<path fill="none" stroke="black" d="M1144.62,-614.64C1144.62,-604.06 1144.62,-590.49 1144.62,-579.37"/>
</g>
</g>
</svg>
