<?xml version="1.0" encoding="UTF-8" standalone="no"?>
<!DOCTYPE svg PUBLIC "-//W3C//DTD SVG 1.1//EN"
 "http://www.w3.org/Graphics/SVG/1.1/DTD/svg11.dtd">
<!-- Generated by graphviz version 12.2.1 (0)
 -->
<!-- Pages: 1 -->
<svg width="1043pt" height="502pt"
 viewBox="0.00 0.00 1042.50 502.00" xmlns="http://www.w3.org/2000/svg" xmlns:xlink="http://www.w3.org/1999/xlink">
<g id="graph0" class="graph" transform="scale(1 1) rotate(0) translate(4 498)">
<polygon fill="white" stroke="none" points="-4,4 -4,-498 1038.5,-498 1038.5,4 -4,4"/>
<!-- node0x5571ee896bd0 -->
<g id="node1" class="node">
<title>node0x5571ee896bd0</title>
<polygon fill="none" stroke="black" points="426.75,-494 372.75,-494 372.75,-458 426.75,-458 426.75,-494"/>
<text text-anchor="middle" x="399.75" y="-471.32" font-family="Times,serif" font-size="14.00">LIST</text>
</g>
<!-- node0x5571ee896b70 -->
<g id="node2" class="node">
<title>node0x5571ee896b70</title>
<polygon fill="none" stroke="black" points="367.62,-422 269.88,-422 269.88,-386 367.62,-386 367.62,-422"/>
<text text-anchor="middle" x="318.75" y="-399.32" font-family="Times,serif" font-size="14.00">FUNCTION</text>
</g>
<!-- node0x5571ee896bd0&#45;&#45;node0x5571ee896b70 -->
<g id="edge1" class="edge">
<title>node0x5571ee896bd0&#45;&#45;node0x5571ee896b70</title>
<path fill="none" stroke="black" d="M379.73,-457.7C367.27,-446.93 351.29,-433.12 338.82,-422.35"/>
</g>
<!-- node0x5571ee896d00 -->
<g id="node22" class="node">
<title>node0x5571ee896d00</title>
<polygon fill="none" stroke="black" points="582.5,-422 391,-422 391,-386 582.5,-386 582.5,-422"/>
<text text-anchor="middle" x="486.75" y="-399.32" font-family="Times,serif" font-size="14.00">GLOBAL_DECLARATION</text>
</g>
<!-- node0x5571ee896bd0&#45;&#45;node0x5571ee896d00 -->
<g id="edge21" class="edge">
<title>node0x5571ee896bd0&#45;&#45;node0x5571ee896d00</title>
<path fill="none" stroke="black" d="M421.26,-457.7C434.64,-446.93 451.8,-433.12 465.19,-422.35"/>
</g>
<!-- node0x5571ee896350 -->
<g id="node3" class="node">
<title>node0x5571ee896350</title>
<polygon fill="none" stroke="black" points="263.38,-350 158.12,-350 158.12,-307.5 263.38,-307.5 263.38,-350"/>
<text text-anchor="middle" x="210.75" y="-332.7" font-family="Times,serif" font-size="14.00">IDENTIFIER</text>
<text text-anchor="middle" x="210.75" y="-315.45" font-family="Times,serif" font-size="14.00">main</text>
</g>
<!-- node0x5571ee896b70&#45;&#45;node0x5571ee896350 -->
<g id="edge2" class="edge">
<title>node0x5571ee896b70&#45;&#45;node0x5571ee896350</title>
<path fill="none" stroke="black" d="M293.16,-385.64C277.56,-375.06 257.55,-361.49 241.15,-350.37"/>
</g>
<!-- node0x5571ee8963c0 -->
<g id="node4" class="node">
<title>node0x5571ee8963c0</title>
<polygon fill="none" stroke="black" points="335.75,-346.75 281.75,-346.75 281.75,-310.75 335.75,-310.75 335.75,-346.75"/>
<text text-anchor="middle" x="308.75" y="-324.07" font-family="Times,serif" font-size="14.00">LIST</text>
</g>
<!-- node0x5571ee896b70&#45;&#45;node0x5571ee8963c0 -->
<g id="edge3" class="edge">
<title>node0x5571ee896b70&#45;&#45;node0x5571ee8963c0</title>
<path fill="none" stroke="black" d="M316.38,-385.64C314.8,-374.05 312.72,-358.86 311.14,-347.24"/>
</g>
<!-- node0x5571ee896ad0 -->
<g id="node5" class="node">
<title>node0x5571ee896ad0</title>
<polygon fill="none" stroke="black" points="421.62,-346.75 353.88,-346.75 353.88,-310.75 421.62,-310.75 421.62,-346.75"/>
<text text-anchor="middle" x="387.75" y="-324.07" font-family="Times,serif" font-size="14.00">BLOCK</text>
</g>
<!-- node0x5571ee896b70&#45;&#45;node0x5571ee896ad0 -->
<g id="edge4" class="edge">
<title>node0x5571ee896b70&#45;&#45;node0x5571ee896ad0</title>
<path fill="none" stroke="black" d="M335.1,-385.64C346.02,-374.05 360.33,-358.86 371.28,-347.24"/>
</g>
<!-- node0x5571ee8964f0 -->
<g id="node6" class="node">
<title>node0x5571ee8964f0</title>
<polygon fill="none" stroke="black" points="301.75,-268.25 247.75,-268.25 247.75,-232.25 301.75,-232.25 301.75,-268.25"/>
<text text-anchor="middle" x="274.75" y="-245.57" font-family="Times,serif" font-size="14.00">LIST</text>
</g>
<!-- node0x5571ee896ad0&#45;&#45;node0x5571ee8964f0 -->
<g id="edge5" class="edge">
<title>node0x5571ee896ad0&#45;&#45;node0x5571ee8964f0</title>
<path fill="none" stroke="black" d="M362.11,-310.39C343.62,-297.87 318.76,-281.04 300.29,-268.54"/>
</g>
<!-- node0x5571ee896690 -->
<g id="node9" class="node">
<title>node0x5571ee896690</title>
<polygon fill="none" stroke="black" points="414.75,-268.25 360.75,-268.25 360.75,-232.25 414.75,-232.25 414.75,-268.25"/>
<text text-anchor="middle" x="387.75" y="-245.57" font-family="Times,serif" font-size="14.00">LIST</text>
</g>
<!-- node0x5571ee896ad0&#45;&#45;node0x5571ee896690 -->
<g id="edge8" class="edge">
<title>node0x5571ee896ad0&#45;&#45;node0x5571ee896690</title>
<path fill="none" stroke="black" d="M387.75,-310.39C387.75,-297.87 387.75,-281.04 387.75,-268.54"/>
</g>
<!-- node0x5571ee896490 -->
<g id="node7" class="node">
<title>node0x5571ee896490</title>
<polygon fill="none" stroke="black" points="119.75,-193 65.75,-193 65.75,-157 119.75,-157 119.75,-193"/>
<text text-anchor="middle" x="92.75" y="-170.32" font-family="Times,serif" font-size="14.00">LIST</text>
</g>
<!-- node0x5571ee8964f0&#45;&#45;node0x5571ee896490 -->
<g id="edge6" class="edge">
<title>node0x5571ee8964f0&#45;&#45;node0x5571ee896490</title>
<path fill="none" stroke="black" d="M247.5,-238.28C213.19,-224.47 154.58,-200.89 120.18,-187.04"/>
</g>
<!-- node0x5571ee896410 -->
<g id="node8" class="node">
<title>node0x5571ee896410</title>
<polygon fill="none" stroke="black" points="107.5,-121 0,-121 0,-78.5 107.5,-78.5 107.5,-121"/>
<text text-anchor="middle" x="53.75" y="-103.7" font-family="Times,serif" font-size="14.00">IDENTIFIER</text>
<text text-anchor="middle" x="53.75" y="-86.45" font-family="Times,serif" font-size="14.00">localVariable</text>
</g>
<!-- node0x5571ee896490&#45;&#45;node0x5571ee896410 -->
<g id="edge7" class="edge">
<title>node0x5571ee896490&#45;&#45;node0x5571ee896410</title>
<path fill="none" stroke="black" d="M83.51,-156.64C77.88,-146.06 70.65,-132.49 64.73,-121.37"/>
</g>
<!-- node0x5571ee896630 -->
<g id="node10" class="node">
<title>node0x5571ee896630</title>
<polygon fill="none" stroke="black" points="378.62,-193 160.88,-193 160.88,-157 378.62,-157 378.62,-193"/>
<text text-anchor="middle" x="269.75" y="-170.32" font-family="Times,serif" font-size="14.00">ASSIGNMENT_STATEMENT</text>
</g>
<!-- node0x5571ee896690&#45;&#45;node0x5571ee896630 -->
<g id="edge9" class="edge">
<title>node0x5571ee896690&#45;&#45;node0x5571ee896630</title>
<path fill="none" stroke="black" d="M360.38,-232.26C341.59,-220.6 316.72,-205.16 297.79,-193.41"/>
</g>
<!-- node0x5571ee8967d0 -->
<g id="node13" class="node">
<title>node0x5571ee8967d0</title>
<polygon fill="none" stroke="black" points="614.62,-193 396.88,-193 396.88,-157 614.62,-157 614.62,-193"/>
<text text-anchor="middle" x="505.75" y="-170.32" font-family="Times,serif" font-size="14.00">ASSIGNMENT_STATEMENT</text>
</g>
<!-- node0x5571ee896690&#45;&#45;node0x5571ee8967d0 -->
<g id="edge12" class="edge">
<title>node0x5571ee896690&#45;&#45;node0x5571ee8967d0</title>
<path fill="none" stroke="black" d="M415.12,-232.26C433.91,-220.6 458.78,-205.16 477.71,-193.41"/>
</g>
<!-- node0x5571ee896a50 -->
<g id="node16" class="node">
<title>node0x5571ee896a50</title>
<polygon fill="none" stroke="black" points="826.5,-193 665,-193 665,-157 826.5,-157 826.5,-193"/>
<text text-anchor="middle" x="745.75" y="-170.32" font-family="Times,serif" font-size="14.00">PRINT_STATEMENT</text>
</g>
<!-- node0x5571ee896690&#45;&#45;node0x5571ee896a50 -->
<g id="edge15" class="edge">
<title>node0x5571ee896690&#45;&#45;node0x5571ee896a50</title>
<path fill="none" stroke="black" d="M415.2,-232.55C418.03,-231.21 420.91,-230 423.75,-229 446.1,-221.15 576.69,-200.94 664.54,-187.86"/>
</g>
<!-- node0x5571ee896540 -->
<g id="node11" class="node">
<title>node0x5571ee896540</title>
<polygon fill="none" stroke="black" points="243.75,-121 125.75,-121 125.75,-78.5 243.75,-78.5 243.75,-121"/>
<text text-anchor="middle" x="184.75" y="-103.7" font-family="Times,serif" font-size="14.00">IDENTIFIER</text>
<text text-anchor="middle" x="184.75" y="-86.45" font-family="Times,serif" font-size="14.00">globalVariable</text>
</g>
<!-- node0x5571ee896630&#45;&#45;node0x5571ee896540 -->
<g id="edge10" class="edge">
<title>node0x5571ee896630&#45;&#45;node0x5571ee896540</title>
<path fill="none" stroke="black" d="M249.61,-156.64C237.33,-146.06 221.58,-132.49 208.68,-121.37"/>
</g>
<!-- node0x5571ee8965b0 -->
<g id="node12" class="node">
<title>node0x5571ee8965b0</title>
<polygon fill="none" stroke="black" points="417.5,-121 262,-121 262,-78.5 417.5,-78.5 417.5,-121"/>
<text text-anchor="middle" x="339.75" y="-103.7" font-family="Times,serif" font-size="14.00">NUMBER_LITERAL</text>
<text text-anchor="middle" x="339.75" y="-86.45" font-family="Times,serif" font-size="14.00">10</text>
</g>
<!-- node0x5571ee896630&#45;&#45;node0x5571ee8965b0 -->
<g id="edge11" class="edge">
<title>node0x5571ee896630&#45;&#45;node0x5571ee8965b0</title>
<path fill="none" stroke="black" d="M286.34,-156.64C296.45,-146.06 309.42,-132.49 320.05,-121.37"/>
</g>
<!-- node0x5571ee8966e0 -->
<g id="node14" class="node">
<title>node0x5571ee8966e0</title>
<polygon fill="none" stroke="black" points="543.5,-121 436,-121 436,-78.5 543.5,-78.5 543.5,-121"/>
<text text-anchor="middle" x="489.75" y="-103.7" font-family="Times,serif" font-size="14.00">IDENTIFIER</text>
<text text-anchor="middle" x="489.75" y="-86.45" font-family="Times,serif" font-size="14.00">localVariable</text>
</g>
<!-- node0x5571ee8967d0&#45;&#45;node0x5571ee8966e0 -->
<g id="edge13" class="edge">
<title>node0x5571ee8967d0&#45;&#45;node0x5571ee8966e0</title>
<path fill="none" stroke="black" d="M501.96,-156.64C499.65,-146.06 496.68,-132.49 494.25,-121.37"/>
</g>
<!-- node0x5571ee896750 -->
<g id="node15" class="node">
<title>node0x5571ee896750</title>
<polygon fill="none" stroke="black" points="717.5,-121 562,-121 562,-78.5 717.5,-78.5 717.5,-121"/>
<text text-anchor="middle" x="639.75" y="-103.7" font-family="Times,serif" font-size="14.00">NUMBER_LITERAL</text>
<text text-anchor="middle" x="639.75" y="-86.45" font-family="Times,serif" font-size="14.00">3</text>
</g>
<!-- node0x5571ee8967d0&#45;&#45;node0x5571ee896750 -->
<g id="edge14" class="edge">
<title>node0x5571ee8967d0&#45;&#45;node0x5571ee896750</title>
<path fill="none" stroke="black" d="M537.51,-156.64C556.85,-146.06 581.68,-132.49 602.03,-121.37"/>
</g>
<!-- node0x5571ee8968a0 -->
<g id="node17" class="node">
<title>node0x5571ee8968a0</title>
<polygon fill="none" stroke="black" points="789.75,-117.75 735.75,-117.75 735.75,-81.75 789.75,-81.75 789.75,-117.75"/>
<text text-anchor="middle" x="762.75" y="-95.08" font-family="Times,serif" font-size="14.00">LIST</text>
</g>
<!-- node0x5571ee896a50&#45;&#45;node0x5571ee8968a0 -->
<g id="edge16" class="edge">
<title>node0x5571ee896a50&#45;&#45;node0x5571ee8968a0</title>
<path fill="none" stroke="black" d="M749.78,-156.64C752.47,-145.05 755.99,-129.86 758.69,-118.24"/>
</g>
<!-- node0x5571ee896820 -->
<g id="node18" class="node">
<title>node0x5571ee896820</title>
<polygon fill="none" stroke="black" points="610.5,-42.5 467,-42.5 467,0 610.5,0 610.5,-42.5"/>
<text text-anchor="middle" x="538.75" y="-25.2" font-family="Times,serif" font-size="14.00">STRING_LITERAL</text>
<text text-anchor="middle" x="538.75" y="-7.95" font-family="Times,serif" font-size="14.00">&quot;Global:&quot;</text>
</g>
<!-- node0x5571ee8968a0&#45;&#45;node0x5571ee896820 -->
<g id="edge17" class="edge">
<title>node0x5571ee8968a0&#45;&#45;node0x5571ee896820</title>
<path fill="none" stroke="black" d="M735.55,-82.63C732.62,-81.14 729.65,-79.73 726.75,-78.5 705.58,-69.51 654.46,-54.36 610.86,-42.05"/>
</g>
<!-- node0x5571ee8968f0 -->
<g id="node19" class="node">
<title>node0x5571ee8968f0</title>
<polygon fill="none" stroke="black" points="746.75,-42.5 628.75,-42.5 628.75,0 746.75,0 746.75,-42.5"/>
<text text-anchor="middle" x="687.75" y="-25.2" font-family="Times,serif" font-size="14.00">IDENTIFIER</text>
<text text-anchor="middle" x="687.75" y="-7.95" font-family="Times,serif" font-size="14.00">globalVariable</text>
</g>
<!-- node0x5571ee8968a0&#45;&#45;node0x5571ee8968f0 -->
<g id="edge18" class="edge">
<title>node0x5571ee8968a0&#45;&#45;node0x5571ee8968f0</title>
<path fill="none" stroke="black" d="M745.73,-81.39C734.49,-69.93 719.72,-54.86 707.89,-42.8"/>
</g>
<!-- node0x5571ee896960 -->
<g id="node20" class="node">
<title>node0x5571ee896960</title>
<polygon fill="none" stroke="black" points="908.5,-42.5 765,-42.5 765,0 908.5,0 908.5,-42.5"/>
<text text-anchor="middle" x="836.75" y="-25.2" font-family="Times,serif" font-size="14.00">STRING_LITERAL</text>
<text text-anchor="middle" x="836.75" y="-7.95" font-family="Times,serif" font-size="14.00">&quot;local:&quot;</text>
</g>
<!-- node0x5571ee8968a0&#45;&#45;node0x5571ee896960 -->
<g id="edge19" class="edge">
<title>node0x5571ee8968a0&#45;&#45;node0x5571ee896960</title>
<path fill="none" stroke="black" d="M779.54,-81.39C790.63,-69.93 805.21,-54.86 816.87,-42.8"/>
</g>
<!-- node0x5571ee8969d0 -->
<g id="node21" class="node">
<title>node0x5571ee8969d0</title>
<polygon fill="none" stroke="black" points="1034.5,-42.5 927,-42.5 927,0 1034.5,0 1034.5,-42.5"/>
<text text-anchor="middle" x="980.75" y="-25.2" font-family="Times,serif" font-size="14.00">IDENTIFIER</text>
<text text-anchor="middle" x="980.75" y="-7.95" font-family="Times,serif" font-size="14.00">localVariable</text>
</g>
<!-- node0x5571ee8968a0&#45;&#45;node0x5571ee8969d0 -->
<g id="edge20" class="edge">
<title>node0x5571ee8968a0&#45;&#45;node0x5571ee8969d0</title>
<path fill="none" stroke="black" d="M789.92,-89.22C824.05,-77.24 883.39,-56.41 926.87,-41.16"/>
</g>
<!-- node0x5571ee896ca0 -->
<g id="node23" class="node">
<title>node0x5571ee896ca0</title>
<polygon fill="none" stroke="black" points="516.75,-346.75 462.75,-346.75 462.75,-310.75 516.75,-310.75 516.75,-346.75"/>
<text text-anchor="middle" x="489.75" y="-324.07" font-family="Times,serif" font-size="14.00">LIST</text>
</g>
<!-- node0x5571ee896d00&#45;&#45;node0x5571ee896ca0 -->
<g id="edge22" class="edge">
<title>node0x5571ee896d00&#45;&#45;node0x5571ee896ca0</title>
<path fill="none" stroke="black" d="M487.46,-385.64C487.94,-374.05 488.56,-358.86 489.03,-347.24"/>
</g>
<!-- node0x5571ee896c20 -->
<g id="node24" class="node">
<title>node0x5571ee896c20</title>
<polygon fill="none" stroke="black" points="550.75,-271.5 432.75,-271.5 432.75,-229 550.75,-229 550.75,-271.5"/>
<text text-anchor="middle" x="491.75" y="-254.2" font-family="Times,serif" font-size="14.00">IDENTIFIER</text>
<text text-anchor="middle" x="491.75" y="-236.95" font-family="Times,serif" font-size="14.00">globalVariable</text>
</g>
<!-- node0x5571ee896ca0&#45;&#45;node0x5571ee896c20 -->
<g id="edge23" class="edge">
<title>node0x5571ee896ca0&#45;&#45;node0x5571ee896c20</title>
<path fill="none" stroke="black" d="M490.2,-310.39C490.5,-298.93 490.9,-283.86 491.21,-271.8"/>
</g>
</g>
</svg>
