<?xml version="1.0" encoding="UTF-8" standalone="no"?>
<!DOCTYPE svg PUBLIC "-//W3C//DTD SVG 1.1//EN"
 "http://www.w3.org/Graphics/SVG/1.1/DTD/svg11.dtd">
<!-- Generated by graphviz version 12.2.1 (0)
 -->
<!-- Pages: 1 -->
<svg width="1766pt" height="731pt"
 viewBox="0.00 0.00 1766.25 731.00" xmlns="http://www.w3.org/2000/svg" xmlns:xlink="http://www.w3.org/1999/xlink">
<g id="graph0" class="graph" transform="scale(1 1) rotate(0) translate(4 727)">
<polygon fill="white" stroke="none" points="-4,4 -4,-727 1762.25,-727 1762.25,4 -4,4"/>
<!-- node0x56464622e7a0 -->
<g id="node1" class="node">
<title>node0x56464622e7a0</title>
<polygon fill="none" stroke="black" points="278.62,-723 224.62,-723 224.62,-687 278.62,-687 278.62,-723"/>
<text text-anchor="middle" x="251.62" y="-700.33" font-family="Times,serif" font-size="14.00">LIST</text>
</g>
<!-- node0x56464622e740 -->
<g id="node2" class="node">
<title>node0x56464622e740</title>
<polygon fill="none" stroke="black" points="239.5,-651 141.75,-651 141.75,-615 239.5,-615 239.5,-651"/>
<text text-anchor="middle" x="190.62" y="-628.33" font-family="Times,serif" font-size="14.00">FUNCTION</text>
</g>
<!-- node0x56464622e7a0&#45;&#45;node0x56464622e740 -->
<g id="edge1" class="edge">
<title>node0x56464622e7a0&#45;&#45;node0x56464622e740</title>
<path fill="none" stroke="black" d="M236.55,-686.7C227.09,-675.85 214.95,-661.92 205.53,-651.1"/>
</g>
<!-- node0x56464622fba0 -->
<g id="node12" class="node">
<title>node0x56464622fba0</title>
<polygon fill="none" stroke="black" points="441.5,-651 343.75,-651 343.75,-615 441.5,-615 441.5,-651"/>
<text text-anchor="middle" x="392.62" y="-628.33" font-family="Times,serif" font-size="14.00">FUNCTION</text>
</g>
<!-- node0x56464622e7a0&#45;&#45;node0x56464622fba0 -->
<g id="edge11" class="edge">
<title>node0x56464622e7a0&#45;&#45;node0x56464622fba0</title>
<path fill="none" stroke="black" d="M278.81,-690.5C301.22,-679.38 333.16,-663.52 357.5,-651.44"/>
</g>
<!-- node0x56464622e350 -->
<g id="node3" class="node">
<title>node0x56464622e350</title>
<polygon fill="none" stroke="black" points="105.25,-579 0,-579 0,-536.5 105.25,-536.5 105.25,-579"/>
<text text-anchor="middle" x="52.62" y="-561.7" font-family="Times,serif" font-size="14.00">IDENTIFIER</text>
<text text-anchor="middle" x="52.62" y="-544.45" font-family="Times,serif" font-size="14.00">callMe</text>
</g>
<!-- node0x56464622e740&#45;&#45;node0x56464622e350 -->
<g id="edge2" class="edge">
<title>node0x56464622e740&#45;&#45;node0x56464622e350</title>
<path fill="none" stroke="black" d="M157.92,-614.64C137.99,-604.06 112.42,-590.49 91.47,-579.37"/>
</g>
<!-- node0x56464622e440 -->
<g id="node4" class="node">
<title>node0x56464622e440</title>
<polygon fill="none" stroke="black" points="177.62,-575.75 123.62,-575.75 123.62,-539.75 177.62,-539.75 177.62,-575.75"/>
<text text-anchor="middle" x="150.62" y="-553.08" font-family="Times,serif" font-size="14.00">LIST</text>
</g>
<!-- node0x56464622e740&#45;&#45;node0x56464622e440 -->
<g id="edge3" class="edge">
<title>node0x56464622e740&#45;&#45;node0x56464622e440</title>
<path fill="none" stroke="black" d="M181.15,-614.64C174.82,-603.05 166.52,-587.86 160.18,-576.24"/>
</g>
<!-- node0x56464622e6a0 -->
<g id="node6" class="node">
<title>node0x56464622e6a0</title>
<polygon fill="none" stroke="black" points="263.5,-575.75 195.75,-575.75 195.75,-539.75 263.5,-539.75 263.5,-575.75"/>
<text text-anchor="middle" x="229.62" y="-553.08" font-family="Times,serif" font-size="14.00">BLOCK</text>
</g>
<!-- node0x56464622e740&#45;&#45;node0x56464622e6a0 -->
<g id="edge5" class="edge">
<title>node0x56464622e740&#45;&#45;node0x56464622e6a0</title>
<path fill="none" stroke="black" d="M199.87,-614.64C206.04,-603.05 214.13,-587.86 220.31,-576.24"/>
</g>
<!-- node0x56464622e3c0 -->
<g id="node5" class="node">
<title>node0x56464622e3c0</title>
<polygon fill="none" stroke="black" points="184.25,-500.5 79,-500.5 79,-458 184.25,-458 184.25,-500.5"/>
<text text-anchor="middle" x="131.62" y="-483.2" font-family="Times,serif" font-size="14.00">IDENTIFIER</text>
<text text-anchor="middle" x="131.62" y="-465.95" font-family="Times,serif" font-size="14.00">i</text>
</g>
<!-- node0x56464622e440&#45;&#45;node0x56464622e3c0 -->
<g id="edge4" class="edge">
<title>node0x56464622e440&#45;&#45;node0x56464622e3c0</title>
<path fill="none" stroke="black" d="M146.31,-539.39C143.47,-527.93 139.72,-512.86 136.73,-500.8"/>
</g>
<!-- node0x56464622e640 -->
<g id="node7" class="node">
<title>node0x56464622e640</title>
<polygon fill="none" stroke="black" points="256.62,-497.25 202.62,-497.25 202.62,-461.25 256.62,-461.25 256.62,-497.25"/>
<text text-anchor="middle" x="229.62" y="-474.57" font-family="Times,serif" font-size="14.00">LIST</text>
</g>
<!-- node0x56464622e6a0&#45;&#45;node0x56464622e640 -->
<g id="edge6" class="edge">
<title>node0x56464622e6a0&#45;&#45;node0x56464622e640</title>
<path fill="none" stroke="black" d="M229.62,-539.39C229.62,-526.87 229.62,-510.04 229.62,-497.54"/>
</g>
<!-- node0x56464622e5e0 -->
<g id="node8" class="node">
<title>node0x56464622e5e0</title>
<polygon fill="none" stroke="black" points="310.38,-422 148.88,-422 148.88,-386 310.38,-386 310.38,-422"/>
<text text-anchor="middle" x="229.62" y="-399.32" font-family="Times,serif" font-size="14.00">PRINT_STATEMENT</text>
</g>
<!-- node0x56464622e640&#45;&#45;node0x56464622e5e0 -->
<g id="edge7" class="edge">
<title>node0x56464622e640&#45;&#45;node0x56464622e5e0</title>
<path fill="none" stroke="black" d="M229.62,-460.89C229.62,-449.3 229.62,-434.11 229.62,-422.49"/>
</g>
<!-- node0x56464622e510 -->
<g id="node9" class="node">
<title>node0x56464622e510</title>
<polygon fill="none" stroke="black" points="256.62,-346.75 202.62,-346.75 202.62,-310.75 256.62,-310.75 256.62,-346.75"/>
<text text-anchor="middle" x="229.62" y="-324.07" font-family="Times,serif" font-size="14.00">LIST</text>
</g>
<!-- node0x56464622e5e0&#45;&#45;node0x56464622e510 -->
<g id="edge8" class="edge">
<title>node0x56464622e5e0&#45;&#45;node0x56464622e510</title>
<path fill="none" stroke="black" d="M229.62,-385.64C229.62,-374.05 229.62,-358.86 229.62,-347.24"/>
</g>
<!-- node0x56464622e490 -->
<g id="node10" class="node">
<title>node0x56464622e490</title>
<polygon fill="none" stroke="black" points="230.38,-271.5 86.88,-271.5 86.88,-229 230.38,-229 230.38,-271.5"/>
<text text-anchor="middle" x="158.62" y="-254.2" font-family="Times,serif" font-size="14.00">STRING_LITERAL</text>
<text text-anchor="middle" x="158.62" y="-236.95" font-family="Times,serif" font-size="14.00">&quot;i is now&quot;</text>
</g>
<!-- node0x56464622e510&#45;&#45;node0x56464622e490 -->
<g id="edge9" class="edge">
<title>node0x56464622e510&#45;&#45;node0x56464622e490</title>
<path fill="none" stroke="black" d="M213.51,-310.39C202.88,-298.93 188.89,-283.86 177.7,-271.8"/>
</g>
<!-- node0x56464622e560 -->
<g id="node11" class="node">
<title>node0x56464622e560</title>
<polygon fill="none" stroke="black" points="353.25,-271.5 248,-271.5 248,-229 353.25,-229 353.25,-271.5"/>
<text text-anchor="middle" x="300.62" y="-254.2" font-family="Times,serif" font-size="14.00">IDENTIFIER</text>
<text text-anchor="middle" x="300.62" y="-236.95" font-family="Times,serif" font-size="14.00">i</text>
</g>
<!-- node0x56464622e510&#45;&#45;node0x56464622e560 -->
<g id="edge10" class="edge">
<title>node0x56464622e510&#45;&#45;node0x56464622e560</title>
<path fill="none" stroke="black" d="M245.74,-310.39C256.37,-298.93 270.36,-283.86 281.55,-271.8"/>
</g>
<!-- node0x56464622e7f0 -->
<g id="node13" class="node">
<title>node0x56464622e7f0</title>
<polygon fill="none" stroke="black" points="396.25,-579 291,-579 291,-536.5 396.25,-536.5 396.25,-579"/>
<text text-anchor="middle" x="343.62" y="-561.7" font-family="Times,serif" font-size="14.00">IDENTIFIER</text>
<text text-anchor="middle" x="343.62" y="-544.45" font-family="Times,serif" font-size="14.00">main</text>
</g>
<!-- node0x56464622fba0&#45;&#45;node0x56464622e7f0 -->
<g id="edge12" class="edge">
<title>node0x56464622fba0&#45;&#45;node0x56464622e7f0</title>
<path fill="none" stroke="black" d="M381.01,-614.64C373.94,-604.06 364.86,-590.49 357.42,-579.37"/>
</g>
<!-- node0x56464622e8e0 -->
<g id="node14" class="node">
<title>node0x56464622e8e0</title>
<polygon fill="none" stroke="black" points="468.62,-575.75 414.62,-575.75 414.62,-539.75 468.62,-539.75 468.62,-575.75"/>
<text text-anchor="middle" x="441.62" y="-553.08" font-family="Times,serif" font-size="14.00">LIST</text>
</g>
<!-- node0x56464622fba0&#45;&#45;node0x56464622e8e0 -->
<g id="edge13" class="edge">
<title>node0x56464622fba0&#45;&#45;node0x56464622e8e0</title>
<path fill="none" stroke="black" d="M404.24,-614.64C411.99,-603.05 422.15,-587.86 429.93,-576.24"/>
</g>
<!-- node0x56464622fb00 -->
<g id="node17" class="node">
<title>node0x56464622fb00</title>
<polygon fill="none" stroke="black" points="582.5,-575.75 514.75,-575.75 514.75,-539.75 582.5,-539.75 582.5,-575.75"/>
<text text-anchor="middle" x="548.62" y="-553.08" font-family="Times,serif" font-size="14.00">BLOCK</text>
</g>
<!-- node0x56464622fba0&#45;&#45;node0x56464622fb00 -->
<g id="edge16" class="edge">
<title>node0x56464622fba0&#45;&#45;node0x56464622fb00</title>
<path fill="none" stroke="black" d="M429.59,-614.64C455.27,-602.58 489.25,-586.63 514.32,-574.86"/>
</g>
<!-- node0x56464622e860 -->
<g id="node15" class="node">
<title>node0x56464622e860</title>
<polygon fill="none" stroke="black" points="380.25,-500.5 275,-500.5 275,-458 380.25,-458 380.25,-500.5"/>
<text text-anchor="middle" x="327.62" y="-483.2" font-family="Times,serif" font-size="14.00">IDENTIFIER</text>
<text text-anchor="middle" x="327.62" y="-465.95" font-family="Times,serif" font-size="14.00">start</text>
</g>
<!-- node0x56464622e8e0&#45;&#45;node0x56464622e860 -->
<g id="edge14" class="edge">
<title>node0x56464622e8e0&#45;&#45;node0x56464622e860</title>
<path fill="none" stroke="black" d="M415.76,-539.39C398.68,-527.93 376.22,-512.86 358.25,-500.8"/>
</g>
<!-- node0x56464622e930 -->
<g id="node16" class="node">
<title>node0x56464622e930</title>
<polygon fill="none" stroke="black" points="503.25,-500.5 398,-500.5 398,-458 503.25,-458 503.25,-500.5"/>
<text text-anchor="middle" x="450.62" y="-483.2" font-family="Times,serif" font-size="14.00">IDENTIFIER</text>
<text text-anchor="middle" x="450.62" y="-465.95" font-family="Times,serif" font-size="14.00">end</text>
</g>
<!-- node0x56464622e8e0&#45;&#45;node0x56464622e930 -->
<g id="edge15" class="edge">
<title>node0x56464622e8e0&#45;&#45;node0x56464622e930</title>
<path fill="none" stroke="black" d="M443.67,-539.39C445.02,-527.93 446.79,-512.86 448.21,-500.8"/>
</g>
<!-- node0x56464622ea80 -->
<g id="node18" class="node">
<title>node0x56464622ea80</title>
<polygon fill="none" stroke="black" points="575.62,-497.25 521.62,-497.25 521.62,-461.25 575.62,-461.25 575.62,-497.25"/>
<text text-anchor="middle" x="548.62" y="-474.57" font-family="Times,serif" font-size="14.00">LIST</text>
</g>
<!-- node0x56464622fb00&#45;&#45;node0x56464622ea80 -->
<g id="edge17" class="edge">
<title>node0x56464622fb00&#45;&#45;node0x56464622ea80</title>
<path fill="none" stroke="black" d="M548.62,-539.39C548.62,-526.87 548.62,-510.04 548.62,-497.54"/>
</g>
<!-- node0x56464622ec40 -->
<g id="node21" class="node">
<title>node0x56464622ec40</title>
<polygon fill="none" stroke="black" points="721.62,-497.25 667.62,-497.25 667.62,-461.25 721.62,-461.25 721.62,-497.25"/>
<text text-anchor="middle" x="694.62" y="-474.57" font-family="Times,serif" font-size="14.00">LIST</text>
</g>
<!-- node0x56464622fb00&#45;&#45;node0x56464622ec40 -->
<g id="edge20" class="edge">
<title>node0x56464622fb00&#45;&#45;node0x56464622ec40</title>
<path fill="none" stroke="black" d="M581.75,-539.39C607.67,-525.81 643.25,-507.17 667.49,-494.47"/>
</g>
<!-- node0x56464622ea20 -->
<g id="node19" class="node">
<title>node0x56464622ea20</title>
<polygon fill="none" stroke="black" points="414.62,-422 360.62,-422 360.62,-386 414.62,-386 414.62,-422"/>
<text text-anchor="middle" x="387.62" y="-399.32" font-family="Times,serif" font-size="14.00">LIST</text>
</g>
<!-- node0x56464622ea80&#45;&#45;node0x56464622ea20 -->
<g id="edge18" class="edge">
<title>node0x56464622ea80&#45;&#45;node0x56464622ea20</title>
<path fill="none" stroke="black" d="M521.28,-462.45C518.38,-460.9 515.46,-459.39 512.62,-458 479.62,-441.78 440.42,-425.65 414.84,-415.52"/>
</g>
<!-- node0x56464622e9a0 -->
<g id="node20" class="node">
<title>node0x56464622e9a0</title>
<polygon fill="none" stroke="black" points="410.25,-350 305,-350 305,-307.5 410.25,-307.5 410.25,-350"/>
<text text-anchor="middle" x="357.62" y="-332.7" font-family="Times,serif" font-size="14.00">IDENTIFIER</text>
<text text-anchor="middle" x="357.62" y="-315.45" font-family="Times,serif" font-size="14.00">counter</text>
</g>
<!-- node0x56464622ea20&#45;&#45;node0x56464622e9a0 -->
<g id="edge19" class="edge">
<title>node0x56464622ea20&#45;&#45;node0x56464622e9a0</title>
<path fill="none" stroke="black" d="M380.52,-385.64C376.18,-375.06 370.62,-361.49 366.07,-350.37"/>
</g>
<!-- node0x56464622ebe0 -->
<g id="node22" class="node">
<title>node0x56464622ebe0</title>
<polygon fill="none" stroke="black" points="666.5,-422 448.75,-422 448.75,-386 666.5,-386 666.5,-422"/>
<text text-anchor="middle" x="557.62" y="-399.32" font-family="Times,serif" font-size="14.00">ASSIGNMENT_STATEMENT</text>
</g>
<!-- node0x56464622ec40&#45;&#45;node0x56464622ebe0 -->
<g id="edge21" class="edge">
<title>node0x56464622ec40&#45;&#45;node0x56464622ebe0</title>
<path fill="none" stroke="black" d="M667.23,-463.6C645.05,-451.75 613.76,-435.01 590.28,-422.46"/>
</g>
<!-- node0x56464622f2d0 -->
<g id="node25" class="node">
<title>node0x56464622f2d0</title>
<polygon fill="none" stroke="black" points="850.62,-422 684.62,-422 684.62,-386 850.62,-386 850.62,-422"/>
<text text-anchor="middle" x="767.62" y="-399.32" font-family="Times,serif" font-size="14.00">WHILE_STATEMENT</text>
</g>
<!-- node0x56464622ec40&#45;&#45;node0x56464622f2d0 -->
<g id="edge24" class="edge">
<title>node0x56464622ec40&#45;&#45;node0x56464622f2d0</title>
<path fill="none" stroke="black" d="M711.92,-460.89C723.48,-449.3 738.62,-434.11 750.2,-422.49"/>
</g>
<!-- node0x56464622fa80 -->
<g id="node40" class="node">
<title>node0x56464622fa80</title>
<polygon fill="none" stroke="black" points="1078.62,-422 912.62,-422 912.62,-386 1078.62,-386 1078.62,-422"/>
<text text-anchor="middle" x="995.62" y="-399.32" font-family="Times,serif" font-size="14.00">WHILE_STATEMENT</text>
</g>
<!-- node0x56464622ec40&#45;&#45;node0x56464622fa80 -->
<g id="edge39" class="edge">
<title>node0x56464622ec40&#45;&#45;node0x56464622fa80</title>
<path fill="none" stroke="black" d="M721.87,-471.62C767.09,-460.62 859.09,-438.23 923.92,-422.45"/>
</g>
<!-- node0x56464622ead0 -->
<g id="node23" class="node">
<title>node0x56464622ead0</title>
<polygon fill="none" stroke="black" points="533.25,-350 428,-350 428,-307.5 533.25,-307.5 533.25,-350"/>
<text text-anchor="middle" x="480.62" y="-332.7" font-family="Times,serif" font-size="14.00">IDENTIFIER</text>
<text text-anchor="middle" x="480.62" y="-315.45" font-family="Times,serif" font-size="14.00">counter</text>
</g>
<!-- node0x56464622ebe0&#45;&#45;node0x56464622ead0 -->
<g id="edge22" class="edge">
<title>node0x56464622ebe0&#45;&#45;node0x56464622ead0</title>
<path fill="none" stroke="black" d="M539.38,-385.64C528.26,-375.06 513.99,-361.49 502.3,-350.37"/>
</g>
<!-- node0x56464622eb40 -->
<g id="node24" class="node">
<title>node0x56464622eb40</title>
<polygon fill="none" stroke="black" points="656.25,-350 551,-350 551,-307.5 656.25,-307.5 656.25,-350"/>
<text text-anchor="middle" x="603.62" y="-332.7" font-family="Times,serif" font-size="14.00">IDENTIFIER</text>
<text text-anchor="middle" x="603.62" y="-315.45" font-family="Times,serif" font-size="14.00">start</text>
</g>
<!-- node0x56464622ebe0&#45;&#45;node0x56464622eb40 -->
<g id="edge23" class="edge">
<title>node0x56464622ebe0&#45;&#45;node0x56464622eb40</title>
<path fill="none" stroke="black" d="M568.53,-385.64C575.17,-375.06 583.69,-361.49 590.68,-350.37"/>
</g>
<!-- node0x56464622eda0 -->
<g id="node26" class="node">
<title>node0x56464622eda0</title>
<polygon fill="none" stroke="black" points="772.5,-350 674.75,-350 674.75,-307.5 772.5,-307.5 772.5,-350"/>
<text text-anchor="middle" x="723.62" y="-332.7" font-family="Times,serif" font-size="14.00">OPERATOR</text>
<text text-anchor="middle" x="723.62" y="-315.45" font-family="Times,serif" font-size="14.00">&lt;</text>
</g>
<!-- node0x56464622f2d0&#45;&#45;node0x56464622eda0 -->
<g id="edge25" class="edge">
<title>node0x56464622f2d0&#45;&#45;node0x56464622eda0</title>
<path fill="none" stroke="black" d="M757.2,-385.64C750.84,-375.06 742.69,-361.49 736.01,-350.37"/>
</g>
<!-- node0x56464622f250 -->
<g id="node29" class="node">
<title>node0x56464622f250</title>
<polygon fill="none" stroke="black" points="858.5,-346.75 790.75,-346.75 790.75,-310.75 858.5,-310.75 858.5,-346.75"/>
<text text-anchor="middle" x="824.62" y="-324.07" font-family="Times,serif" font-size="14.00">BLOCK</text>
</g>
<!-- node0x56464622f2d0&#45;&#45;node0x56464622f250 -->
<g id="edge28" class="edge">
<title>node0x56464622f2d0&#45;&#45;node0x56464622f250</title>
<path fill="none" stroke="black" d="M781.13,-385.64C790.15,-374.05 801.98,-358.86 811.02,-347.24"/>
</g>
<!-- node0x56464622ec90 -->
<g id="node27" class="node">
<title>node0x56464622ec90</title>
<polygon fill="none" stroke="black" points="654.25,-271.5 549,-271.5 549,-229 654.25,-229 654.25,-271.5"/>
<text text-anchor="middle" x="601.62" y="-254.2" font-family="Times,serif" font-size="14.00">IDENTIFIER</text>
<text text-anchor="middle" x="601.62" y="-236.95" font-family="Times,serif" font-size="14.00">counter</text>
</g>
<!-- node0x56464622eda0&#45;&#45;node0x56464622ec90 -->
<g id="edge26" class="edge">
<title>node0x56464622eda0&#45;&#45;node0x56464622ec90</title>
<path fill="none" stroke="black" d="M690.61,-307.05C673.25,-296.16 652.03,-282.86 634.67,-271.97"/>
</g>
<!-- node0x56464622ed00 -->
<g id="node28" class="node">
<title>node0x56464622ed00</title>
<polygon fill="none" stroke="black" points="777.25,-271.5 672,-271.5 672,-229 777.25,-229 777.25,-271.5"/>
<text text-anchor="middle" x="724.62" y="-254.2" font-family="Times,serif" font-size="14.00">IDENTIFIER</text>
<text text-anchor="middle" x="724.62" y="-236.95" font-family="Times,serif" font-size="14.00">end</text>
</g>
<!-- node0x56464622eda0&#45;&#45;node0x56464622ed00 -->
<g id="edge27" class="edge">
<title>node0x56464622eda0&#45;&#45;node0x56464622ed00</title>
<path fill="none" stroke="black" d="M723.89,-307.25C724.04,-296.27 724.21,-282.79 724.36,-271.81"/>
</g>
<!-- node0x56464622efc0 -->
<g id="node30" class="node">
<title>node0x56464622efc0</title>
<polygon fill="none" stroke="black" points="850.62,-268.25 796.62,-268.25 796.62,-232.25 850.62,-232.25 850.62,-268.25"/>
<text text-anchor="middle" x="823.62" y="-245.57" font-family="Times,serif" font-size="14.00">LIST</text>
</g>
<!-- node0x56464622f250&#45;&#45;node0x56464622efc0 -->
<g id="edge29" class="edge">
<title>node0x56464622f250&#45;&#45;node0x56464622efc0</title>
<path fill="none" stroke="black" d="M824.4,-310.39C824.23,-297.87 824.01,-281.04 823.85,-268.54"/>
</g>
<!-- node0x56464622ef60 -->
<g id="node31" class="node">
<title>node0x56464622ef60</title>
<polygon fill="none" stroke="black" points="674,-193 531.25,-193 531.25,-157 674,-157 674,-193"/>
<text text-anchor="middle" x="602.62" y="-170.32" font-family="Times,serif" font-size="14.00">FUNCTION_CALL</text>
</g>
<!-- node0x56464622efc0&#45;&#45;node0x56464622ef60 -->
<g id="edge30" class="edge">
<title>node0x56464622efc0&#45;&#45;node0x56464622ef60</title>
<path fill="none" stroke="black" d="M796.48,-233.52C793.21,-231.89 789.88,-230.34 786.62,-229 750.51,-214.13 708.78,-201.74 674.2,-192.69"/>
</g>
<!-- node0x56464622f1f0 -->
<g id="node35" class="node">
<title>node0x56464622f1f0</title>
<polygon fill="none" stroke="black" points="932.5,-193 714.75,-193 714.75,-157 932.5,-157 932.5,-193"/>
<text text-anchor="middle" x="823.62" y="-170.32" font-family="Times,serif" font-size="14.00">ASSIGNMENT_STATEMENT</text>
</g>
<!-- node0x56464622efc0&#45;&#45;node0x56464622f1f0 -->
<g id="edge34" class="edge">
<title>node0x56464622efc0&#45;&#45;node0x56464622f1f0</title>
<path fill="none" stroke="black" d="M823.62,-231.89C823.62,-220.3 823.62,-205.11 823.62,-193.49"/>
</g>
<!-- node0x56464622edf0 -->
<g id="node32" class="node">
<title>node0x56464622edf0</title>
<polygon fill="none" stroke="black" points="557.25,-121 452,-121 452,-78.5 557.25,-78.5 557.25,-121"/>
<text text-anchor="middle" x="504.62" y="-103.7" font-family="Times,serif" font-size="14.00">IDENTIFIER</text>
<text text-anchor="middle" x="504.62" y="-86.45" font-family="Times,serif" font-size="14.00">callMe</text>
</g>
<!-- node0x56464622ef60&#45;&#45;node0x56464622edf0 -->
<g id="edge31" class="edge">
<title>node0x56464622ef60&#45;&#45;node0x56464622edf0</title>
<path fill="none" stroke="black" d="M579.4,-156.64C565.25,-146.06 547.09,-132.49 532.21,-121.37"/>
</g>
<!-- node0x56464622eee0 -->
<g id="node33" class="node">
<title>node0x56464622eee0</title>
<polygon fill="none" stroke="black" points="629.62,-117.75 575.62,-117.75 575.62,-81.75 629.62,-81.75 629.62,-117.75"/>
<text text-anchor="middle" x="602.62" y="-95.08" font-family="Times,serif" font-size="14.00">LIST</text>
</g>
<!-- node0x56464622ef60&#45;&#45;node0x56464622eee0 -->
<g id="edge32" class="edge">
<title>node0x56464622ef60&#45;&#45;node0x56464622eee0</title>
<path fill="none" stroke="black" d="M602.62,-156.64C602.62,-145.05 602.62,-129.86 602.62,-118.24"/>
</g>
<!-- node0x56464622ee60 -->
<g id="node34" class="node">
<title>node0x56464622ee60</title>
<polygon fill="none" stroke="black" points="641.25,-42.5 536,-42.5 536,0 641.25,0 641.25,-42.5"/>
<text text-anchor="middle" x="588.62" y="-25.2" font-family="Times,serif" font-size="14.00">IDENTIFIER</text>
<text text-anchor="middle" x="588.62" y="-7.95" font-family="Times,serif" font-size="14.00">counter</text>
</g>
<!-- node0x56464622eee0&#45;&#45;node0x56464622ee60 -->
<g id="edge33" class="edge">
<title>node0x56464622eee0&#45;&#45;node0x56464622ee60</title>
<path fill="none" stroke="black" d="M599.45,-81.39C597.35,-69.93 594.59,-54.86 592.39,-42.8"/>
</g>
<!-- node0x56464622f010 -->
<g id="node36" class="node">
<title>node0x56464622f010</title>
<polygon fill="none" stroke="black" points="779.25,-121 674,-121 674,-78.5 779.25,-78.5 779.25,-121"/>
<text text-anchor="middle" x="726.62" y="-103.7" font-family="Times,serif" font-size="14.00">IDENTIFIER</text>
<text text-anchor="middle" x="726.62" y="-86.45" font-family="Times,serif" font-size="14.00">counter</text>
</g>
<!-- node0x56464622f1f0&#45;&#45;node0x56464622f010 -->
<g id="edge35" class="edge">
<title>node0x56464622f1f0&#45;&#45;node0x56464622f010</title>
<path fill="none" stroke="black" d="M800.64,-156.64C786.63,-146.06 768.66,-132.49 753.93,-121.37"/>
</g>
<!-- node0x56464622f170 -->
<g id="node37" class="node">
<title>node0x56464622f170</title>
<polygon fill="none" stroke="black" points="895.5,-121 797.75,-121 797.75,-78.5 895.5,-78.5 895.5,-121"/>
<text text-anchor="middle" x="846.62" y="-103.7" font-family="Times,serif" font-size="14.00">OPERATOR</text>
<text text-anchor="middle" x="846.62" y="-86.45" font-family="Times,serif" font-size="14.00">+</text>
</g>
<!-- node0x56464622f1f0&#45;&#45;node0x56464622f170 -->
<g id="edge36" class="edge">
<title>node0x56464622f1f0&#45;&#45;node0x56464622f170</title>
<path fill="none" stroke="black" d="M829.08,-156.64C832.4,-146.06 836.66,-132.49 840.15,-121.37"/>
</g>
<!-- node0x56464622f080 -->
<g id="node38" class="node">
<title>node0x56464622f080</title>
<polygon fill="none" stroke="black" points="764.25,-42.5 659,-42.5 659,0 764.25,0 764.25,-42.5"/>
<text text-anchor="middle" x="711.62" y="-25.2" font-family="Times,serif" font-size="14.00">IDENTIFIER</text>
<text text-anchor="middle" x="711.62" y="-7.95" font-family="Times,serif" font-size="14.00">counter</text>
</g>
<!-- node0x56464622f170&#45;&#45;node0x56464622f080 -->
<g id="edge37" class="edge">
<title>node0x56464622f170&#45;&#45;node0x56464622f080</title>
<path fill="none" stroke="black" d="M810.09,-78.05C790.88,-67.16 767.4,-53.86 748.19,-42.97"/>
</g>
<!-- node0x56464622f0f0 -->
<g id="node39" class="node">
<title>node0x56464622f0f0</title>
<polygon fill="none" stroke="black" points="937.38,-42.5 781.88,-42.5 781.88,0 937.38,0 937.38,-42.5"/>
<text text-anchor="middle" x="859.62" y="-25.2" font-family="Times,serif" font-size="14.00">NUMBER_LITERAL</text>
<text text-anchor="middle" x="859.62" y="-7.95" font-family="Times,serif" font-size="14.00">1</text>
</g>
<!-- node0x56464622f170&#45;&#45;node0x56464622f0f0 -->
<g id="edge38" class="edge">
<title>node0x56464622f170&#45;&#45;node0x56464622f0f0</title>
<path fill="none" stroke="black" d="M850.11,-78.25C851.97,-67.27 854.26,-53.79 856.13,-42.81"/>
</g>
<!-- node0x56464622f320 -->
<g id="node41" class="node">
<title>node0x56464622f320</title>
<polygon fill="none" stroke="black" points="1073.38,-350 917.88,-350 917.88,-307.5 1073.38,-307.5 1073.38,-350"/>
<text text-anchor="middle" x="995.62" y="-332.7" font-family="Times,serif" font-size="14.00">NUMBER_LITERAL</text>
<text text-anchor="middle" x="995.62" y="-315.45" font-family="Times,serif" font-size="14.00">1</text>
</g>
<!-- node0x56464622fa80&#45;&#45;node0x56464622f320 -->
<g id="edge40" class="edge">
<title>node0x56464622fa80&#45;&#45;node0x56464622f320</title>
<path fill="none" stroke="black" d="M995.62,-385.64C995.62,-375.06 995.62,-361.49 995.62,-350.37"/>
</g>
<!-- node0x56464622fa00 -->
<g id="node42" class="node">
<title>node0x56464622fa00</title>
<polygon fill="none" stroke="black" points="1261.5,-346.75 1193.75,-346.75 1193.75,-310.75 1261.5,-310.75 1261.5,-346.75"/>
<text text-anchor="middle" x="1227.62" y="-324.07" font-family="Times,serif" font-size="14.00">BLOCK</text>
</g>
<!-- node0x56464622fa80&#45;&#45;node0x56464622fa00 -->
<g id="edge41" class="edge">
<title>node0x56464622fa80&#45;&#45;node0x56464622fa00</title>
<path fill="none" stroke="black" d="M1050.9,-385.55C1095.13,-371.58 1155.76,-352.44 1193.27,-340.6"/>
</g>
<!-- node0x56464622f5b0 -->
<g id="node43" class="node">
<title>node0x56464622f5b0</title>
<polygon fill="none" stroke="black" points="1312.62,-268.25 1258.62,-268.25 1258.62,-232.25 1312.62,-232.25 1312.62,-268.25"/>
<text text-anchor="middle" x="1285.62" y="-245.57" font-family="Times,serif" font-size="14.00">LIST</text>
</g>
<!-- node0x56464622fa00&#45;&#45;node0x56464622f5b0 -->
<g id="edge42" class="edge">
<title>node0x56464622fa00&#45;&#45;node0x56464622f5b0</title>
<path fill="none" stroke="black" d="M1240.79,-310.39C1250.28,-297.87 1263.04,-281.04 1272.52,-268.54"/>
</g>
<!-- node0x56464622f550 -->
<g id="node44" class="node">
<title>node0x56464622f550</title>
<polygon fill="none" stroke="black" points="1242.5,-193 1024.75,-193 1024.75,-157 1242.5,-157 1242.5,-193"/>
<text text-anchor="middle" x="1133.62" y="-170.32" font-family="Times,serif" font-size="14.00">ASSIGNMENT_STATEMENT</text>
</g>
<!-- node0x56464622f5b0&#45;&#45;node0x56464622f550 -->
<g id="edge43" class="edge">
<title>node0x56464622f5b0&#45;&#45;node0x56464622f550</title>
<path fill="none" stroke="black" d="M1258.45,-236.15C1233.69,-224.22 1196.93,-206.51 1169.71,-193.39"/>
</g>
<!-- node0x56464622f7e0 -->
<g id="node49" class="node">
<title>node0x56464622f7e0</title>
<polygon fill="none" stroke="black" points="1390.62,-193 1260.62,-193 1260.62,-157 1390.62,-157 1390.62,-193"/>
<text text-anchor="middle" x="1325.62" y="-170.32" font-family="Times,serif" font-size="14.00">IF_STATEMENT</text>
</g>
<!-- node0x56464622f5b0&#45;&#45;node0x56464622f7e0 -->
<g id="edge48" class="edge">
<title>node0x56464622f5b0&#45;&#45;node0x56464622f7e0</title>
<path fill="none" stroke="black" d="M1295.1,-231.89C1301.43,-220.3 1309.73,-205.11 1316.07,-193.49"/>
</g>
<!-- node0x56464622f9a0 -->
<g id="node54" class="node">
<title>node0x56464622f9a0</title>
<polygon fill="none" stroke="black" points="1679,-193 1536.25,-193 1536.25,-157 1679,-157 1679,-193"/>
<text text-anchor="middle" x="1607.62" y="-170.32" font-family="Times,serif" font-size="14.00">FUNCTION_CALL</text>
</g>
<!-- node0x56464622f5b0&#45;&#45;node0x56464622f9a0 -->
<g id="edge53" class="edge">
<title>node0x56464622f5b0&#45;&#45;node0x56464622f9a0</title>
<path fill="none" stroke="black" d="M1313.08,-243C1361.97,-231.88 1465.6,-208.31 1535.95,-192.31"/>
</g>
<!-- node0x56464622f370 -->
<g id="node45" class="node">
<title>node0x56464622f370</title>
<polygon fill="none" stroke="black" points="1077.25,-121 972,-121 972,-78.5 1077.25,-78.5 1077.25,-121"/>
<text text-anchor="middle" x="1024.62" y="-103.7" font-family="Times,serif" font-size="14.00">IDENTIFIER</text>
<text text-anchor="middle" x="1024.62" y="-86.45" font-family="Times,serif" font-size="14.00">counter</text>
</g>
<!-- node0x56464622f550&#45;&#45;node0x56464622f370 -->
<g id="edge44" class="edge">
<title>node0x56464622f550&#45;&#45;node0x56464622f370</title>
<path fill="none" stroke="black" d="M1107.79,-156.64C1092.05,-146.06 1071.86,-132.49 1055.31,-121.37"/>
</g>
<!-- node0x56464622f4d0 -->
<g id="node46" class="node">
<title>node0x56464622f4d0</title>
<polygon fill="none" stroke="black" points="1193.5,-121 1095.75,-121 1095.75,-78.5 1193.5,-78.5 1193.5,-121"/>
<text text-anchor="middle" x="1144.62" y="-103.7" font-family="Times,serif" font-size="14.00">OPERATOR</text>
<text text-anchor="middle" x="1144.62" y="-86.45" font-family="Times,serif" font-size="14.00">&#45;</text>
</g>
<!-- node0x56464622f550&#45;&#45;node0x56464622f4d0 -->
<g id="edge45" class="edge">
<title>node0x56464622f550&#45;&#45;node0x56464622f4d0</title>
<path fill="none" stroke="black" d="M1136.23,-156.64C1137.82,-146.06 1139.86,-132.49 1141.53,-121.37"/>
</g>
<!-- node0x56464622f3e0 -->
<g id="node47" class="node">
<title>node0x56464622f3e0</title>
<polygon fill="none" stroke="black" points="1060.25,-42.5 955,-42.5 955,0 1060.25,0 1060.25,-42.5"/>
<text text-anchor="middle" x="1007.62" y="-25.2" font-family="Times,serif" font-size="14.00">IDENTIFIER</text>
<text text-anchor="middle" x="1007.62" y="-7.95" font-family="Times,serif" font-size="14.00">counter</text>
</g>
<!-- node0x56464622f4d0&#45;&#45;node0x56464622f3e0 -->
<g id="edge46" class="edge">
<title>node0x56464622f4d0&#45;&#45;node0x56464622f3e0</title>
<path fill="none" stroke="black" d="M1107.55,-78.05C1088.06,-67.16 1064.23,-53.86 1044.73,-42.97"/>
</g>
<!-- node0x56464622f450 -->
<g id="node48" class="node">
<title>node0x56464622f450</title>
<polygon fill="none" stroke="black" points="1233.38,-42.5 1077.88,-42.5 1077.88,0 1233.38,0 1233.38,-42.5"/>
<text text-anchor="middle" x="1155.62" y="-25.2" font-family="Times,serif" font-size="14.00">NUMBER_LITERAL</text>
<text text-anchor="middle" x="1155.62" y="-7.95" font-family="Times,serif" font-size="14.00">1</text>
</g>
<!-- node0x56464622f4d0&#45;&#45;node0x56464622f450 -->
<g id="edge47" class="edge">
<title>node0x56464622f4d0&#45;&#45;node0x56464622f450</title>
<path fill="none" stroke="black" d="M1147.57,-78.25C1149.15,-67.27 1151.09,-53.79 1152.67,-42.81"/>
</g>
<!-- node0x56464622f710 -->
<g id="node50" class="node">
<title>node0x56464622f710</title>
<polygon fill="none" stroke="black" points="1352.5,-121 1254.75,-121 1254.75,-78.5 1352.5,-78.5 1352.5,-121"/>
<text text-anchor="middle" x="1303.62" y="-103.7" font-family="Times,serif" font-size="14.00">OPERATOR</text>
<text text-anchor="middle" x="1303.62" y="-86.45" font-family="Times,serif" font-size="14.00">&lt;</text>
</g>
<!-- node0x56464622f7e0&#45;&#45;node0x56464622f710 -->
<g id="edge49" class="edge">
<title>node0x56464622f7e0&#45;&#45;node0x56464622f710</title>
<path fill="none" stroke="black" d="M1320.41,-156.64C1317.23,-146.06 1313.16,-132.49 1309.82,-121.37"/>
</g>
<!-- node0x56464622f760 -->
<g id="node53" class="node">
<title>node0x56464622f760</title>
<polygon fill="none" stroke="black" points="1537,-117.75 1370.25,-117.75 1370.25,-81.75 1537,-81.75 1537,-117.75"/>
<text text-anchor="middle" x="1453.62" y="-95.08" font-family="Times,serif" font-size="14.00">BREAK_STATEMENT</text>
</g>
<!-- node0x56464622f7e0&#45;&#45;node0x56464622f760 -->
<g id="edge52" class="edge">
<title>node0x56464622f7e0&#45;&#45;node0x56464622f760</title>
<path fill="none" stroke="black" d="M1355.96,-156.64C1376.22,-145.05 1402.76,-129.86 1423.06,-118.24"/>
</g>
<!-- node0x56464622f600 -->
<g id="node51" class="node">
<title>node0x56464622f600</title>
<polygon fill="none" stroke="black" points="1356.25,-42.5 1251,-42.5 1251,0 1356.25,0 1356.25,-42.5"/>
<text text-anchor="middle" x="1303.62" y="-25.2" font-family="Times,serif" font-size="14.00">IDENTIFIER</text>
<text text-anchor="middle" x="1303.62" y="-7.95" font-family="Times,serif" font-size="14.00">counter</text>
</g>
<!-- node0x56464622f710&#45;&#45;node0x56464622f600 -->
<g id="edge50" class="edge">
<title>node0x56464622f710&#45;&#45;node0x56464622f600</title>
<path fill="none" stroke="black" d="M1303.62,-78.25C1303.62,-67.27 1303.62,-53.79 1303.62,-42.81"/>
</g>
<!-- node0x56464622f670 -->
<g id="node52" class="node">
<title>node0x56464622f670</title>
<polygon fill="none" stroke="black" points="1479.25,-42.5 1374,-42.5 1374,0 1479.25,0 1479.25,-42.5"/>
<text text-anchor="middle" x="1426.62" y="-25.2" font-family="Times,serif" font-size="14.00">IDENTIFIER</text>
<text text-anchor="middle" x="1426.62" y="-7.95" font-family="Times,serif" font-size="14.00">start</text>
</g>
<!-- node0x56464622f710&#45;&#45;node0x56464622f670 -->
<g id="edge51" class="edge">
<title>node0x56464622f710&#45;&#45;node0x56464622f670</title>
<path fill="none" stroke="black" d="M1336.91,-78.05C1354.41,-67.16 1375.81,-53.86 1393.31,-42.97"/>
</g>
<!-- node0x56464622f830 -->
<g id="node55" class="node">
<title>node0x56464622f830</title>
<polygon fill="none" stroke="black" points="1660.25,-121 1555,-121 1555,-78.5 1660.25,-78.5 1660.25,-121"/>
<text text-anchor="middle" x="1607.62" y="-103.7" font-family="Times,serif" font-size="14.00">IDENTIFIER</text>
<text text-anchor="middle" x="1607.62" y="-86.45" font-family="Times,serif" font-size="14.00">callMe</text>
</g>
<!-- node0x56464622f9a0&#45;&#45;node0x56464622f830 -->
<g id="edge54" class="edge">
<title>node0x56464622f9a0&#45;&#45;node0x56464622f830</title>
<path fill="none" stroke="black" d="M1607.62,-156.64C1607.62,-146.06 1607.62,-132.49 1607.62,-121.37"/>
</g>
<!-- node0x56464622f920 -->
<g id="node56" class="node">
<title>node0x56464622f920</title>
<polygon fill="none" stroke="black" points="1732.62,-117.75 1678.62,-117.75 1678.62,-81.75 1732.62,-81.75 1732.62,-117.75"/>
<text text-anchor="middle" x="1705.62" y="-95.08" font-family="Times,serif" font-size="14.00">LIST</text>
</g>
<!-- node0x56464622f9a0&#45;&#45;node0x56464622f920 -->
<g id="edge55" class="edge">
<title>node0x56464622f9a0&#45;&#45;node0x56464622f920</title>
<path fill="none" stroke="black" d="M1630.85,-156.64C1646.36,-145.05 1666.68,-129.86 1682.23,-118.24"/>
</g>
<!-- node0x56464622f8a0 -->
<g id="node57" class="node">
<title>node0x56464622f8a0</title>
<polygon fill="none" stroke="black" points="1758.25,-42.5 1653,-42.5 1653,0 1758.25,0 1758.25,-42.5"/>
<text text-anchor="middle" x="1705.62" y="-25.2" font-family="Times,serif" font-size="14.00">IDENTIFIER</text>
<text text-anchor="middle" x="1705.62" y="-7.95" font-family="Times,serif" font-size="14.00">counter</text>
</g>
<!-- node0x56464622f920&#45;&#45;node0x56464622f8a0 -->
<g id="edge56" class="edge">
<title>node0x56464622f920&#45;&#45;node0x56464622f8a0</title>
<path fill="none" stroke="black" d="M1705.62,-81.39C1705.62,-69.93 1705.62,-54.86 1705.62,-42.8"/>
</g>
</g>
</svg>
